STARTFONT 2.1
COMMENT
COMMENT Converted from OpenType font "arialbd.ttf" by "otf2bdf 3.0".
COMMENT
FONT -FreeType-Arial-Bold-R-Normal--29-210-100-100-P-150-ISO10646-1
SIZE 21 100 100
FONTBOUNDINGBOX 52 43 -14 -12
STARTPROPERTIES 19
FOUNDRY "FreeType"
FAMILY_NAME "Arial"
WEIGHT_NAME "Bold"
SLANT "R"
SETWIDTH_NAME "Normal"
ADD_STYLE_NAME ""
PIXEL_SIZE 29
POINT_SIZE 210
RESOLUTION_X 100
RESOLUTION_Y 100
SPACING "P"
AVERAGE_WIDTH 150
CHARSET_REGISTRY "ISO10646"
CHARSET_ENCODING "1"
FONT_ASCENT 26
FONT_DESCENT 6
COPYRIGHT "© 2010 The Monotype Corporation. All Rights Reserved."
_OTF_FONTFILE "arialbd.ttf"
_OTF_PSNAME "Arial-BoldMT"
ENDPROPERTIES
CHARS 2815
STARTCHAR 0020
ENCODING 32
SWIDTH 274 0
DWIDTH 8 0
BBX 0 0 0 0
BITMAP
ENDCHAR
STARTCHAR 0021
ENCODING 33
SWIDTH 342 0
DWIDTH 10 0
BBX 4 21 3 0
BITMAP
F0
F0
F0
F0
F0
F0
F0
F0
F0
E0
E0
E0
E0
E0
60
00
00
F0
F0
F0
F0
ENDCHAR
STARTCHAR 0022
ENCODING 34
SWIDTH 480 0
DWIDTH 14 0
BBX 10 7 2 14
BITMAP
F3C0
F3C0
F3C0
F3C0
F3C0
F3C0
E1C0
ENDCHAR
STARTCHAR 0023
ENCODING 35
SWIDTH 548 0
DWIDTH 16 0
BBX 16 21 0 0
BITMAP
070E
071E
071C
071C
0F1C
0E1C
FFFF
FFFF
FFFF
1E38
1C38
1C78
1C70
FFFF
FFFF
FFFF
38F0
38E0
38E0
78E0
70E0
ENDCHAR
STARTCHAR 0024
ENCODING 36
SWIDTH 548 0
DWIDTH 16 0
BBX 14 26 1 -3
BITMAP
0300
0300
0FC0
3FE0
7FF0
7B78
7378
7300
7300
7B00
7F00
3FC0
1FF0
07F8
03F8
033C
033C
F33C
F33C
7B78
7FF8
3FF0
0FC0
0300
0300
0300
ENDCHAR
STARTCHAR 0025
ENCODING 37
SWIDTH 891 0
DWIDTH 26 0
BBX 23 22 1 -1
BITMAP
1E00E0
7F01C0
7381C0
F38380
E38380
E38700
E38700
E38E00
738E00
7F1C00
1E1C00
003878
0039FC
0071CE
0073CE
00E38E
00E38E
01C38E
01C38E
0381CE
0381FC
070078
ENDCHAR
STARTCHAR 0026
ENCODING 38
SWIDTH 720 0
DWIDTH 21 0
BBX 19 21 1 0
BITMAP
03E000
0FF800
1FFC00
1E3C00
1E1C00
1E1C00
1F3C00
0FF800
07F000
0FE000
1FE000
3FF300
7CFBC0
787FC0
F03F80
F03F80
F81F80
7C3FC0
7FFFE0
3FFBC0
0FE0C0
ENDCHAR
STARTCHAR 0027
ENCODING 39
SWIDTH 240 0
DWIDTH 7 0
BBX 5 7 1 14
BITMAP
F8
F8
F8
F8
70
70
70
ENDCHAR
STARTCHAR 0028
ENCODING 40
SWIDTH 342 0
DWIDTH 10 0
BBX 6 27 2 -6
BITMAP
0C
1C
3C
38
78
78
70
F0
F0
F0
E0
E0
E0
E0
E0
E0
E0
F0
F0
F0
70
70
78
38
3C
1C
0C
ENDCHAR
STARTCHAR 0029
ENCODING 41
SWIDTH 342 0
DWIDTH 10 0
BBX 7 27 1 -6
BITMAP
E0
70
70
78
38
3C
3C
1C
1E
1E
1E
1E
1E
1E
1E
1E
1E
1E
1C
1C
3C
3C
38
78
70
70
E0
ENDCHAR
STARTCHAR 002A
ENCODING 42
SWIDTH 377 0
DWIDTH 11 0
BBX 10 10 1 11
BITMAP
1C00
1C00
9880
FF80
FFC0
3E00
3E00
7700
E780
2200
ENDCHAR
STARTCHAR 002B
ENCODING 43
SWIDTH 582 0
DWIDTH 17 0
BBX 15 14 1 3
BITMAP
0380
0380
0380
0380
0380
FFFE
FFFE
FFFE
FFFE
0380
0380
0380
0380
0380
ENDCHAR
STARTCHAR 002C
ENCODING 44
SWIDTH 274 0
DWIDTH 8 0
BBX 4 9 2 -5
BITMAP
F0
F0
F0
F0
30
30
60
E0
C0
ENDCHAR
STARTCHAR 002D
ENCODING 45
SWIDTH 342 0
DWIDTH 10 0
BBX 7 4 2 6
BITMAP
FE
FE
FE
FE
ENDCHAR
STARTCHAR 002E
ENCODING 46
SWIDTH 274 0
DWIDTH 8 0
BBX 4 4 2 0
BITMAP
F0
F0
F0
F0
ENDCHAR
STARTCHAR 002F
ENCODING 47
SWIDTH 274 0
DWIDTH 8 0
BBX 8 21 0 0
BITMAP
07
07
0E
0E
0E
0E
1C
1C
1C
1C
18
38
38
38
38
70
70
70
70
E0
E0
ENDCHAR
STARTCHAR 0030
ENCODING 48
SWIDTH 548 0
DWIDTH 16 0
BBX 14 21 1 0
BITMAP
0FC0
1FE0
3FF0
7FF0
7CF8
7878
F878
F07C
F07C
F03C
F03C
F07C
F07C
F07C
F878
7878
7CF8
7FF8
3FF0
1FE0
0FC0
ENDCHAR
STARTCHAR 0031
ENCODING 49
SWIDTH 548 0
DWIDTH 16 0
BBX 9 21 2 0
BITMAP
0380
0780
0F80
1F80
3F80
FF80
FF80
E780
C780
0780
0780
0780
0780
0780
0780
0780
0780
0780
0780
0780
0780
ENDCHAR
STARTCHAR 0032
ENCODING 50
SWIDTH 548 0
DWIDTH 16 0
BBX 14 21 1 0
BITMAP
0FC0
3FF0
3FF8
7FF8
787C
F07C
F03C
0038
0078
00F8
01F0
03E0
07C0
0F80
1F00
3E00
7C00
7FFC
FFFC
FFFC
FFFC
ENDCHAR
STARTCHAR 0033
ENCODING 51
SWIDTH 548 0
DWIDTH 16 0
BBX 14 21 1 0
BITMAP
0F80
1FE0
3FF0
7FF8
78F8
7078
7078
00F0
03E0
07C0
07F0
0078
007C
003C
F03C
F07C
787C
7FF8
3FF0
1FE0
0FC0
ENDCHAR
STARTCHAR 0034
ENCODING 52
SWIDTH 548 0
DWIDTH 16 0
BBX 14 21 1 0
BITMAP
00F0
00F0
01F0
03F0
03F0
07F0
0FF0
0EF0
1EF0
3CF0
3CF0
78F0
F0F0
F0F0
FFFC
FFFC
FFFC
00F0
00F0
00F0
00F0
ENDCHAR
STARTCHAR 0035
ENCODING 53
SWIDTH 548 0
DWIDTH 16 0
BBX 14 21 1 0
BITMAP
1FF8
1FF8
3FF8
3FF8
3C00
3C00
3800
3BC0
7FF0
7FF8
7FFC
787C
703C
003C
003C
F03C
787C
7FF8
3FF8
1FF0
0FC0
ENDCHAR
STARTCHAR 0036
ENCODING 54
SWIDTH 548 0
DWIDTH 16 0
BBX 14 21 1 0
BITMAP
07C0
1FF0
3FF8
3FF8
7C78
783C
7800
F800
F3C0
F7F0
FFF8
FFF8
FC7C
F83C
783C
783C
7C7C
3FF8
3FF8
1FF0
07C0
ENDCHAR
STARTCHAR 0037
ENCODING 55
SWIDTH 548 0
DWIDTH 16 0
BBX 14 21 1 0
BITMAP
FFFC
FFFC
FFFC
FFF8
0078
00F0
00E0
01E0
03C0
03C0
0780
0780
0700
0F00
0F00
0F00
0E00
1E00
1E00
1E00
1E00
ENDCHAR
STARTCHAR 0038
ENCODING 56
SWIDTH 548 0
DWIDTH 16 0
BBX 14 21 1 0
BITMAP
0FC0
3FF0
7FF0
7878
7878
7078
7878
7878
3FF0
1FC0
3FF0
7878
7878
F03C
F03C
F03C
F87C
7878
7FF8
3FF0
0FC0
ENDCHAR
STARTCHAR 0039
ENCODING 57
SWIDTH 548 0
DWIDTH 16 0
BBX 14 21 1 0
BITMAP
0F80
3FE0
7FF0
7FF0
F8F8
F078
F078
F07C
F8FC
FFFC
7FFC
3FBC
1F3C
007C
0078
F078
78F8
7FF0
7FF0
3FE0
0F80
ENDCHAR
STARTCHAR 003A
ENCODING 58
SWIDTH 342 0
DWIDTH 10 0
BBX 4 16 3 0
BITMAP
F0
F0
F0
F0
00
00
00
00
00
00
00
00
F0
F0
F0
F0
ENDCHAR
STARTCHAR 003B
ENCODING 59
SWIDTH 342 0
DWIDTH 10 0
BBX 4 21 3 -5
BITMAP
F0
F0
F0
F0
00
00
00
00
00
00
00
00
F0
F0
F0
F0
30
60
E0
C0
80
ENDCHAR
STARTCHAR 003C
ENCODING 60
SWIDTH 582 0
DWIDTH 17 0
BBX 15 16 1 2
BITMAP
0006
001E
007E
01FE
0FF8
3FE0
FF00
FC00
FC00
FF00
3FE0
0FF8
01FE
007E
001E
0006
ENDCHAR
STARTCHAR 003D
ENCODING 61
SWIDTH 582 0
DWIDTH 17 0
BBX 15 11 1 5
BITMAP
FFFE
FFFE
FFFE
FFFE
0000
0000
0000
FFFE
FFFE
FFFE
FFFE
ENDCHAR
STARTCHAR 003E
ENCODING 62
SWIDTH 582 0
DWIDTH 17 0
BBX 15 16 1 2
BITMAP
8000
F000
FC00
FF00
3FE0
0FF8
01FE
007E
007E
01FE
0FF8
3FE0
FF00
FC00
F000
8000
ENDCHAR
STARTCHAR 003F
ENCODING 63
SWIDTH 617 0
DWIDTH 18 0
BBX 14 21 2 0
BITMAP
0FC0
3FF0
7FF8
F87C
F03C
E03C
003C
003C
007C
01F8
03E0
03C0
0780
0780
0780
0000
0000
0780
0780
0780
0780
ENDCHAR
STARTCHAR 0040
ENCODING 64
SWIDTH 960 0
DWIDTH 28 0
BBX 27 28 1 -7
BITMAP
003FC000
01FFF800
03FFFC00
0FC03F00
1F000F00
1C3E7B80
387F73C0
38FF71C0
71FFF1C0
73E1F0C0
E3C0F0C0
E3C0E0C0
E780E0C0
E781E1C0
C781E1C0
C783E380
E7C7C780
E3FFCF00
E3FFFE00
61FDFC00
70F9F000
780000E0
3C0001C0
1E0007C0
0FC01F80
07FFFF00
01FFFC00
003FE000
ENDCHAR
STARTCHAR 0041
ENCODING 65
SWIDTH 720 0
DWIDTH 21 0
BBX 21 21 0 0
BITMAP
00F800
01F800
01FC00
01FC00
03FC00
03DE00
039E00
079E00
078F00
0F8F00
0F0F80
0F0780
1F0780
1FFFC0
3FFFC0
3FFFE0
3C01E0
7C01E0
7801F0
7800F0
F800F8
ENDCHAR
STARTCHAR 0042
ENCODING 66
SWIDTH 720 0
DWIDTH 21 0
BBX 17 21 2 0
BITMAP
FFF800
FFFE00
FFFF00
FFFF00
F00F00
F00F80
F00F00
F01F00
FFFE00
FFFC00
FFFE00
FFFF00
F00F80
F00780
F00780
F00780
F00F80
FFFF80
FFFF00
FFFF00
FFFC00
ENDCHAR
STARTCHAR 0043
ENCODING 67
SWIDTH 720 0
DWIDTH 21 0
BBX 18 21 1 0
BITMAP
01F800
07FE00
1FFF80
3FFF80
3F0FC0
7C07C0
780300
780000
F80000
F80000
F80000
F80000
F80000
780300
7803C0
7C07C0
3E0FC0
3FFF80
1FFF00
07FE00
01F800
ENDCHAR
STARTCHAR 0044
ENCODING 68
SWIDTH 720 0
DWIDTH 21 0
BBX 17 21 2 0
BITMAP
FFF000
FFFC00
FFFE00
FFFF00
F01F00
F00F80
F00780
F00780
F00780
F00780
F00780
F00780
F00780
F00780
F00780
F00F80
F01F00
FFFF00
FFFE00
FFFC00
FFF000
ENDCHAR
STARTCHAR 0045
ENCODING 69
SWIDTH 651 0
DWIDTH 19 0
BBX 16 21 2 0
BITMAP
FFFF
FFFF
FFFF
FFFF
F000
F000
F000
F000
FFFE
FFFE
FFFE
FFFE
F000
F000
F000
F000
F000
FFFF
FFFF
FFFF
FFFF
ENDCHAR
STARTCHAR 0046
ENCODING 70
SWIDTH 617 0
DWIDTH 18 0
BBX 14 21 2 0
BITMAP
FFFC
FFFC
FFFC
FFFC
F000
F000
F000
F000
FFF8
FFF8
FFF8
FFF8
F000
F000
F000
F000
F000
F000
F000
F000
F000
ENDCHAR
STARTCHAR 0047
ENCODING 71
SWIDTH 788 0
DWIDTH 23 0
BBX 20 21 1 0
BITMAP
01FC00
07FF80
0FFFC0
1FFFE0
3F07E0
7C03E0
7C0180
780000
F80000
F80000
F81FF0
F81FF0
781FF0
781FF0
7C00F0
7E00F0
3F03F0
1FFFF0
0FFFE0
07FF80
01FC00
ENDCHAR
STARTCHAR 0048
ENCODING 72
SWIDTH 720 0
DWIDTH 21 0
BBX 17 21 2 0
BITMAP
F00780
F00780
F00780
F00780
F00780
F00780
F00780
F00780
FFFF80
FFFF80
FFFF80
FFFF80
F00780
F00780
F00780
F00780
F00780
F00780
F00780
F00780
F00780
ENDCHAR
STARTCHAR 0049
ENCODING 73
SWIDTH 274 0
DWIDTH 8 0
BBX 4 21 2 0
BITMAP
F0
F0
F0
F0
F0
F0
F0
F0
F0
F0
F0
F0
F0
F0
F0
F0
F0
F0
F0
F0
F0
ENDCHAR
STARTCHAR 004A
ENCODING 74
SWIDTH 548 0
DWIDTH 16 0
BBX 13 21 1 0
BITMAP
0078
0078
0078
0078
0078
0078
0078
0078
0078
0078
0078
0078
0078
E078
F0F8
F0F8
F8F0
FFF0
7FF0
3FE0
1F80
ENDCHAR
STARTCHAR 004B
ENCODING 75
SWIDTH 720 0
DWIDTH 21 0
BBX 19 21 2 0
BITMAP
F00FC0
F01F80
F03F00
F07E00
F07C00
F0F800
F1F000
F3E000
F7E000
FFE000
FFF000
FFF800
FEF800
FC7C00
F83E00
F03E00
F01F00
F01F80
F00F80
F007C0
F007E0
ENDCHAR
STARTCHAR 004C
ENCODING 76
SWIDTH 617 0
DWIDTH 18 0
BBX 15 21 2 0
BITMAP
F000
F000
F000
F000
F000
F000
F000
F000
F000
F000
F000
F000
F000
F000
F000
F000
F000
FFFE
FFFE
FFFE
FFFE
ENDCHAR
STARTCHAR 004D
ENCODING 77
SWIDTH 822 0
DWIDTH 24 0
BBX 20 21 2 0
BITMAP
FC03F0
FE07F0
FE07F0
FE07F0
FF07F0
FF0FF0
FF0FF0
F70EF0
F78EF0
F79EF0
F79EF0
F39CF0
F3DCF0
F3FCF0
F3FCF0
F1F8F0
F1F8F0
F1F8F0
F1F8F0
F0F0F0
F0F0F0
ENDCHAR
STARTCHAR 004E
ENCODING 78
SWIDTH 720 0
DWIDTH 21 0
BBX 17 21 2 0
BITMAP
F80780
F80780
FC0780
FC0780
FE0780
FF0780
FF0780
FF8780
F78780
F3C780
F3E780
F1E780
F1F780
F0F780
F07F80
F07F80
F03F80
F03F80
F01F80
F00F80
F00F80
ENDCHAR
STARTCHAR 004F
ENCODING 79
SWIDTH 788 0
DWIDTH 23 0
BBX 20 21 1 0
BITMAP
01FC00
07FF00
1FFF80
3FFFC0
3F07E0
7C03E0
7801F0
7800F0
F800F0
F800F0
F800F0
F800F0
F800F0
7800F0
7C01F0
7C03E0
3F07E0
3FFFC0
1FFF80
07FF00
01FC00
ENDCHAR
STARTCHAR 0050
ENCODING 80
SWIDTH 651 0
DWIDTH 19 0
BBX 16 21 2 0
BITMAP
FFF0
FFFC
FFFE
FFFE
F03F
F01F
F00F
F01F
F03F
FFFE
FFFE
FFFC
FFF0
F000
F000
F000
F000
F000
F000
F000
F000
ENDCHAR
STARTCHAR 0051
ENCODING 81
SWIDTH 788 0
DWIDTH 23 0
BBX 21 23 1 -2
BITMAP
01FC00
07FF00
1FFF80
3FFFC0
3F07E0
7C03E0
7C01F0
7800F0
F800F0
F800F0
F800F0
F800F0
F800F0
7800F0
7831F0
7C3DF0
3F1FE0
3FFFC0
1FFFC0
07FFF0
01FDF8
000070
000030
ENDCHAR
STARTCHAR 0052
ENCODING 82
SWIDTH 720 0
DWIDTH 21 0
BBX 18 21 2 0
BITMAP
FFFC00
FFFE00
FFFF00
FFFF80
F00F80
F00780
F00780
F00F80
FFFF00
FFFF00
FFFE00
FFF000
F0F800
F07C00
F03E00
F03E00
F01F00
F01F80
F00F80
F007C0
F007C0
ENDCHAR
STARTCHAR 0053
ENCODING 83
SWIDTH 651 0
DWIDTH 19 0
BBX 17 21 1 0
BITMAP
07F000
1FFC00
3FFE00
7FFF00
7C1F00
780F00
780000
7F0000
3FF000
3FFC00
0FFE00
03FF00
007F80
000F80
F00780
F80F80
7C1F80
7FFF00
3FFF00
1FFC00
07F000
ENDCHAR
STARTCHAR 0054
ENCODING 84
SWIDTH 617 0
DWIDTH 18 0
BBX 16 21 1 0
BITMAP
FFFF
FFFF
FFFF
FFFF
03C0
03C0
03C0
03C0
03C0
03C0
03C0
03C0
03C0
03C0
03C0
03C0
03C0
03C0
03C0
03C0
03C0
ENDCHAR
STARTCHAR 0055
ENCODING 85
SWIDTH 720 0
DWIDTH 21 0
BBX 17 21 2 0
BITMAP
F00F80
F00F80
F00F80
F00F80
F00F80
F00F80
F00F80
F00F80
F00F80
F00F80
F00F80
F00F80
F00F80
F00F80
F00F80
F80F00
7C1F00
7FFF00
3FFE00
1FFC00
07F000
ENDCHAR
STARTCHAR 0056
ENCODING 86
SWIDTH 651 0
DWIDTH 19 0
BBX 19 21 0 0
BITMAP
F801E0
7803E0
7803C0
7C03C0
3C07C0
3C0780
3E0780
1E0F80
1E0F00
1F0F00
0F0F00
0F1E00
0F9E00
079E00
07BC00
07FC00
03F800
03F800
01F800
01F000
01F000
ENDCHAR
STARTCHAR 0057
ENCODING 87
SWIDTH 925 0
DWIDTH 27 0
BBX 27 21 0 0
BITMAP
F81F01E0
F81F81E0
781F81E0
783F83E0
783F83C0
7C3FC3C0
3C3BC3C0
3C7BC7C0
3C79C780
3C79E780
1E71E780
1EF1E780
1EF0EF00
1EF0FF00
0FE0FF00
0FE0FF00
0FE07E00
0FE07E00
0FC07E00
07C07E00
07C03C00
ENDCHAR
STARTCHAR 0058
ENCODING 88
SWIDTH 651 0
DWIDTH 19 0
BBX 19 21 0 0
BITMAP
7C07C0
3E07C0
3E0F80
1F0F00
0F9F00
0FBE00
07FC00
03FC00
03F800
01F800
01F000
03F800
03FC00
07FC00
0FBE00
0F9F00
1F1F00
3E0F80
3E07C0
7C07C0
F803E0
ENDCHAR
STARTCHAR 0059
ENCODING 89
SWIDTH 651 0
DWIDTH 19 0
BBX 19 21 0 0
BITMAP
F803E0
7C03C0
3C07C0
3E0780
1F0F80
1F1F00
0F9E00
07BE00
07FC00
03F800
01F800
01F000
00F000
00F000
00F000
00F000
00F000
00F000
00F000
00F000
00F000
ENDCHAR
STARTCHAR 005A
ENCODING 90
SWIDTH 617 0
DWIDTH 18 0
BBX 17 21 0 0
BITMAP
3FFF80
3FFF80
3FFF80
3FFF00
001F00
003E00
007C00
00F800
01F000
01E000
03E000
07C000
0F8000
1F0000
3E0000
3E0000
7C0000
FFFF80
FFFF80
FFFF80
FFFF80
ENDCHAR
STARTCHAR 005B
ENCODING 91
SWIDTH 342 0
DWIDTH 10 0
BBX 7 27 2 -6
BITMAP
FE
FE
FE
FE
F0
F0
F0
F0
F0
F0
F0
F0
F0
F0
F0
F0
F0
F0
F0
F0
F0
F0
F0
FE
FE
FE
FE
ENDCHAR
STARTCHAR 005C
ENCODING 92
SWIDTH 274 0
DWIDTH 8 0
BBX 8 21 0 0
BITMAP
E0
E0
70
70
70
70
30
38
38
38
18
1C
1C
1C
1C
0E
0E
0E
0E
07
07
ENDCHAR
STARTCHAR 005D
ENCODING 93
SWIDTH 342 0
DWIDTH 10 0
BBX 7 27 1 -6
BITMAP
FE
FE
FE
FE
1E
1E
1E
1E
1E
1E
1E
1E
1E
1E
1E
1E
1E
1E
1E
1E
1E
1E
1E
FE
FE
FE
FE
ENDCHAR
STARTCHAR 005E
ENCODING 94
SWIDTH 582 0
DWIDTH 17 0
BBX 13 11 2 10
BITMAP
0700
0F80
0F80
1FC0
1DC0
3DE0
3DE0
78F0
78F0
F078
F078
ENDCHAR
STARTCHAR 005F
ENCODING 95
SWIDTH 548 0
DWIDTH 16 0
BBX 16 3 0 -6
BITMAP
FFFF
FFFF
FFFF
ENDCHAR
STARTCHAR 0060
ENCODING 96
SWIDTH 342 0
DWIDTH 10 0
BBX 6 4 1 17
BITMAP
F0
78
38
1C
ENDCHAR
STARTCHAR 0061
ENCODING 97
SWIDTH 548 0
DWIDTH 16 0
BBX 14 16 1 0
BITMAP
0FC0
3FF0
7FF8
7878
3078
0078
00F8
1FF8
7F78
7878
F078
F078
F8F8
FFF8
7FBC
1F3C
ENDCHAR
STARTCHAR 0062
ENCODING 98
SWIDTH 617 0
DWIDTH 18 0
BBX 15 21 2 0
BITMAP
F000
F000
F000
F000
F000
F3E0
FFF0
FFF8
FC7C
F83C
F03C
F03E
F03E
F03E
F03E
F03C
F83C
FC7C
FFF8
FFF0
F3E0
ENDCHAR
STARTCHAR 0063
ENCODING 99
SWIDTH 548 0
DWIDTH 16 0
BBX 14 16 1 0
BITMAP
07E0
1FF8
3FF8
7C7C
7830
F800
F000
F000
F000
F000
F800
7830
7C3C
3FFC
1FF8
07E0
ENDCHAR
STARTCHAR 0064
ENCODING 100
SWIDTH 617 0
DWIDTH 18 0
BBX 15 21 1 0
BITMAP
001E
001E
001E
001E
001E
0F9E
3FDE
3FFE
7C7E
783E
F81E
F01E
F01E
F01E
F01E
F81E
783E
7C7E
3FFE
1FFE
0F9E
ENDCHAR
STARTCHAR 0065
ENCODING 101
SWIDTH 548 0
DWIDTH 16 0
BBX 14 16 1 0
BITMAP
0FC0
1FE0
3FF0
7878
F038
F03C
FFFC
FFFC
FFFC
F000
F000
F800
7C70
7FF8
3FF8
0FE0
ENDCHAR
STARTCHAR 0066
ENCODING 102
SWIDTH 342 0
DWIDTH 10 0
BBX 11 21 0 0
BITMAP
0FE0
1FC0
1FC0
1E00
1E00
FFC0
FFC0
FFC0
1E00
1E00
1E00
1E00
1E00
1E00
1E00
1E00
1E00
1E00
1E00
1E00
1E00
ENDCHAR
STARTCHAR 0067
ENCODING 103
SWIDTH 617 0
DWIDTH 18 0
BBX 15 22 1 -6
BITMAP
0F9E
1FDE
3FFE
7C7E
783E
F81E
F01E
F01E
F01E
F01E
F81E
783E
7C7E
3FFE
1FDE
0F9E
001E
601E
783C
7FFC
3FF8
0FE0
ENDCHAR
STARTCHAR 0068
ENCODING 104
SWIDTH 617 0
DWIDTH 18 0
BBX 14 21 2 0
BITMAP
F000
F000
F000
F000
F000
F3E0
F7F0
FFF8
FC78
F83C
F03C
F03C
F03C
F03C
F03C
F03C
F03C
F03C
F03C
F03C
F03C
ENDCHAR
STARTCHAR 0069
ENCODING 105
SWIDTH 274 0
DWIDTH 8 0
BBX 4 21 2 0
BITMAP
F0
F0
F0
00
00
F0
F0
F0
F0
F0
F0
F0
F0
F0
F0
F0
F0
F0
F0
F0
F0
ENDCHAR
STARTCHAR 006A
ENCODING 106
SWIDTH 274 0
DWIDTH 8 0
BBX 7 27 -1 -6
BITMAP
1E
1E
1E
00
00
1E
1E
1E
1E
1E
1E
1E
1E
1E
1E
1E
1E
1E
1E
1E
1E
1E
1E
1E
FE
FC
F8
ENDCHAR
STARTCHAR 006B
ENCODING 107
SWIDTH 548 0
DWIDTH 16 0
BBX 14 21 2 0
BITMAP
F000
F000
F000
F000
F000
F0F8
F1F0
F3E0
F3C0
F7C0
FF80
FF80
FF80
FFC0
FBC0
F1E0
F1E0
F0F0
F0F0
F078
F07C
ENDCHAR
STARTCHAR 006C
ENCODING 108
SWIDTH 274 0
DWIDTH 8 0
BBX 4 21 2 0
BITMAP
F0
F0
F0
F0
F0
F0
F0
F0
F0
F0
F0
F0
F0
F0
F0
F0
F0
F0
F0
F0
F0
ENDCHAR
STARTCHAR 006D
ENCODING 109
SWIDTH 891 0
DWIDTH 26 0
BBX 22 16 2 0
BITMAP
E3C1E0
EFF7F8
FFFFF8
F8FC7C
F0783C
F0783C
F0783C
F0783C
F0783C
F0783C
F0783C
F0783C
F0783C
F0783C
F0783C
F0783C
ENDCHAR
STARTCHAR 006E
ENCODING 110
SWIDTH 617 0
DWIDTH 18 0
BBX 14 16 2 0
BITMAP
F3E0
FFF8
FFF8
FC7C
F87C
F03C
F03C
F03C
F03C
F03C
F03C
F03C
F03C
F03C
F03C
F03C
ENDCHAR
STARTCHAR 006F
ENCODING 111
SWIDTH 617 0
DWIDTH 18 0
BBX 16 16 1 0
BITMAP
07E0
1FF8
3FFC
7C3C
781E
F81E
F01F
F00F
F00F
F01F
F81E
781E
7C3C
3FFC
1FF8
07E0
ENDCHAR
STARTCHAR 0070
ENCODING 112
SWIDTH 617 0
DWIDTH 18 0
BBX 15 22 2 -6
BITMAP
F3E0
FFF0
FFF8
FC7C
F83C
F03C
F03E
F01E
F01E
F03E
F03C
F83C
FC7C
FFF8
F7F0
F3E0
F000
F000
F000
F000
F000
F000
ENDCHAR
STARTCHAR 0071
ENCODING 113
SWIDTH 617 0
DWIDTH 18 0
BBX 15 22 1 -6
BITMAP
0F9E
1FFE
3FFE
7C7E
783E
F81E
F01E
F01E
F01E
F01E
781E
783E
7C7E
3FFE
1FDE
0F9E
001E
001E
001E
001E
001E
001E
ENDCHAR
STARTCHAR 0072
ENCODING 114
SWIDTH 377 0
DWIDTH 11 0
BBX 9 16 2 0
BITMAP
F780
FF80
FF80
F800
F000
F000
F000
F000
F000
F000
F000
F000
F000
F000
F000
F000
ENDCHAR
STARTCHAR 0073
ENCODING 115
SWIDTH 548 0
DWIDTH 16 0
BBX 14 16 1 0
BITMAP
1FC0
3FF0
7FF8
F078
F060
FC00
7FC0
7FF0
1FF8
03FC
007C
303C
F878
FFF8
7FF0
1FC0
ENDCHAR
STARTCHAR 0074
ENCODING 116
SWIDTH 342 0
DWIDTH 10 0
BBX 9 21 0 0
BITMAP
0400
1C00
3C00
3C00
3C00
FF80
FF80
FF80
3C00
3C00
3C00
3C00
3C00
3C00
3C00
3C00
3C00
3C00
3F80
1F80
0F80
ENDCHAR
STARTCHAR 0075
ENCODING 117
SWIDTH 617 0
DWIDTH 18 0
BBX 14 16 2 0
BITMAP
F03C
F03C
F03C
F03C
F03C
F03C
F03C
F03C
F03C
F03C
F07C
F07C
F8FC
7FFC
7FBC
1F3C
ENDCHAR
STARTCHAR 0076
ENCODING 118
SWIDTH 548 0
DWIDTH 16 0
BBX 16 16 0 0
BITMAP
F81F
781E
781E
7C3C
3C3C
3C3C
1E78
1E78
1E78
0FF0
0FF0
07E0
07E0
07E0
03C0
03C0
ENDCHAR
STARTCHAR 0077
ENCODING 119
SWIDTH 788 0
DWIDTH 23 0
BBX 22 16 0 0
BITMAP
F0783C
707C3C
787C3C
787C3C
78FC78
38FE78
3CFE78
3CEE70
1DEEF0
1FCFF0
1FC7E0
0FC7E0
0FC7E0
0F87C0
0F83C0
0783C0
ENDCHAR
STARTCHAR 0078
ENCODING 120
SWIDTH 548 0
DWIDTH 16 0
BBX 16 16 0 0
BITMAP
7C3E
7C3C
3E7C
1EF8
1FF0
0FF0
07E0
07C0
07E0
0FF0
0FF0
1FF8
3E7C
3C7C
7C3E
F81F
ENDCHAR
STARTCHAR 0079
ENCODING 121
SWIDTH 548 0
DWIDTH 16 0
BBX 15 22 0 -6
BITMAP
F81E
781E
781E
7C3C
3C3C
3C3C
1C38
1E78
1E78
0E70
0FF0
0FF0
07E0
07E0
07E0
03C0
03C0
07C0
0780
7F80
7F00
7E00
ENDCHAR
STARTCHAR 007A
ENCODING 122
SWIDTH 514 0
DWIDTH 15 0
BBX 14 16 0 0
BITMAP
7FF8
7FF8
7FF8
00F8
01F0
03F0
07E0
07C0
0F80
1F80
3F00
3E00
7C00
FFFC
FFFC
FFFC
ENDCHAR
STARTCHAR 007B
ENCODING 123
SWIDTH 377 0
DWIDTH 11 0
BBX 10 27 1 -6
BITMAP
07C0
0FC0
1FC0
1FC0
1E00
1E00
1E00
1E00
1E00
1C00
3C00
3C00
F800
F000
F800
3C00
3C00
1C00
1E00
1E00
1E00
1E00
1E00
1FC0
1FC0
0FC0
07C0
ENDCHAR
STARTCHAR 007C
ENCODING 124
SWIDTH 274 0
DWIDTH 8 0
BBX 3 27 3 -6
BITMAP
E0
E0
E0
E0
E0
E0
E0
E0
E0
E0
E0
E0
E0
E0
E0
E0
E0
E0
E0
E0
E0
E0
E0
E0
E0
E0
E0
ENDCHAR
STARTCHAR 007D
ENCODING 125
SWIDTH 377 0
DWIDTH 11 0
BBX 9 27 1 -6
BITMAP
F000
F800
FC00
FC00
3C00
3C00
1C00
1C00
1C00
1C00
1E00
1F00
0F80
0780
0F80
1F00
1E00
1C00
1C00
1C00
1C00
1C00
3C00
FC00
FC00
F800
F000
ENDCHAR
STARTCHAR 007E
ENCODING 126
SWIDTH 582 0
DWIDTH 17 0
BBX 15 6 1 7
BITMAP
3E02
FF86
FFFE
FFFE
C3FC
80F8
ENDCHAR
STARTCHAR 00A0
ENCODING 160
SWIDTH 274 0
DWIDTH 8 0
BBX 0 0 0 0
BITMAP
ENDCHAR
STARTCHAR 00A1
ENCODING 161
SWIDTH 342 0
DWIDTH 10 0
BBX 4 22 3 -6
BITMAP
F0
F0
F0
F0
00
00
60
60
60
E0
E0
F0
F0
F0
F0
F0
F0
F0
F0
F0
F0
F0
ENDCHAR
STARTCHAR 00A2
ENCODING 162
SWIDTH 548 0
DWIDTH 16 0
BBX 14 27 1 -6
BITMAP
0020
0030
0030
0060
0060
07E0
1FF0
3FF8
7CFC
79F0
F980
F180
F180
F300
F300
FB30
7A3C
7E7C
3FF8
1FF0
0FE0
0C00
0C00
1800
1800
1800
1000
ENDCHAR
STARTCHAR 00A3
ENCODING 163
SWIDTH 548 0
DWIDTH 16 0
BBX 15 21 0 0
BITMAP
03E0
0FF8
1FFC
3E3C
3C1E
3C1C
3C00
3C00
3C00
FFE0
FFE0
FFE0
1E00
1E00
1E00
3C00
3C00
FF84
7FFE
7FFE
60FE
ENDCHAR
STARTCHAR 00A4
ENCODING 164
SWIDTH 548 0
DWIDTH 16 0
BBX 14 14 1 3
BITMAP
4010
6798
FFFC
7FF8
7878
7878
7038
7038
7878
7878
7FF8
FFFC
6798
2010
ENDCHAR
STARTCHAR 00A5
ENCODING 165
SWIDTH 548 0
DWIDTH 16 0
BBX 16 21 0 0
BITMAP
F81F
781E
783E
3C3C
3C3C
1E78
1E78
0FF0
0FF0
7FFE
7FFE
7FFE
03C0
03C0
7FFE
7FFE
7FFE
03C0
03C0
03C0
03C0
ENDCHAR
STARTCHAR 00A6
ENCODING 166
SWIDTH 274 0
DWIDTH 8 0
BBX 3 27 3 -6
BITMAP
E0
E0
E0
E0
E0
E0
E0
E0
E0
E0
E0
00
00
00
00
00
E0
E0
E0
E0
E0
E0
E0
E0
E0
E0
E0
ENDCHAR
STARTCHAR 00A7
ENCODING 167
SWIDTH 548 0
DWIDTH 16 0
BBX 14 27 1 -6
BITMAP
0FC0
3FE0
3FF0
78F8
7878
7C00
3E00
3F80
7FC0
7FF0
F3F8
E0FC
F07C
F83C
FC1C
7E3C
3FB8
1FF8
07F0
03F0
00F8
7878
7878
7C78
3FF8
1FF0
0FC0
ENDCHAR
STARTCHAR 00A8
ENCODING 168
SWIDTH 342 0
DWIDTH 10 0
BBX 10 3 0 18
BITMAP
E3C0
E3C0
E3C0
ENDCHAR
STARTCHAR 00A9
ENCODING 169
SWIDTH 720 0
DWIDTH 21 0
BBX 22 21 0 0
BITMAP
01FC00
07FF00
0F03C0
1C00E0
380070
70F830
61FC38
E38E18
C30618
C7001C
C7001C
C7001C
C30618
E38E18
61FC38
70F830
380070
1C00E0
0F03C0
07FF00
01FC00
ENDCHAR
STARTCHAR 00AA
ENCODING 170
SWIDTH 377 0
DWIDTH 11 0
BBX 9 11 1 10
BITMAP
3E00
7F00
E300
0380
1F80
7F80
F380
C380
E780
FF80
7B80
ENDCHAR
STARTCHAR 00AB
ENCODING 171
SWIDTH 548 0
DWIDTH 16 0
BBX 13 13 1 1
BITMAP
0F38
0E78
1E70
3CF0
39E0
79C0
F3C0
79C0
39E0
3CF0
1E70
0E78
0F38
ENDCHAR
STARTCHAR 00AC
ENCODING 172
SWIDTH 582 0
DWIDTH 17 0
BBX 15 10 1 6
BITMAP
FFFE
FFFE
FFFE
FFFE
001E
001E
001E
001E
001E
001E
ENDCHAR
STARTCHAR 00AD
ENCODING 173
SWIDTH 342 0
DWIDTH 10 0
BBX 7 4 2 6
BITMAP
FE
FE
FE
FE
ENDCHAR
STARTCHAR 00AE
ENCODING 174
SWIDTH 720 0
DWIDTH 21 0
BBX 22 21 0 0
BITMAP
01FC00
07FF00
0F03C0
1C00E0
380070
73FC30
63FE38
E30E18
C30618
C30E1C
C3FC1C
C3F81C
C33C18
E31C18
630E38
730730
380070
1C00E0
0F03C0
07FF00
01FC00
ENDCHAR
STARTCHAR 00AF
ENCODING 175
SWIDTH 548 0
DWIDTH 16 0
BBX 16 3 0 22
BITMAP
FFFF
FFFF
FFFF
ENDCHAR
STARTCHAR 00B0
ENCODING 176
SWIDTH 411 0
DWIDTH 12 0
BBX 9 9 1 12
BITMAP
1E00
7F00
6380
E180
E180
E180
6380
7F00
1E00
ENDCHAR
STARTCHAR 00B1
ENCODING 177
SWIDTH 548 0
DWIDTH 16 0
BBX 14 19 1 0
BITMAP
0780
0780
0780
0780
0780
FFFC
FFFC
FFFC
FFFC
0780
0780
0780
0780
0780
0000
FFFC
FFFC
FFFC
FFFC
ENDCHAR
STARTCHAR 00B2
ENCODING 178
SWIDTH 342 0
DWIDTH 10 0
BBX 9 11 0 10
BITMAP
1E00
7F00
7380
6380
0380
0700
1E00
3C00
7800
7F80
FF80
ENDCHAR
STARTCHAR 00B3
ENCODING 179
SWIDTH 342 0
DWIDTH 10 0
BBX 8 11 1 10
BITMAP
7C
FE
C6
06
1E
1E
07
C7
E7
FE
3C
ENDCHAR
STARTCHAR 00B4
ENCODING 180
SWIDTH 342 0
DWIDTH 10 0
BBX 6 4 3 17
BITMAP
7C
78
F0
E0
ENDCHAR
STARTCHAR 00B5
ENCODING 181
SWIDTH 582 0
DWIDTH 17 0
BBX 13 22 2 -6
BITMAP
F078
F078
F078
F078
F078
F078
F078
F078
F078
F078
F078
F078
F8F8
FFF8
FFB8
F738
F000
F000
F000
F000
F000
F000
ENDCHAR
STARTCHAR 00B6
ENCODING 182
SWIDTH 548 0
DWIDTH 16 0
BBX 16 27 0 -6
BITMAP
1FFF
3FFF
7FFF
FF9C
FF9C
FF9C
FF9C
FF9C
FF9C
7F9C
3F9C
1F9C
039C
039C
039C
039C
039C
039C
039C
039C
039C
039C
039C
039C
039C
039C
039C
ENDCHAR
STARTCHAR 00B7
ENCODING 183
SWIDTH 342 0
DWIDTH 10 0
BBX 4 4 3 8
BITMAP
F0
F0
F0
F0
ENDCHAR
STARTCHAR 00B8
ENCODING 184
SWIDTH 342 0
DWIDTH 10 0
BBX 7 6 1 -6
BITMAP
7C
7E
0E
0E
FE
F8
ENDCHAR
STARTCHAR 00B9
ENCODING 185
SWIDTH 342 0
DWIDTH 10 0
BBX 6 11 1 10
BITMAP
0C
1C
7C
FC
DC
1C
1C
1C
1C
1C
1C
ENDCHAR
STARTCHAR 00BA
ENCODING 186
SWIDTH 377 0
DWIDTH 11 0
BBX 10 11 0 10
BITMAP
1F00
3F80
73C0
71C0
E1C0
E1C0
E1C0
71C0
73C0
3F80
1F00
ENDCHAR
STARTCHAR 00BB
ENCODING 187
SWIDTH 548 0
DWIDTH 16 0
BBX 13 13 2 1
BITMAP
E780
F380
73C0
79E0
3CE0
1CF0
1E78
1CF0
3CE0
79E0
73C0
F380
E780
ENDCHAR
STARTCHAR 00BC
ENCODING 188
SWIDTH 822 0
DWIDTH 24 0
BBX 23 21 1 0
BITMAP
0C00C0
1C01C0
7C0180
FC0300
DC0700
1C0600
1C0E00
1C0C00
1C1800
1C1800
1C3018
007038
006078
00C0F8
00C0D8
018198
038398
0303FE
0703FE
060018
0C0018
ENDCHAR
STARTCHAR 00BD
ENCODING 189
SWIDTH 822 0
DWIDTH 24 0
BBX 22 21 1 0
BITMAP
0C00C0
1C01C0
7C0180
FC0300
DC0700
1C0600
1C0E00
1C0C00
1C1800
1C1800
1C30F8
0071FC
00638C
00C38C
00C01C
01803C
038078
0300F0
0701E0
0603FC
0C03FC
ENDCHAR
STARTCHAR 00BE
ENCODING 190
SWIDTH 822 0
DWIDTH 24 0
BBX 23 21 1 0
BITMAP
7C00C0
FE00C0
C60180
060380
1E0300
1E0600
070600
C70C00
E71C00
FE1800
3C3818
003038
006078
0060F8
00C0D8
01C198
018398
0303FE
0303FE
060018
0E0018
ENDCHAR
STARTCHAR 00BF
ENCODING 191
SWIDTH 617 0
DWIDTH 18 0
BBX 15 22 1 -6
BITMAP
03C0
03C0
03C0
03C0
0000
0000
03C0
03C0
03C0
0780
0F80
1F00
3E00
7C00
7800
F000
F00E
781E
7C3E
3FFC
1FF8
07E0
ENDCHAR
STARTCHAR 00C0
ENCODING 192
SWIDTH 720 0
DWIDTH 21 0
BBX 21 27 0 0
BITMAP
01E000
00F000
007000
003800
000000
000000
00F800
01F800
01FC00
01FC00
03FC00
03DE00
039E00
079E00
078F00
0F8F00
0F0F80
0F0780
1F0780
1FFFC0
3FFFC0
3FFFE0
3C01E0
7C01E0
7801F0
7800F0
F800F8
ENDCHAR
STARTCHAR 00C1
ENCODING 193
SWIDTH 720 0
DWIDTH 21 0
BBX 21 27 0 0
BITMAP
007C00
007800
00F000
00E000
000000
000000
00F800
01F800
01FC00
01FC00
03FC00
03DE00
039E00
079E00
078F00
0F8F00
0F0F80
0F0780
1F0780
1FFFC0
3FFFC0
3FFFE0
3C01E0
7C01E0
7801F0
7800F0
F800F8
ENDCHAR
STARTCHAR 00C2
ENCODING 194
SWIDTH 720 0
DWIDTH 21 0
BBX 21 27 0 0
BITMAP
00F000
01F800
03BC00
079C00
000000
000000
00F800
01F800
01FC00
01FC00
03FC00
03DE00
039E00
079E00
078F00
0F8F00
0F0F80
0F0780
1F0780
1FFFC0
3FFFC0
3FFFE0
3C01E0
7C01E0
7801F0
7800F0
F800F8
ENDCHAR
STARTCHAR 00C3
ENCODING 195
SWIDTH 720 0
DWIDTH 21 0
BBX 21 26 0 0
BITMAP
03C600
07FC00
063C00
000000
000000
00F800
01F800
01FC00
01FC00
03FC00
03DE00
039E00
079E00
078F00
0F8F00
0F0F80
0F0780
1F0780
1FFFC0
3FFFC0
3FFFE0
3C01E0
7C01E0
7801F0
7800F0
F800F8
ENDCHAR
STARTCHAR 00C4
ENCODING 196
SWIDTH 720 0
DWIDTH 21 0
BBX 21 26 0 0
BITMAP
071E00
071E00
071E00
000000
000000
00F800
01F800
01FC00
01FC00
03FC00
03DE00
039E00
079E00
078F00
0F8F00
0F0F80
0F0780
1F0780
1FFFC0
3FFFC0
3FFFE0
3C01E0
7C01E0
7801F0
7800F0
F800F8
ENDCHAR
STARTCHAR 00C5
ENCODING 197
SWIDTH 720 0
DWIDTH 21 0
BBX 21 25 0 0
BITMAP
00E000
01F000
019800
019800
01F800
01F800
01FC00
01FC00
03FC00
03DE00
039E00
079E00
078F00
0F8F00
0F0F80
0F0780
1F0780
1FFFC0
3FFFC0
3FFFE0
3C01E0
7C01E0
7801F0
7800F0
F800F8
ENDCHAR
STARTCHAR 00C6
ENCODING 198
SWIDTH 994 0
DWIDTH 29 0
BBX 29 21 -1 0
BITMAP
007FFFF0
007FFFF0
00FFFFF0
00F3FFF0
01F3C000
01E3C000
03E3C000
03C3C000
03C3FFE0
0783FFE0
0783FFE0
0F03FFE0
0FFFC000
1FFFC000
1FFFC000
3FFFC000
3C03C000
7C03FFF8
7803FFF8
F803FFF8
F803FFF8
ENDCHAR
STARTCHAR 00C7
ENCODING 199
SWIDTH 720 0
DWIDTH 21 0
BBX 18 27 1 -6
BITMAP
01F800
07FE00
1FFF80
3FFF80
3F0FC0
7C07C0
780300
780000
F80000
F80000
F80000
F80000
F80000
780300
7803C0
7C07C0
3E0FC0
3FFF80
1FFF00
07FE00
01F800
01F000
01F800
003800
003800
03F800
03E000
ENDCHAR
STARTCHAR 00C8
ENCODING 200
SWIDTH 651 0
DWIDTH 19 0
BBX 16 27 2 0
BITMAP
0F00
0780
0380
01C0
0000
0000
FFFF
FFFF
FFFF
FFFF
F000
F000
F000
F000
FFFE
FFFE
FFFE
FFFE
F000
F000
F000
F000
F000
FFFF
FFFF
FFFF
FFFF
ENDCHAR
STARTCHAR 00C9
ENCODING 201
SWIDTH 651 0
DWIDTH 19 0
BBX 16 27 2 0
BITMAP
01F0
01E0
03C0
0380
0000
0000
FFFF
FFFF
FFFF
FFFF
F000
F000
F000
F000
FFFE
FFFE
FFFE
FFFE
F000
F000
F000
F000
F000
FFFF
FFFF
FFFF
FFFF
ENDCHAR
STARTCHAR 00CA
ENCODING 202
SWIDTH 651 0
DWIDTH 19 0
BBX 16 27 2 0
BITMAP
03C0
07E0
0EF0
1E70
0000
0000
FFFF
FFFF
FFFF
FFFF
F000
F000
F000
F000
FFFE
FFFE
FFFE
FFFE
F000
F000
F000
F000
F000
FFFF
FFFF
FFFF
FFFF
ENDCHAR
STARTCHAR 00CB
ENCODING 203
SWIDTH 651 0
DWIDTH 19 0
BBX 16 26 2 0
BITMAP
1C78
1C78
1C78
0000
0000
FFFF
FFFF
FFFF
FFFF
F000
F000
F000
F000
FFFE
FFFE
FFFE
FFFE
F000
F000
F000
F000
F000
FFFF
FFFF
FFFF
FFFF
ENDCHAR
STARTCHAR 00CC
ENCODING 204
SWIDTH 274 0
DWIDTH 8 0
BBX 6 27 0 0
BITMAP
F0
78
38
1C
00
00
3C
3C
3C
3C
3C
3C
3C
3C
3C
3C
3C
3C
3C
3C
3C
3C
3C
3C
3C
3C
3C
ENDCHAR
STARTCHAR 00CD
ENCODING 205
SWIDTH 274 0
DWIDTH 8 0
BBX 6 27 2 0
BITMAP
7C
78
F0
E0
00
00
F0
F0
F0
F0
F0
F0
F0
F0
F0
F0
F0
F0
F0
F0
F0
F0
F0
F0
F0
F0
F0
ENDCHAR
STARTCHAR 00CE
ENCODING 206
SWIDTH 274 0
DWIDTH 8 0
BBX 9 27 -1 0
BITMAP
1E00
3F00
7780
F380
0000
0000
1E00
1E00
1E00
1E00
1E00
1E00
1E00
1E00
1E00
1E00
1E00
1E00
1E00
1E00
1E00
1E00
1E00
1E00
1E00
1E00
1E00
ENDCHAR
STARTCHAR 00CF
ENCODING 207
SWIDTH 274 0
DWIDTH 8 0
BBX 10 26 -1 0
BITMAP
E3C0
E3C0
E3C0
0000
0000
1E00
1E00
1E00
1E00
1E00
1E00
1E00
1E00
1E00
1E00
1E00
1E00
1E00
1E00
1E00
1E00
1E00
1E00
1E00
1E00
1E00
ENDCHAR
STARTCHAR 00D0
ENCODING 208
SWIDTH 720 0
DWIDTH 21 0
BBX 20 21 0 0
BITMAP
3FFC00
3FFF00
3FFF80
3FFFC0
3C0FC0
3C03E0
3C01E0
3C01E0
3C01E0
FFE1E0
FFE1F0
FFE1F0
3C01E0
3C01E0
3C01E0
3C03E0
3C07C0
3FFFC0
3FFF80
3FFF00
3FFC00
ENDCHAR
STARTCHAR 00D1
ENCODING 209
SWIDTH 720 0
DWIDTH 21 0
BBX 17 26 2 0
BITMAP
078C00
0FF800
0C7800
000000
000000
F80780
F80780
FC0780
FC0780
FE0780
FF0780
FF0780
FF8780
F78780
F3C780
F3E780
F1E780
F1F780
F0F780
F07F80
F07F80
F03F80
F03F80
F01F80
F00F80
F00F80
ENDCHAR
STARTCHAR 00D2
ENCODING 210
SWIDTH 788 0
DWIDTH 23 0
BBX 20 27 1 0
BITMAP
01E000
00F000
007000
003800
000000
000000
01FC00
07FF00
1FFF80
3FFFC0
3F07E0
7C03E0
7801F0
7800F0
F800F0
F800F0
F800F0
F800F0
F800F0
7800F0
7C01F0
7C03E0
3F07E0
3FFFC0
1FFF80
07FF00
01FC00
ENDCHAR
STARTCHAR 00D3
ENCODING 211
SWIDTH 788 0
DWIDTH 23 0
BBX 20 27 1 0
BITMAP
007C00
007800
00F000
00E000
000000
000000
01FC00
07FF00
1FFF80
3FFFC0
3F07E0
7C03E0
7801F0
7800F0
F800F0
F800F0
F800F0
F800F0
F800F0
7800F0
7C01F0
7C03E0
3F07E0
3FFFC0
1FFF80
07FF00
01FC00
ENDCHAR
STARTCHAR 00D4
ENCODING 212
SWIDTH 788 0
DWIDTH 23 0
BBX 20 27 1 0
BITMAP
00F000
01F800
03BC00
079C00
000000
000000
01FC00
07FF00
1FFF80
3FFFC0
3F07E0
7C03E0
7801F0
7800F0
F800F0
F800F0
F800F0
F800F0
F800F0
7800F0
7C01F0
7C03E0
3F07E0
3FFFC0
1FFF80
07FF00
01FC00
ENDCHAR
STARTCHAR 00D5
ENCODING 213
SWIDTH 788 0
DWIDTH 23 0
BBX 20 26 1 0
BITMAP
03C600
07FC00
063C00
000000
000000
01FC00
07FF00
1FFF80
3FFFC0
3F07E0
7C03E0
7801F0
7800F0
F800F0
F800F0
F800F0
F800F0
F800F0
7800F0
7C01F0
7C03E0
3F07E0
3FFFC0
1FFF80
07FF00
01FC00
ENDCHAR
STARTCHAR 00D6
ENCODING 214
SWIDTH 788 0
DWIDTH 23 0
BBX 20 26 1 0
BITMAP
071E00
071E00
071E00
000000
000000
01FC00
07FF00
1FFF80
3FFFC0
3F07E0
7C03E0
7801F0
7800F0
F800F0
F800F0
F800F0
F800F0
F800F0
7800F0
7C01F0
7C03E0
3F07E0
3FFFC0
1FFF80
07FF00
01FC00
ENDCHAR
STARTCHAR 00D7
ENCODING 215
SWIDTH 582 0
DWIDTH 17 0
BBX 13 14 2 3
BITMAP
2020
7070
F8F8
7DF0
3FE0
3FC0
1F80
1F80
3FC0
3FE0
7DF0
F8F8
7070
2020
ENDCHAR
STARTCHAR 00D8
ENCODING 216
SWIDTH 788 0
DWIDTH 23 0
BBX 21 21 1 1
BITMAP
01FC30
07FF78
1FFFF0
3FFFE0
3F07E0
7C07E0
780FF0
781EF0
F83CF0
F878F0
F8F0F0
F9E0F0
F9C0F0
7B80F0
7F01F0
7E03F0
3F07E0
3FFFC0
7FFF80
FFFF00
61FC00
ENDCHAR
STARTCHAR 00D9
ENCODING 217
SWIDTH 720 0
DWIDTH 21 0
BBX 17 27 2 0
BITMAP
078000
03C000
01C000
00E000
000000
000000
F00F80
F00F80
F00F80
F00F80
F00F80
F00F80
F00F80
F00F80
F00F80
F00F80
F00F80
F00F80
F00F80
F00F80
F00F80
F80F00
7C1F00
7FFF00
3FFE00
1FFC00
07F000
ENDCHAR
STARTCHAR 00DA
ENCODING 218
SWIDTH 720 0
DWIDTH 21 0
BBX 17 27 2 0
BITMAP
01F000
01E000
03C000
038000
000000
000000
F00F80
F00F80
F00F80
F00F80
F00F80
F00F80
F00F80
F00F80
F00F80
F00F80
F00F80
F00F80
F00F80
F00F80
F00F80
F80F00
7C1F00
7FFF00
3FFE00
1FFC00
07F000
ENDCHAR
STARTCHAR 00DB
ENCODING 219
SWIDTH 720 0
DWIDTH 21 0
BBX 17 27 2 0
BITMAP
01E000
03F000
077800
0F3800
000000
000000
F00F80
F00F80
F00F80
F00F80
F00F80
F00F80
F00F80
F00F80
F00F80
F00F80
F00F80
F00F80
F00F80
F00F80
F00F80
F80F00
7C1F00
7FFF00
3FFE00
1FFC00
07F000
ENDCHAR
STARTCHAR 00DC
ENCODING 220
SWIDTH 720 0
DWIDTH 21 0
BBX 17 26 2 0
BITMAP
0E3C00
0E3C00
0E3C00
000000
000000
F00F80
F00F80
F00F80
F00F80
F00F80
F00F80
F00F80
F00F80
F00F80
F00F80
F00F80
F00F80
F00F80
F00F80
F00F80
F80F00
7C1F00
7FFF00
3FFE00
1FFC00
07F000
ENDCHAR
STARTCHAR 00DD
ENCODING 221
SWIDTH 651 0
DWIDTH 19 0
BBX 19 27 0 0
BITMAP
00F800
00F000
01E000
01C000
000000
000000
F803E0
7C03C0
3C07C0
3E0780
1F0F80
1F1F00
0F9E00
07BE00
07FC00
03F800
01F800
01F000
00F000
00F000
00F000
00F000
00F000
00F000
00F000
00F000
00F000
ENDCHAR
STARTCHAR 00DE
ENCODING 222
SWIDTH 651 0
DWIDTH 19 0
BBX 16 21 2 0
BITMAP
F000
F000
F000
F000
FFF0
FFFC
FFFE
FFFE
F01F
F01F
F00F
F01F
F01F
FFFE
FFFE
FFFC
FFF0
F000
F000
F000
F000
ENDCHAR
STARTCHAR 00DF
ENCODING 223
SWIDTH 617 0
DWIDTH 18 0
BBX 15 21 2 0
BITMAP
1F80
3FE0
7FF0
F9F0
F0F0
F0F0
F1E0
F1E0
F3C0
F3C0
F3E0
F1F0
F1F8
F0FC
F07C
F03E
F11E
F3BE
F7FC
F3F8
F0F0
ENDCHAR
STARTCHAR 00E0
ENCODING 224
SWIDTH 548 0
DWIDTH 16 0
BBX 14 22 1 0
BITMAP
1E00
0F00
0700
0380
0000
0000
0FC0
3FF0
7FF8
7878
3078
0078
00F8
1FF8
7F78
7878
F078
F078
F8F8
FFF8
7FBC
1F3C
ENDCHAR
STARTCHAR 00E1
ENCODING 225
SWIDTH 548 0
DWIDTH 16 0
BBX 14 22 1 0
BITMAP
03E0
03C0
0780
0700
0000
0000
0FC0
3FF0
7FF8
7878
3078
0078
00F8
1FF8
7F78
7878
F078
F078
F8F8
FFF8
7FBC
1F3C
ENDCHAR
STARTCHAR 00E2
ENCODING 226
SWIDTH 548 0
DWIDTH 16 0
BBX 14 22 1 0
BITMAP
0780
0FC0
1DE0
3CE0
0000
0000
0FC0
3FF0
7FF8
7878
3078
0078
00F8
1FF8
7F78
7878
F078
F078
F8F8
FFF8
7FBC
1F3C
ENDCHAR
STARTCHAR 00E3
ENCODING 227
SWIDTH 548 0
DWIDTH 16 0
BBX 14 21 1 0
BITMAP
1E30
3FE0
31E0
0000
0000
0FC0
3FF0
7FF8
7878
3078
0078
00F8
1FF8
7F78
7878
F078
F078
F8F8
FFF8
7FBC
1F3C
ENDCHAR
STARTCHAR 00E4
ENCODING 228
SWIDTH 548 0
DWIDTH 16 0
BBX 14 21 1 0
BITMAP
38F0
38F0
38F0
0000
0000
0FC0
3FF0
7FF8
7878
3078
0078
00F8
1FF8
7F78
7878
F078
F078
F8F8
FFF8
7FBC
1F3C
ENDCHAR
STARTCHAR 00E5
ENCODING 229
SWIDTH 548 0
DWIDTH 16 0
BBX 14 24 1 0
BITMAP
0700
0F80
0CC0
0CC0
0F80
0700
0000
0000
0FC0
3FF0
7FF8
7878
3078
0078
00F8
1FF8
7F78
7878
F078
F078
F8F8
FFF8
7FBC
1F3C
ENDCHAR
STARTCHAR 00E6
ENCODING 230
SWIDTH 891 0
DWIDTH 26 0
BBX 23 16 1 0
BITMAP
0FE3E0
3FFFF8
7FFFFC
787E3C
307C1E
007C1E
00FFFE
1FFFFE
3F7FFE
787800
F07C00
F07C00
F8FE18
7FFFFE
7FCFFC
1F03F0
ENDCHAR
STARTCHAR 00E7
ENCODING 231
SWIDTH 548 0
DWIDTH 16 0
BBX 14 22 1 -6
BITMAP
07E0
1FF8
3FF8
7C7C
7830
F800
F000
F000
F000
F000
F800
7830
7C3C
3FFC
1FF8
07E0
07C0
07E0
00E0
00E0
0FE0
0F80
ENDCHAR
STARTCHAR 00E8
ENCODING 232
SWIDTH 548 0
DWIDTH 16 0
BBX 14 22 1 0
BITMAP
1E00
0F00
0700
0380
0000
0000
0FC0
1FE0
3FF0
7878
F038
F03C
FFFC
FFFC
FFFC
F000
F000
F800
7C70
7FF8
3FF8
0FE0
ENDCHAR
STARTCHAR 00E9
ENCODING 233
SWIDTH 548 0
DWIDTH 16 0
BBX 14 22 1 0
BITMAP
03E0
03C0
0780
0700
0000
0000
0FC0
1FE0
3FF0
7878
F038
F03C
FFFC
FFFC
FFFC
F000
F000
F800
7C70
7FF8
3FF8
0FE0
ENDCHAR
STARTCHAR 00EA
ENCODING 234
SWIDTH 548 0
DWIDTH 16 0
BBX 14 22 1 0
BITMAP
0780
0FC0
1DE0
3CE0
0000
0000
0FC0
1FE0
3FF0
7878
F038
F03C
FFFC
FFFC
FFFC
F000
F000
F800
7C70
7FF8
3FF8
0FE0
ENDCHAR
STARTCHAR 00EB
ENCODING 235
SWIDTH 548 0
DWIDTH 16 0
BBX 14 21 1 0
BITMAP
38F0
38F0
38F0
0000
0000
0FC0
1FE0
3FF0
7878
F038
F03C
FFFC
FFFC
FFFC
F000
F000
F800
7C70
7FF8
3FF8
0FE0
ENDCHAR
STARTCHAR 00EC
ENCODING 236
SWIDTH 274 0
DWIDTH 8 0
BBX 6 22 0 0
BITMAP
F0
78
38
1C
00
00
3C
3C
3C
3C
3C
3C
3C
3C
3C
3C
3C
3C
3C
3C
3C
3C
ENDCHAR
STARTCHAR 00ED
ENCODING 237
SWIDTH 274 0
DWIDTH 8 0
BBX 6 22 2 0
BITMAP
7C
78
F0
E0
00
00
F0
F0
F0
F0
F0
F0
F0
F0
F0
F0
F0
F0
F0
F0
F0
F0
ENDCHAR
STARTCHAR 00EE
ENCODING 238
SWIDTH 274 0
DWIDTH 8 0
BBX 9 22 -1 0
BITMAP
1E00
3F00
7780
F380
0000
0000
1E00
1E00
1E00
1E00
1E00
1E00
1E00
1E00
1E00
1E00
1E00
1E00
1E00
1E00
1E00
1E00
ENDCHAR
STARTCHAR 00EF
ENCODING 239
SWIDTH 274 0
DWIDTH 8 0
BBX 10 21 -1 0
BITMAP
E3C0
E3C0
E3C0
0000
0000
1E00
1E00
1E00
1E00
1E00
1E00
1E00
1E00
1E00
1E00
1E00
1E00
1E00
1E00
1E00
1E00
ENDCHAR
STARTCHAR 00F0
ENCODING 240
SWIDTH 617 0
DWIDTH 18 0
BBX 16 21 1 0
BITMAP
0F10
03E0
03E0
0C70
0078
0FB8
1FFC
3FFC
7C7E
783E
F81E
F01F
F01F
F01F
F01F
781E
781E
7C7C
3FFC
1FF8
07E0
ENDCHAR
STARTCHAR 00F1
ENCODING 241
SWIDTH 617 0
DWIDTH 18 0
BBX 14 21 2 0
BITMAP
1E30
3FE0
31E0
0000
0000
F3E0
FFF8
FFF8
FC7C
F87C
F03C
F03C
F03C
F03C
F03C
F03C
F03C
F03C
F03C
F03C
F03C
ENDCHAR
STARTCHAR 00F2
ENCODING 242
SWIDTH 617 0
DWIDTH 18 0
BBX 16 22 1 0
BITMAP
0F00
0780
0380
01C0
0000
0000
07E0
1FF8
3FFC
7C3C
781E
F81E
F01F
F00F
F00F
F01F
F81E
781E
7C3C
3FFC
1FF8
07E0
ENDCHAR
STARTCHAR 00F3
ENCODING 243
SWIDTH 617 0
DWIDTH 18 0
BBX 16 22 1 0
BITMAP
01F0
01E0
03C0
0380
0000
0000
07E0
1FF8
3FFC
7C3C
781E
F81E
F01F
F00F
F00F
F01F
F81E
781E
7C3C
3FFC
1FF8
07E0
ENDCHAR
STARTCHAR 00F4
ENCODING 244
SWIDTH 617 0
DWIDTH 18 0
BBX 16 22 1 0
BITMAP
03C0
07E0
0EF0
1E70
0000
0000
07E0
1FF8
3FFC
7C3C
781E
F81E
F01F
F00F
F00F
F01F
F81E
781E
7C3C
3FFC
1FF8
07E0
ENDCHAR
STARTCHAR 00F5
ENCODING 245
SWIDTH 617 0
DWIDTH 18 0
BBX 16 21 1 0
BITMAP
0F18
1FF0
18F0
0000
0000
07E0
1FF8
3FFC
7C3C
781E
F81E
F01F
F00F
F00F
F01F
F81E
781E
7C3C
3FFC
1FF8
07E0
ENDCHAR
STARTCHAR 00F6
ENCODING 246
SWIDTH 617 0
DWIDTH 18 0
BBX 16 21 1 0
BITMAP
1C78
1C78
1C78
0000
0000
07E0
1FF8
3FFC
7C3C
781E
F81E
F01F
F00F
F00F
F01F
F81E
781E
7C3C
3FFC
1FF8
07E0
ENDCHAR
STARTCHAR 00F7
ENCODING 247
SWIDTH 548 0
DWIDTH 16 0
BBX 14 16 1 3
BITMAP
0780
0780
0780
0780
0000
0000
FFFC
FFFC
FFFC
FFFC
0000
0000
0780
0780
0780
0780
ENDCHAR
STARTCHAR 00F8
ENCODING 248
SWIDTH 617 0
DWIDTH 18 0
BBX 16 16 1 1
BITMAP
07E6
1FFE
3FFE
7C3C
787E
787E
F0EF
F1CF
F38F
F70F
7E1E
7C1E
7C3E
3FFC
FFF8
67E0
ENDCHAR
STARTCHAR 00F9
ENCODING 249
SWIDTH 617 0
DWIDTH 18 0
BBX 14 22 2 0
BITMAP
1E00
0F00
0700
0380
0000
0000
F03C
F03C
F03C
F03C
F03C
F03C
F03C
F03C
F03C
F03C
F07C
F07C
F8FC
7FFC
7FBC
1F3C
ENDCHAR
STARTCHAR 00FA
ENCODING 250
SWIDTH 617 0
DWIDTH 18 0
BBX 14 22 2 0
BITMAP
03E0
03C0
0780
0700
0000
0000
F03C
F03C
F03C
F03C
F03C
F03C
F03C
F03C
F03C
F03C
F07C
F07C
F8FC
7FFC
7FBC
1F3C
ENDCHAR
STARTCHAR 00FB
ENCODING 251
SWIDTH 617 0
DWIDTH 18 0
BBX 14 22 2 0
BITMAP
0780
0FC0
1DE0
3CE0
0000
0000
F03C
F03C
F03C
F03C
F03C
F03C
F03C
F03C
F03C
F03C
F07C
F07C
F8FC
7FFC
7FBC
1F3C
ENDCHAR
STARTCHAR 00FC
ENCODING 252
SWIDTH 617 0
DWIDTH 18 0
BBX 14 21 2 0
BITMAP
38F0
38F0
38F0
0000
0000
F03C
F03C
F03C
F03C
F03C
F03C
F03C
F03C
F03C
F03C
F07C
F07C
F8FC
7FFC
7FBC
1F3C
ENDCHAR
STARTCHAR 00FD
ENCODING 253
SWIDTH 548 0
DWIDTH 16 0
BBX 15 28 0 -6
BITMAP
01F0
01E0
03C0
0380
0000
0000
F81E
781E
781E
7C3C
3C3C
3C3C
1C38
1E78
1E78
0E70
0FF0
0FF0
07E0
07E0
07E0
03C0
03C0
07C0
0780
7F80
7F00
7E00
ENDCHAR
STARTCHAR 00FE
ENCODING 254
SWIDTH 617 0
DWIDTH 18 0
BBX 15 27 2 -6
BITMAP
F000
F000
F000
F000
F000
F3E0
F7F0
FFF8
FC7C
F83C
F03C
F03E
F01E
F01E
F03E
F03C
F83C
FC7C
FFF8
F7F0
F3E0
F000
F000
F000
F000
F000
F000
ENDCHAR
STARTCHAR 00FF
ENCODING 255
SWIDTH 548 0
DWIDTH 16 0
BBX 15 27 0 -6
BITMAP
1C78
1C78
1C78
0000
0000
F81E
781E
781E
7C3C
3C3C
3C3C
1C38
1E78
1E78
0E70
0FF0
0FF0
07E0
07E0
07E0
03C0
03C0
07C0
0780
7F80
7F00
7E00
ENDCHAR
STARTCHAR 0100
ENCODING 256
SWIDTH 720 0
DWIDTH 21 0
BBX 21 26 0 0
BITMAP
07FC00
07FC00
07FC00
000000
000000
00F800
01F800
01FC00
01FC00
03FC00
03DE00
039E00
079E00
078F00
0F8F00
0F0F80
0F0780
1F0780
1FFFC0
3FFFC0
3FFFE0
3C01E0
7C01E0
7801F0
7800F0
F800F8
ENDCHAR
STARTCHAR 0101
ENCODING 257
SWIDTH 548 0
DWIDTH 16 0
BBX 14 21 1 0
BITMAP
3FE0
3FE0
3FE0
0000
0000
0FC0
3FF0
7FF8
7878
3078
0078
00F8
1FF8
7F78
7878
F078
F078
F8F8
FFF8
7FBC
1F3C
ENDCHAR
STARTCHAR 0102
ENCODING 258
SWIDTH 720 0
DWIDTH 21 0
BBX 21 27 0 0
BITMAP
030600
018600
01FC00
007800
000000
000000
00F800
01F800
01FC00
01FC00
03FC00
03DE00
039E00
079E00
078F00
0F8F00
0F0F80
0F0780
1F0780
1FFFC0
3FFFC0
3FFFE0
3C01E0
7C01E0
7801F0
7800F0
F800F8
ENDCHAR
STARTCHAR 0103
ENCODING 259
SWIDTH 548 0
DWIDTH 16 0
BBX 14 22 1 0
BITMAP
3060
1860
1FC0
0780
0000
0000
0FC0
3FF0
7FF8
7878
3078
0078
00F8
1FF8
7F78
7878
F078
F078
F8F8
FFF8
7FBC
1F3C
ENDCHAR
STARTCHAR 0104
ENCODING 260
SWIDTH 720 0
DWIDTH 21 0
BBX 21 27 0 -6
BITMAP
00F800
01F800
01FC00
01FC00
03FC00
03DE00
039E00
079E00
078F00
0F8F00
0F0F80
0F0780
1F0780
1FFFC0
3FFFC0
3FFFE0
3C01E0
7C01E0
7801F0
7800F0
F800F8
000070
0000E0
0000E0
0000E0
0000F8
000078
ENDCHAR
STARTCHAR 0105
ENCODING 261
SWIDTH 548 0
DWIDTH 16 0
BBX 14 22 1 -6
BITMAP
0FC0
3FF0
7FF8
7878
3078
0078
00F8
1FF8
7F78
7878
F078
F078
F8F8
FFF8
7FBC
3F3C
0038
0070
0070
0070
007C
003C
ENDCHAR
STARTCHAR 0106
ENCODING 262
SWIDTH 720 0
DWIDTH 21 0
BBX 18 27 1 0
BITMAP
007C00
007800
00F000
00E000
000000
000000
01F800
07FE00
1FFF80
3FFF80
3F0FC0
7C07C0
780300
780000
F80000
F80000
F80000
F80000
F80000
780300
7803C0
7C07C0
3E0FC0
3FFF80
1FFF00
07FE00
01F800
ENDCHAR
STARTCHAR 0107
ENCODING 263
SWIDTH 548 0
DWIDTH 16 0
BBX 14 22 1 0
BITMAP
03E0
03C0
0780
0700
0000
0000
07E0
1FF8
3FF8
7C7C
7830
F800
F000
F000
F000
F000
F800
7830
7C3C
3FFC
1FF8
07E0
ENDCHAR
STARTCHAR 0108
ENCODING 264
SWIDTH 720 0
DWIDTH 21 0
BBX 18 27 1 0
BITMAP
00F000
01F800
03BC00
079C00
000000
000000
01F800
07FE00
1FFF80
3FFF80
3F0FC0
7C07C0
780300
780000
F80000
F80000
F80000
F80000
F80000
780300
7803C0
7C07C0
3E0FC0
3FFF80
1FFF00
07FE00
01F800
ENDCHAR
STARTCHAR 0109
ENCODING 265
SWIDTH 548 0
DWIDTH 16 0
BBX 14 22 1 0
BITMAP
0780
0FC0
1DE0
3CE0
0000
0000
07E0
1FF8
3FF8
7C7C
7830
F800
F000
F000
F000
F000
F800
7830
7C3C
3FFC
1FF8
07E0
ENDCHAR
STARTCHAR 010A
ENCODING 266
SWIDTH 720 0
DWIDTH 21 0
BBX 18 27 1 0
BITMAP
00F000
00F000
00F000
00F000
000000
000000
01F800
07FE00
1FFF80
3FFF80
3F0FC0
7C07C0
780300
780000
F80000
F80000
F80000
F80000
F80000
780300
7803C0
7C07C0
3E0FC0
3FFF80
1FFF00
07FE00
01F800
ENDCHAR
STARTCHAR 010B
ENCODING 267
SWIDTH 548 0
DWIDTH 16 0
BBX 14 22 1 0
BITMAP
0780
0780
0780
0780
0000
0000
07E0
1FF8
3FF8
7C7C
7830
F800
F000
F000
F000
F000
F800
7830
7C3C
3FFC
1FF8
07E0
ENDCHAR
STARTCHAR 010C
ENCODING 268
SWIDTH 720 0
DWIDTH 21 0
BBX 18 27 1 0
BITMAP
079C00
03BC00
01F800
00F000
000000
000000
01F800
07FE00
1FFF80
3FFF80
3F0FC0
7C07C0
780300
780000
F80000
F80000
F80000
F80000
F80000
780300
7803C0
7C07C0
3E0FC0
3FFF80
1FFF00
07FE00
01F800
ENDCHAR
STARTCHAR 010D
ENCODING 269
SWIDTH 548 0
DWIDTH 16 0
BBX 14 22 1 0
BITMAP
1E70
0EF0
07E0
03C0
0000
0000
07E0
1FF8
3FF8
7C7C
7830
F800
F000
F000
F000
F000
F800
7830
7C3C
3FFC
1FF8
07E0
ENDCHAR
STARTCHAR 010E
ENCODING 270
SWIDTH 720 0
DWIDTH 21 0
BBX 17 27 2 0
BITMAP
3CE000
1DE000
0FC000
078000
000000
000000
FFF000
FFFC00
FFFE00
FFFF00
F01F00
F00F80
F00780
F00780
F00780
F00780
F00780
F00780
F00780
F00780
F00780
F00F80
F01F00
FFFF00
FFFE00
FFFC00
FFF000
ENDCHAR
STARTCHAR 010F
ENCODING 271
SWIDTH 720 0
DWIDTH 21 0
BBX 20 21 1 0
BITMAP
001EF0
001EF0
001EF0
001EF0
001E30
0F9E20
3FDE60
3FFEC0
7C7E00
783E00
F81E00
F01E00
F01E00
F01E00
F01E00
F81E00
783E00
7C7E00
3FFE00
1FFE00
0F9E00
ENDCHAR
STARTCHAR 0110
ENCODING 272
SWIDTH 720 0
DWIDTH 21 0
BBX 20 21 0 0
BITMAP
3FFC00
3FFF00
3FFF80
3FFFC0
3C0FC0
3C03E0
3C01E0
3C01E0
3C01E0
FFE1E0
FFE1F0
FFE1F0
3C01E0
3C01E0
3C01E0
3C03E0
3C07C0
3FFFC0
3FFF80
3FFF00
3FFC00
ENDCHAR
STARTCHAR 0111
ENCODING 273
SWIDTH 617 0
DWIDTH 18 0
BBX 16 21 1 0
BITMAP
001E
01FF
01FF
01FF
001E
0F9E
3FDE
3FFE
7C7E
783E
F81E
F01E
F01E
F01E
F01E
F81E
783E
7C7E
3FFE
1FFE
0F9E
ENDCHAR
STARTCHAR 0112
ENCODING 274
SWIDTH 651 0
DWIDTH 19 0
BBX 16 26 2 0
BITMAP
1FF0
1FF0
1FF0
0000
0000
FFFF
FFFF
FFFF
FFFF
F000
F000
F000
F000
FFFE
FFFE
FFFE
FFFE
F000
F000
F000
F000
F000
FFFF
FFFF
FFFF
FFFF
ENDCHAR
STARTCHAR 0113
ENCODING 275
SWIDTH 548 0
DWIDTH 16 0
BBX 14 21 1 0
BITMAP
3FE0
3FE0
3FE0
0000
0000
0FC0
1FE0
3FF0
7878
F038
F03C
FFFC
FFFC
FFFC
F000
F000
F800
7C70
7FF8
3FF8
0FE0
ENDCHAR
STARTCHAR 0114
ENCODING 276
SWIDTH 651 0
DWIDTH 19 0
BBX 16 27 2 0
BITMAP
1830
0C30
0FE0
03C0
0000
0000
FFFF
FFFF
FFFF
FFFF
F000
F000
F000
F000
FFFE
FFFE
FFFE
FFFE
F000
F000
F000
F000
F000
FFFF
FFFF
FFFF
FFFF
ENDCHAR
STARTCHAR 0115
ENCODING 277
SWIDTH 548 0
DWIDTH 16 0
BBX 14 22 1 0
BITMAP
3060
1860
1FC0
0780
0000
0000
0FC0
1FE0
3FF0
7878
F038
F03C
FFFC
FFFC
FFFC
F000
F000
F800
7C70
7FF8
3FF8
0FE0
ENDCHAR
STARTCHAR 0116
ENCODING 278
SWIDTH 651 0
DWIDTH 19 0
BBX 16 27 2 0
BITMAP
03C0
03C0
03C0
03C0
0000
0000
FFFF
FFFF
FFFF
FFFF
F000
F000
F000
F000
FFFE
FFFE
FFFE
FFFE
F000
F000
F000
F000
F000
FFFF
FFFF
FFFF
FFFF
ENDCHAR
STARTCHAR 0117
ENCODING 279
SWIDTH 548 0
DWIDTH 16 0
BBX 14 22 1 0
BITMAP
0780
0780
0780
0780
0000
0000
0FC0
1FE0
3FF0
7878
F038
F03C
FFFC
FFFC
FFFC
F000
F000
F800
7C70
7FF8
3FF8
0FE0
ENDCHAR
STARTCHAR 0118
ENCODING 280
SWIDTH 651 0
DWIDTH 19 0
BBX 16 27 2 -6
BITMAP
FFFF
FFFF
FFFF
FFFF
F000
F000
F000
F000
FFFE
FFFE
FFFE
FFFE
F000
F000
F000
F000
F000
FFFF
FFFF
FFFF
FFFF
000E
001C
001C
001C
001F
000F
ENDCHAR
STARTCHAR 0119
ENCODING 281
SWIDTH 548 0
DWIDTH 16 0
BBX 14 22 1 -6
BITMAP
0FC0
1FE0
3FF0
7878
F038
F03C
FFFC
FFFC
FFFC
F000
F000
F800
7C70
7FF8
3FF8
0FE0
01C0
0380
0380
0380
03E0
01E0
ENDCHAR
STARTCHAR 011A
ENCODING 282
SWIDTH 651 0
DWIDTH 19 0
BBX 16 27 2 0
BITMAP
1E70
0EF0
07E0
03C0
0000
0000
FFFF
FFFF
FFFF
FFFF
F000
F000
F000
F000
FFFE
FFFE
FFFE
FFFE
F000
F000
F000
F000
F000
FFFF
FFFF
FFFF
FFFF
ENDCHAR
STARTCHAR 011B
ENCODING 283
SWIDTH 548 0
DWIDTH 16 0
BBX 14 22 1 0
BITMAP
3CE0
1DE0
0FC0
0780
0000
0000
0FC0
1FE0
3FF0
7878
F038
F03C
FFFC
FFFC
FFFC
F000
F000
F800
7C70
7FF8
3FF8
0FE0
ENDCHAR
STARTCHAR 011C
ENCODING 284
SWIDTH 788 0
DWIDTH 23 0
BBX 20 27 1 0
BITMAP
007800
00FC00
01DE00
03CE00
000000
000000
01FC00
07FF80
0FFFC0
1FFFE0
3F07E0
7C03E0
7C0180
780000
F80000
F80000
F81FF0
F81FF0
781FF0
781FF0
7C00F0
7E00F0
3F03F0
1FFFF0
0FFFE0
07FF80
01FC00
ENDCHAR
STARTCHAR 011D
ENCODING 285
SWIDTH 617 0
DWIDTH 18 0
BBX 15 28 1 -6
BITMAP
03C0
07E0
0EF0
1E70
0000
0000
0F9E
1FDE
3FFE
7C7E
783E
F81E
F01E
F01E
F01E
F01E
F81E
783E
7C7E
3FFE
1FDE
0F9E
001E
601E
783C
7FFC
3FF8
0FE0
ENDCHAR
STARTCHAR 011E
ENCODING 286
SWIDTH 788 0
DWIDTH 23 0
BBX 20 27 1 0
BITMAP
030600
018600
01FC00
007800
000000
000000
01FC00
07FF80
0FFFC0
1FFFE0
3F07E0
7C03E0
7C0180
780000
F80000
F80000
F81FF0
F81FF0
781FF0
781FF0
7C00F0
7E00F0
3F03F0
1FFFF0
0FFFE0
07FF80
01FC00
ENDCHAR
STARTCHAR 011F
ENCODING 287
SWIDTH 617 0
DWIDTH 18 0
BBX 15 28 1 -6
BITMAP
1830
0C30
0FE0
03C0
0000
0000
0F9E
1FDE
3FFE
7C7E
783E
F81E
F01E
F01E
F01E
F01E
F81E
783E
7C7E
3FFE
1FDE
0F9E
001E
601E
783C
7FFC
3FF8
0FE0
ENDCHAR
STARTCHAR 0120
ENCODING 288
SWIDTH 788 0
DWIDTH 23 0
BBX 20 27 1 0
BITMAP
007800
007800
007800
007800
000000
000000
01FC00
07FF80
0FFFC0
1FFFE0
3F07E0
7C03E0
7C0180
780000
F80000
F80000
F81FF0
F81FF0
781FF0
781FF0
7C00F0
7E00F0
3F03F0
1FFFF0
0FFFE0
07FF80
01FC00
ENDCHAR
STARTCHAR 0121
ENCODING 289
SWIDTH 617 0
DWIDTH 18 0
BBX 15 28 1 -6
BITMAP
03C0
03C0
03C0
03C0
0000
0000
0F9E
1FDE
3FFE
7C7E
783E
F81E
F01E
F01E
F01E
F01E
F81E
783E
7C7E
3FFE
1FDE
0F9E
001E
601E
783C
7FFC
3FF8
0FE0
ENDCHAR
STARTCHAR 0122
ENCODING 290
SWIDTH 788 0
DWIDTH 23 0
BBX 20 27 1 -6
BITMAP
01FC00
07FF80
0FFFC0
1FFFE0
3F07E0
7C01E0
7C0180
780000
780000
F80000
F81FF0
F81FF0
781FF0
781FF0
7C00F0
7E00F0
3F03F0
1FFFF0
1FFFE0
07FF80
01FC00
00F800
01F800
001C00
001C00
03F800
03F000
ENDCHAR
STARTCHAR 0123
ENCODING 291
SWIDTH 617 0
DWIDTH 18 0
BBX 15 30 1 -6
BITMAP
0180
0380
0700
0780
0780
0780
0000
0000
0F9E
1FDE
3FFE
7C7E
783E
F81E
F01E
F01E
F01E
F01E
F81E
783E
7C7E
3FFE
1FDE
0F9E
001E
601E
7C3C
7FFC
3FF8
0FE0
ENDCHAR
STARTCHAR 0124
ENCODING 292
SWIDTH 720 0
DWIDTH 21 0
BBX 17 27 2 0
BITMAP
01E000
03F000
077800
0F3800
000000
000000
F00780
F00780
F00780
F00780
F00780
F00780
F00780
F00780
FFFF80
FFFF80
FFFF80
FFFF80
F00780
F00780
F00780
F00780
F00780
F00780
F00780
F00780
F00780
ENDCHAR
STARTCHAR 0125
ENCODING 293
SWIDTH 617 0
DWIDTH 18 0
BBX 14 27 2 0
BITMAP
0780
0FC0
1DE0
3CE0
0000
0000
F000
F000
F000
F000
F000
F3E0
F7F0
FFF8
FC78
F83C
F03C
F03C
F03C
F03C
F03C
F03C
F03C
F03C
F03C
F03C
F03C
ENDCHAR
STARTCHAR 0126
ENCODING 294
SWIDTH 720 0
DWIDTH 21 0
BBX 21 21 0 0
BITMAP
3C01E0
3C01E0
FFFFF8
FFFFF8
FFFFF8
3C01E0
3C01E0
3C01E0
3FFFE0
3FFFE0
3FFFE0
3FFFE0
3C01E0
3C01E0
3C01E0
3C01E0
3C01E0
3C01E0
3C01E0
3C01E0
3C01E0
ENDCHAR
STARTCHAR 0127
ENCODING 295
SWIDTH 617 0
DWIDTH 18 0
BBX 16 21 0 0
BITMAP
3C00
FFC0
FFC0
FFC0
3C00
3CF8
3DFC
3FFE
3F1E
3E0F
3C0F
3C0F
3C0F
3C0F
3C0F
3C0F
3C0F
3C0F
3C0F
3C0F
3C0F
ENDCHAR
STARTCHAR 0128
ENCODING 296
SWIDTH 274 0
DWIDTH 8 0
BBX 10 26 -1 0
BITMAP
78C0
FF80
C780
0000
0000
1E00
1E00
1E00
1E00
1E00
1E00
1E00
1E00
1E00
1E00
1E00
1E00
1E00
1E00
1E00
1E00
1E00
1E00
1E00
1E00
1E00
ENDCHAR
STARTCHAR 0129
ENCODING 297
SWIDTH 274 0
DWIDTH 8 0
BBX 10 21 -1 0
BITMAP
78C0
FF80
C780
0000
0000
1E00
1E00
1E00
1E00
1E00
1E00
1E00
1E00
1E00
1E00
1E00
1E00
1E00
1E00
1E00
1E00
ENDCHAR
STARTCHAR 012A
ENCODING 298
SWIDTH 274 0
DWIDTH 8 0
BBX 9 26 -1 0
BITMAP
FF80
FF80
FF80
0000
0000
1E00
1E00
1E00
1E00
1E00
1E00
1E00
1E00
1E00
1E00
1E00
1E00
1E00
1E00
1E00
1E00
1E00
1E00
1E00
1E00
1E00
ENDCHAR
STARTCHAR 012B
ENCODING 299
SWIDTH 274 0
DWIDTH 8 0
BBX 9 21 -1 0
BITMAP
FF80
FF80
FF80
0000
0000
1E00
1E00
1E00
1E00
1E00
1E00
1E00
1E00
1E00
1E00
1E00
1E00
1E00
1E00
1E00
1E00
ENDCHAR
STARTCHAR 012C
ENCODING 300
SWIDTH 274 0
DWIDTH 8 0
BBX 9 27 -1 0
BITMAP
C180
6180
7F00
1E00
0000
0000
1E00
1E00
1E00
1E00
1E00
1E00
1E00
1E00
1E00
1E00
1E00
1E00
1E00
1E00
1E00
1E00
1E00
1E00
1E00
1E00
1E00
ENDCHAR
STARTCHAR 012D
ENCODING 301
SWIDTH 274 0
DWIDTH 8 0
BBX 9 22 -1 0
BITMAP
C180
6180
7F00
1E00
0000
0000
1E00
1E00
1E00
1E00
1E00
1E00
1E00
1E00
1E00
1E00
1E00
1E00
1E00
1E00
1E00
1E00
ENDCHAR
STARTCHAR 012E
ENCODING 302
SWIDTH 274 0
DWIDTH 8 0
BBX 5 27 1 -6
BITMAP
78
78
78
78
78
78
78
78
78
78
78
78
78
78
78
78
78
78
78
78
78
70
E0
E0
E0
F8
78
ENDCHAR
STARTCHAR 012F
ENCODING 303
SWIDTH 274 0
DWIDTH 8 0
BBX 5 27 1 -6
BITMAP
78
78
78
00
00
78
78
78
78
78
78
78
78
78
78
78
78
78
78
78
78
70
E0
E0
E0
F8
78
ENDCHAR
STARTCHAR 0130
ENCODING 304
SWIDTH 274 0
DWIDTH 8 0
BBX 4 27 2 0
BITMAP
F0
F0
F0
F0
00
00
F0
F0
F0
F0
F0
F0
F0
F0
F0
F0
F0
F0
F0
F0
F0
F0
F0
F0
F0
F0
F0
ENDCHAR
STARTCHAR 0131
ENCODING 305
SWIDTH 274 0
DWIDTH 8 0
BBX 4 16 2 0
BITMAP
F0
F0
F0
F0
F0
F0
F0
F0
F0
F0
F0
F0
F0
F0
F0
F0
ENDCHAR
STARTCHAR 0132
ENCODING 306
SWIDTH 788 0
DWIDTH 23 0
BBX 19 21 2 0
BITMAP
F001E0
F001E0
F001E0
F001E0
F001E0
F001E0
F001E0
F001E0
F001E0
F001E0
F001E0
F001E0
F001E0
F781E0
F3C3E0
F3C3E0
F3E3C0
F3FFC0
F1FFC0
F0FF80
F07E00
ENDCHAR
STARTCHAR 0133
ENCODING 307
SWIDTH 548 0
DWIDTH 16 0
BBX 12 27 2 -6
BITMAP
F0F0
F0F0
F0F0
0000
0000
F0F0
F0F0
F0F0
F0F0
F0F0
F0F0
F0F0
F0F0
F0F0
F0F0
F0F0
F0F0
F0F0
F0F0
F0F0
F0F0
00F0
00F0
00F0
07F0
07E0
07C0
ENDCHAR
STARTCHAR 0134
ENCODING 308
SWIDTH 548 0
DWIDTH 16 0
BBX 15 27 1 0
BITMAP
0078
00FC
01DE
03CE
0000
0000
0078
0078
0078
0078
0078
0078
0078
0078
0078
0078
0078
0078
0078
E078
F0F8
F0F8
F8F0
FFF0
7FF0
3FE0
1F80
ENDCHAR
STARTCHAR 0135
ENCODING 309
SWIDTH 274 0
DWIDTH 8 0
BBX 9 28 -1 -6
BITMAP
1E00
3F00
7F80
7380
0000
0000
1E00
1E00
1E00
1E00
1E00
1E00
1E00
1E00
1E00
1E00
1E00
1E00
1E00
1E00
1E00
1E00
1E00
1E00
1E00
FE00
FC00
F800
ENDCHAR
STARTCHAR 0136
ENCODING 310
SWIDTH 720 0
DWIDTH 21 0
BBX 19 27 2 -6
BITMAP
F00FC0
F01F80
F03F00
F07E00
F07C00
F0F800
F1F000
F3E000
F7E000
FFE000
FFF000
FFF800
FEF800
FC7C00
F83E00
F03E00
F01F00
F01F80
F00F80
F007C0
F007E0
01E000
01F000
007000
007000
07F000
07C000
ENDCHAR
STARTCHAR 0137
ENCODING 311
SWIDTH 548 0
DWIDTH 16 0
BBX 14 27 2 -6
BITMAP
F000
F000
F000
F000
F000
F0F8
F1F0
F3E0
F3C0
F7C0
FF80
FF80
FF80
FFC0
FBC0
F1E0
F1E0
F0F0
F0F0
F078
F07C
0780
07C0
01C0
01C0
1FC0
1F00
ENDCHAR
STARTCHAR 0138
ENCODING 312
SWIDTH 548 0
DWIDTH 16 0
BBX 14 16 2 0
BITMAP
F0F8
F1F0
F1E0
F3C0
F7C0
FF80
FF80
FF80
FFC0
FBC0
F1E0
F1E0
F0F0
F0F8
F078
F07C
ENDCHAR
STARTCHAR 0139
ENCODING 313
SWIDTH 617 0
DWIDTH 18 0
BBX 15 27 2 0
BITMAP
07C0
0780
0F00
0E00
0000
0000
F000
F000
F000
F000
F000
F000
F000
F000
F000
F000
F000
F000
F000
F000
F000
F000
F000
FFFE
FFFE
FFFE
FFFE
ENDCHAR
STARTCHAR 013A
ENCODING 314
SWIDTH 274 0
DWIDTH 8 0
BBX 6 27 2 0
BITMAP
7C
78
F0
E0
00
00
F0
F0
F0
F0
F0
F0
F0
F0
F0
F0
F0
F0
F0
F0
F0
F0
F0
F0
F0
F0
F0
ENDCHAR
STARTCHAR 013B
ENCODING 315
SWIDTH 617 0
DWIDTH 18 0
BBX 15 27 2 -6
BITMAP
F000
F000
F000
F000
F000
F000
F000
F000
F000
F000
F000
F000
F000
F000
F000
F000
F000
FFFE
FFFE
FFFE
FFFE
0780
07C0
01C0
01C0
1FC0
1F00
ENDCHAR
STARTCHAR 013C
ENCODING 316
SWIDTH 274 0
DWIDTH 8 0
BBX 7 27 0 -6
BITMAP
3C
3C
3C
3C
3C
3C
3C
3C
3C
3C
3C
3C
3C
3C
3C
3C
3C
3C
3C
3C
3C
3C
3E
0E
0E
FE
F8
ENDCHAR
STARTCHAR 013D
ENCODING 317
SWIDTH 617 0
DWIDTH 18 0
BBX 15 21 2 0
BITMAP
F03C
F03C
F03C
F03C
F00C
F01C
F018
F038
F020
F000
F000
F000
F000
F000
F000
F000
F000
FFFE
FFFE
FFFE
FFFE
ENDCHAR
STARTCHAR 013E
ENCODING 318
SWIDTH 377 0
DWIDTH 11 0
BBX 9 21 2 0
BITMAP
F380
F380
F380
F380
F180
F180
F300
F200
F000
F000
F000
F000
F000
F000
F000
F000
F000
F000
F000
F000
F000
ENDCHAR
STARTCHAR 013F
ENCODING 319
SWIDTH 617 0
DWIDTH 18 0
BBX 15 21 2 0
BITMAP
F000
F000
F000
F000
F000
F000
F780
F780
F780
F780
F000
F000
F000
F000
F000
F000
F000
FFFE
FFFE
FFFE
FFFE
ENDCHAR
STARTCHAR 0140
ENCODING 320
SWIDTH 480 0
DWIDTH 14 0
BBX 10 21 2 0
BITMAP
F000
F000
F000
F000
F000
F000
F000
F000
F3C0
F3C0
F3C0
F3C0
F000
F000
F000
F000
F000
F000
F000
F000
F000
ENDCHAR
STARTCHAR 0141
ENCODING 321
SWIDTH 617 0
DWIDTH 18 0
BBX 17 21 0 0
BITMAP
3E0000
3E0000
3E0000
3E2000
3E6000
3EE000
3F8000
3F0000
3E0000
3E0000
3E0000
7E0000
FE0000
FE0000
BE0000
3E0000
3E0000
3FFF80
3FFF80
3FFF80
3FFF80
ENDCHAR
STARTCHAR 0142
ENCODING 322
SWIDTH 274 0
DWIDTH 8 0
BBX 8 21 0 0
BITMAP
3C
3C
3C
3C
3C
3C
3D
3F
3E
3C
3C
7C
FC
BC
3C
3C
3C
3C
3C
3C
3C
ENDCHAR
STARTCHAR 0143
ENCODING 323
SWIDTH 720 0
DWIDTH 21 0
BBX 17 27 2 0
BITMAP
01F000
01E000
03C000
038000
000000
000000
F80780
F80780
FC0780
FC0780
FE0780
FF0780
FF0780
FF8780
F78780
F3C780
F3E780
F1E780
F1F780
F0F780
F07F80
F07F80
F03F80
F03F80
F01F80
F00F80
F00F80
ENDCHAR
STARTCHAR 0144
ENCODING 324
SWIDTH 617 0
DWIDTH 18 0
BBX 14 22 2 0
BITMAP
03E0
03C0
0780
0700
0000
0000
F3E0
FFF8
FFF8
FC7C
F87C
F03C
F03C
F03C
F03C
F03C
F03C
F03C
F03C
F03C
F03C
F03C
ENDCHAR
STARTCHAR 0145
ENCODING 325
SWIDTH 720 0
DWIDTH 21 0
BBX 17 27 2 -6
BITMAP
F80780
F80780
FC0780
FC0780
FE0780
FF0780
FF0780
FF8780
F78780
F3C780
F3E780
F1E780
F1F780
F0F780
F07F80
F07F80
F03F80
F03F80
F01F80
F00F80
F00F80
01E000
01F000
007000
007000
07F000
07C000
ENDCHAR
STARTCHAR 0146
ENCODING 326
SWIDTH 617 0
DWIDTH 18 0
BBX 14 22 2 -6
BITMAP
F3E0
FFF8
FFF8
FC7C
F87C
F03C
F03C
F03C
F03C
F03C
F03C
F03C
F03C
F03C
F03C
F03C
0780
07C0
01C0
01C0
1FC0
1F00
ENDCHAR
STARTCHAR 0147
ENCODING 327
SWIDTH 720 0
DWIDTH 21 0
BBX 17 27 2 0
BITMAP
1E7000
0EF000
07E000
03C000
000000
000000
F80780
F80780
FC0780
FC0780
FE0780
FF0780
FF0780
FF8780
F78780
F3C780
F3E780
F1E780
F1F780
F0F780
F07F80
F07F80
F03F80
F03F80
F01F80
F00F80
F00F80
ENDCHAR
STARTCHAR 0148
ENCODING 328
SWIDTH 617 0
DWIDTH 18 0
BBX 14 22 2 0
BITMAP
3CE0
1DE0
0FC0
0780
0000
0000
F3E0
FFF8
FFF8
FC7C
F87C
F03C
F03C
F03C
F03C
F03C
F03C
F03C
F03C
F03C
F03C
F03C
ENDCHAR
STARTCHAR 0149
ENCODING 329
SWIDTH 720 0
DWIDTH 21 0
BBX 19 21 0 0
BITMAP
F00000
F00000
F00000
F00000
300000
379F00
67FFC0
E7FFC0
C7E3E0
07C3E0
0781E0
0781E0
0781E0
0781E0
0781E0
0781E0
0781E0
0781E0
0781E0
0781E0
0781E0
ENDCHAR
STARTCHAR 014A
ENCODING 330
SWIDTH 720 0
DWIDTH 21 0
BBX 18 21 2 0
BITMAP
F0FC00
F3FE00
F7FF00
FFFF00
FE1F80
FC0F80
F80780
F80780
F007C0
F007C0
F007C0
F007C0
F007C0
F007C0
F00780
F00780
F08F80
F0FF80
F0FF00
F0FF00
F07C00
ENDCHAR
STARTCHAR 014B
ENCODING 331
SWIDTH 617 0
DWIDTH 18 0
BBX 14 22 2 -6
BITMAP
F3E0
FFF0
FFF8
FC78
F87C
F03C
F03C
F03C
F03C
F03C
F03C
F03C
F03C
F03C
F03C
F03C
003C
007C
01FC
01F8
01F8
03F0
ENDCHAR
STARTCHAR 014C
ENCODING 332
SWIDTH 788 0
DWIDTH 23 0
BBX 20 26 1 0
BITMAP
07FC00
07FC00
07FC00
000000
000000
01FC00
07FF00
1FFF80
3FFFC0
3F07E0
7C03E0
7801F0
7800F0
F800F0
F800F0
F800F0
F800F0
F800F0
7800F0
7C01F0
7C03E0
3F07E0
3FFFC0
1FFF80
07FF00
01FC00
ENDCHAR
STARTCHAR 014D
ENCODING 333
SWIDTH 617 0
DWIDTH 18 0
BBX 16 21 1 0
BITMAP
1FF0
1FF0
1FF0
0000
0000
07E0
1FF8
3FFC
7C3C
781E
F81E
F01F
F00F
F00F
F01F
F81E
781E
7C3C
3FFC
1FF8
07E0
ENDCHAR
STARTCHAR 014E
ENCODING 334
SWIDTH 788 0
DWIDTH 23 0
BBX 20 27 1 0
BITMAP
060C00
030C00
03F800
00F000
000000
000000
01FC00
07FF00
1FFF80
3FFFC0
3F07E0
7C03E0
7801F0
7800F0
F800F0
F800F0
F800F0
F800F0
F800F0
7800F0
7C01F0
7C03E0
3F07E0
3FFFC0
1FFF80
07FF00
01FC00
ENDCHAR
STARTCHAR 014F
ENCODING 335
SWIDTH 617 0
DWIDTH 18 0
BBX 16 22 1 0
BITMAP
1830
0C30
0FE0
03C0
0000
0000
07E0
1FF8
3FFC
7C3C
781E
F81E
F01F
F00F
F00F
F01F
F81E
781E
7C3C
3FFC
1FF8
07E0
ENDCHAR
STARTCHAR 0150
ENCODING 336
SWIDTH 788 0
DWIDTH 23 0
BBX 20 27 1 0
BITMAP
01EF00
01CE00
039E00
031C00
000000
000000
01FC00
07FF00
1FFF80
3FFFC0
3F07E0
7C03E0
7801F0
7800F0
F800F0
F800F0
F800F0
F800F0
F800F0
7800F0
7C01F0
7C03E0
3F07E0
3FFFC0
1FFF80
07FF00
01FC00
ENDCHAR
STARTCHAR 0151
ENCODING 337
SWIDTH 617 0
DWIDTH 18 0
BBX 16 22 1 0
BITMAP
07BC
0738
0E78
0C70
0000
0000
07E0
1FF8
3FFC
7C3C
781E
F81E
F01F
F00F
F00F
F01F
F81E
781E
7C3C
3FFC
1FF8
07E0
ENDCHAR
STARTCHAR 0152
ENCODING 338
SWIDTH 994 0
DWIDTH 29 0
BBX 27 21 1 0
BITMAP
07E3FFE0
1FFBFFE0
3FFFFFE0
3FFFFFE0
7E1F8000
7C0F8000
F8078000
F8078000
F007FFC0
F007FFC0
F007FFC0
F007FFC0
F0078000
F8078000
F8078000
7C0F8000
7E1F8000
3FFFFFE0
3FFFFFE0
1FFBFFE0
07E3FFE0
ENDCHAR
STARTCHAR 0153
ENCODING 339
SWIDTH 925 0
DWIDTH 27 0
BBX 25 16 1 0
BITMAP
07E0F800
1FF3FE00
3FFFFF00
7C7F8F00
781F0780
781E0780
F01FFF80
F01FFF80
F01FFF80
F01E0000
781F0000
781F0000
7C3F8600
3FFFFF80
1FFBFF00
07E0FC00
ENDCHAR
STARTCHAR 0154
ENCODING 340
SWIDTH 720 0
DWIDTH 21 0
BBX 18 27 2 0
BITMAP
03E000
03C000
078000
070000
000000
000000
FFFC00
FFFE00
FFFF00
FFFF80
F00F80
F00780
F00780
F00F80
FFFF00
FFFF00
FFFE00
FFF000
F0F800
F07C00
F03E00
F03E00
F01F00
F01F80
F00F80
F007C0
F007C0
ENDCHAR
STARTCHAR 0155
ENCODING 341
SWIDTH 377 0
DWIDTH 11 0
BBX 9 22 2 0
BITMAP
1F00
1E00
3C00
3800
0000
0000
F780
FF80
FF80
F800
F000
F000
F000
F000
F000
F000
F000
F000
F000
F000
F000
F000
ENDCHAR
STARTCHAR 0156
ENCODING 342
SWIDTH 720 0
DWIDTH 21 0
BBX 18 27 2 -6
BITMAP
FFFC00
FFFE00
FFFF00
FFFF80
F00F80
F00780
F00780
F00F80
FFFF00
FFFF00
FFFE00
FFF000
F0F800
F07C00
F03E00
F03E00
F01F00
F01F80
F00F80
F007C0
F007C0
01E000
01F000
007000
007000
07F000
07C000
ENDCHAR
STARTCHAR 0157
ENCODING 343
SWIDTH 377 0
DWIDTH 11 0
BBX 10 22 1 -6
BITMAP
7BC0
7FC0
7FC0
7C00
7800
7800
7800
7800
7800
7800
7800
7800
7800
7800
7800
7800
3C00
3E00
0E00
0E00
FE00
F800
ENDCHAR
STARTCHAR 0158
ENCODING 344
SWIDTH 720 0
DWIDTH 21 0
BBX 18 27 2 0
BITMAP
3CE000
1DE000
0FC000
078000
000000
000000
FFFC00
FFFE00
FFFF00
FFFF80
F00F80
F00780
F00780
F00F80
FFFF00
FFFF00
FFFE00
FFF000
F0F800
F07C00
F03E00
F03E00
F01F00
F01F80
F00F80
F007C0
F007C0
ENDCHAR
STARTCHAR 0159
ENCODING 345
SWIDTH 377 0
DWIDTH 11 0
BBX 10 22 1 0
BITMAP
F380
7780
3F00
1E00
0000
0000
7BC0
7FC0
7FC0
7C00
7800
7800
7800
7800
7800
7800
7800
7800
7800
7800
7800
7800
ENDCHAR
STARTCHAR 015A
ENCODING 346
SWIDTH 651 0
DWIDTH 19 0
BBX 17 27 1 0
BITMAP
00F800
00F000
01E000
01C000
000000
000000
07F000
1FFC00
3FFE00
7FFF00
7C1F00
780F00
780000
7F0000
3FF000
3FFC00
0FFE00
03FF00
007F80
000F80
F00780
F80F80
7C1F80
7FFF00
3FFF00
1FFC00
07F000
ENDCHAR
STARTCHAR 015B
ENCODING 347
SWIDTH 548 0
DWIDTH 16 0
BBX 14 22 1 0
BITMAP
01F0
01E0
03C0
0380
0000
0000
1FC0
3FF0
7FF8
F078
F060
FC00
7FC0
7FF0
1FF8
03FC
007C
303C
F878
FFF8
7FF0
1FC0
ENDCHAR
STARTCHAR 015C
ENCODING 348
SWIDTH 651 0
DWIDTH 19 0
BBX 17 27 1 0
BITMAP
01E000
03F000
077800
0F3800
000000
000000
07F000
1FFC00
3FFE00
7FFF00
7C1F00
780F00
780000
7F0000
3FF000
3FFC00
0FFE00
03FF00
007F80
000F80
F00780
F80F80
7C1F80
7FFF00
3FFF00
1FFC00
07F000
ENDCHAR
STARTCHAR 015D
ENCODING 349
SWIDTH 548 0
DWIDTH 16 0
BBX 14 22 1 0
BITMAP
0780
0FC0
1DE0
3CE0
0000
0000
1FC0
3FF0
7FF8
F078
F060
FC00
7FC0
7FF0
1FF8
03FC
007C
303C
F878
FFF8
7FF0
1FC0
ENDCHAR
STARTCHAR 015E
ENCODING 350
SWIDTH 651 0
DWIDTH 19 0
BBX 17 27 1 -6
BITMAP
07F000
1FFC00
3FFE00
7FFF00
7C1F00
780F00
780000
7F0000
3FF000
3FFC00
0FFE00
03FF00
007F80
000F80
F00780
F80F80
7C1F80
7FFF00
3FFF00
1FFC00
07F000
03E000
03F000
007000
007000
07F000
07C000
ENDCHAR
STARTCHAR 015F
ENCODING 351
SWIDTH 548 0
DWIDTH 16 0
BBX 14 22 1 -6
BITMAP
1FC0
3FF0
7FF8
F078
F060
FC00
7FC0
7FF0
1FF8
03FC
007C
303C
F878
FFF8
7FF0
1FC0
07C0
07E0
00E0
00E0
0FE0
0F80
ENDCHAR
STARTCHAR 0160
ENCODING 352
SWIDTH 651 0
DWIDTH 19 0
BBX 17 27 1 0
BITMAP
0F3800
077800
03F000
01E000
000000
000000
07F000
1FFC00
3FFE00
7FFF00
7C1F00
780F00
780000
7F0000
3FF000
3FFC00
0FFE00
03FF00
007F80
000F80
F00780
F80F80
7C1F80
7FFF00
3FFF00
1FFC00
07F000
ENDCHAR
STARTCHAR 0161
ENCODING 353
SWIDTH 548 0
DWIDTH 16 0
BBX 14 22 1 0
BITMAP
3CE0
1DE0
0FC0
0780
0000
0000
1FC0
3FF0
7FF8
F078
F060
FC00
7FC0
7FF0
1FF8
03FC
007C
303C
F878
FFF8
7FF0
1FC0
ENDCHAR
STARTCHAR 0162
ENCODING 354
SWIDTH 617 0
DWIDTH 18 0
BBX 16 27 1 -6
BITMAP
FFFF
FFFF
FFFF
FFFF
03C0
03C0
03C0
03C0
03C0
03C0
03C0
03C0
03C0
03C0
03C0
03C0
03C0
03C0
03C0
03C0
03C0
07C0
07E0
00E0
00E0
0FE0
0F80
ENDCHAR
STARTCHAR 0163
ENCODING 355
SWIDTH 342 0
DWIDTH 10 0
BBX 9 27 0 -6
BITMAP
0400
1C00
3C00
3C00
3C00
FF80
FF80
FF80
3C00
3C00
3C00
3C00
3C00
3C00
3C00
3C00
3C00
3C00
3F80
1F80
0F80
1F00
1F80
0380
0380
3F80
3E00
ENDCHAR
STARTCHAR 0164
ENCODING 356
SWIDTH 617 0
DWIDTH 18 0
BBX 16 27 1 0
BITMAP
1E70
0EF0
07E0
03C0
0000
0000
FFFF
FFFF
FFFF
FFFF
03C0
03C0
03C0
03C0
03C0
03C0
03C0
03C0
03C0
03C0
03C0
03C0
03C0
03C0
03C0
03C0
03C0
ENDCHAR
STARTCHAR 0165
ENCODING 357
SWIDTH 480 0
DWIDTH 14 0
BBX 14 21 0 0
BITMAP
043C
1C3C
3C3C
3C3C
3C0C
FF8C
FF98
FFB0
3C00
3C00
3C00
3C00
3C00
3C00
3C00
3C00
3C00
3C00
3F80
1F80
0F80
ENDCHAR
STARTCHAR 0166
ENCODING 358
SWIDTH 617 0
DWIDTH 18 0
BBX 16 21 1 0
BITMAP
FFFF
FFFF
FFFF
FFFF
03C0
03C0
03C0
03C0
03C0
03C0
7FFC
7FFC
7FFC
03C0
03C0
03C0
03C0
03C0
03C0
03C0
03C0
ENDCHAR
STARTCHAR 0167
ENCODING 359
SWIDTH 342 0
DWIDTH 10 0
BBX 9 21 0 0
BITMAP
0400
1C00
3C00
3C00
3C00
FF80
FF80
FF80
3C00
3C00
3C00
3C00
FF80
FF80
FF80
3C00
3C00
3C00
3F80
1F80
0F80
ENDCHAR
STARTCHAR 0168
ENCODING 360
SWIDTH 720 0
DWIDTH 21 0
BBX 17 26 2 0
BITMAP
078C00
0FF800
0C7800
000000
000000
F00F80
F00F80
F00F80
F00F80
F00F80
F00F80
F00F80
F00F80
F00F80
F00F80
F00F80
F00F80
F00F80
F00F80
F00F80
F80F00
7C1F00
7FFF00
3FFE00
1FFC00
07F000
ENDCHAR
STARTCHAR 0169
ENCODING 361
SWIDTH 617 0
DWIDTH 18 0
BBX 14 21 2 0
BITMAP
1E30
3FE0
31E0
0000
0000
F03C
F03C
F03C
F03C
F03C
F03C
F03C
F03C
F03C
F03C
F07C
F07C
F8FC
7FFC
7FBC
1F3C
ENDCHAR
STARTCHAR 016A
ENCODING 362
SWIDTH 720 0
DWIDTH 21 0
BBX 17 26 2 0
BITMAP
0FF800
0FF800
0FF800
000000
000000
F00F80
F00F80
F00F80
F00F80
F00F80
F00F80
F00F80
F00F80
F00F80
F00F80
F00F80
F00F80
F00F80
F00F80
F00F80
F80F00
7C1F00
7FFF00
3FFE00
1FFC00
07F000
ENDCHAR
STARTCHAR 016B
ENCODING 363
SWIDTH 617 0
DWIDTH 18 0
BBX 14 21 2 0
BITMAP
3FE0
3FE0
3FE0
0000
0000
F03C
F03C
F03C
F03C
F03C
F03C
F03C
F03C
F03C
F03C
F07C
F07C
F8FC
7FFC
7FBC
1F3C
ENDCHAR
STARTCHAR 016C
ENCODING 364
SWIDTH 720 0
DWIDTH 21 0
BBX 17 27 2 0
BITMAP
0C1800
061800
07F000
01E000
000000
000000
F00F80
F00F80
F00F80
F00F80
F00F80
F00F80
F00F80
F00F80
F00F80
F00F80
F00F80
F00F80
F00F80
F00F80
F00F80
F80F00
7C1F00
7FFF00
3FFE00
1FFC00
07F000
ENDCHAR
STARTCHAR 016D
ENCODING 365
SWIDTH 617 0
DWIDTH 18 0
BBX 14 22 2 0
BITMAP
3060
1860
1FC0
0780
0000
0000
F03C
F03C
F03C
F03C
F03C
F03C
F03C
F03C
F03C
F03C
F07C
F07C
F8FC
7FFC
7FBC
1F3C
ENDCHAR
STARTCHAR 016E
ENCODING 366
SWIDTH 720 0
DWIDTH 21 0
BBX 17 27 2 0
BITMAP
01C000
03E000
033000
033000
03E000
01C000
F00F80
F00F80
F00F80
F00F80
F00F80
F00F80
F00F80
F00F80
F00F80
F00F80
F00F80
F00F80
F00F80
F00F80
F00F80
F80F00
7C1F00
7FFF00
3FFE00
1FFC00
07F000
ENDCHAR
STARTCHAR 016F
ENCODING 367
SWIDTH 617 0
DWIDTH 18 0
BBX 14 24 2 0
BITMAP
0700
0F80
0CC0
0CC0
0F80
0700
0000
0000
F03C
F03C
F03C
F03C
F03C
F03C
F03C
F03C
F03C
F03C
F07C
F07C
F8FC
7FFC
7FBC
1F3C
ENDCHAR
STARTCHAR 0170
ENCODING 368
SWIDTH 720 0
DWIDTH 21 0
BBX 17 27 2 0
BITMAP
03DE00
039C00
073C00
063800
000000
000000
F00F80
F00F80
F00F80
F00F80
F00F80
F00F80
F00F80
F00F80
F00F80
F00F80
F00F80
F00F80
F00F80
F00F80
F00F80
F80F00
7C1F00
7FFF00
3FFE00
1FFC00
07F000
ENDCHAR
STARTCHAR 0171
ENCODING 369
SWIDTH 617 0
DWIDTH 18 0
BBX 14 22 2 0
BITMAP
0F78
0E70
1CF0
18E0
0000
0000
F03C
F03C
F03C
F03C
F03C
F03C
F03C
F03C
F03C
F03C
F07C
F07C
F8FC
7FFC
7FBC
1F3C
ENDCHAR
STARTCHAR 0172
ENCODING 370
SWIDTH 720 0
DWIDTH 21 0
BBX 17 27 2 -6
BITMAP
F00F80
F00F80
F00F80
F00F80
F00F80
F00F80
F00F80
F00F80
F00F80
F00F80
F00F80
F00F80
F00F80
F00F80
F00F80
F80F00
7C1F00
7FFF00
3FFE00
1FFC00
07F000
00E000
01C000
01C000
01C000
01F000
00F000
ENDCHAR
STARTCHAR 0173
ENCODING 371
SWIDTH 617 0
DWIDTH 18 0
BBX 14 22 2 -6
BITMAP
F03C
F03C
F03C
F03C
F03C
F03C
F03C
F03C
F03C
F03C
F07C
F07C
F8FC
7FFC
7FBC
1F3C
0038
0070
0070
0070
007C
003C
ENDCHAR
STARTCHAR 0174
ENCODING 372
SWIDTH 925 0
DWIDTH 27 0
BBX 27 27 0 0
BITMAP
000F0000
001F8000
003BC000
0079C000
00000000
00000000
F81F01E0
F81F81E0
781F81E0
783F83E0
783F83C0
7C3FC3C0
3C3BC3C0
3C7BC7C0
3C79C780
3C79E780
1E71E780
1EF1E780
1EF0EF00
1EF0FF00
0FE0FF00
0FE0FF00
0FE07E00
0FE07E00
0FC07E00
07C07E00
07C03C00
ENDCHAR
STARTCHAR 0175
ENCODING 373
SWIDTH 788 0
DWIDTH 23 0
BBX 22 22 0 0
BITMAP
007800
00FC00
01DE00
03CE00
000000
000000
F0783C
707C3C
787C3C
787C3C
78FC78
38FE78
3CFE78
3CEE70
1DEEF0
1FCFF0
1FC7E0
0FC7E0
0FC7E0
0F87C0
0F83C0
0783C0
ENDCHAR
STARTCHAR 0176
ENCODING 374
SWIDTH 651 0
DWIDTH 19 0
BBX 19 27 0 0
BITMAP
00F000
01F800
03BC00
079C00
000000
000000
F803E0
7C03C0
3C07C0
3E0780
1F0F80
1F1F00
0F9E00
07BE00
07FC00
03F800
01F800
01F000
00F000
00F000
00F000
00F000
00F000
00F000
00F000
00F000
00F000
ENDCHAR
STARTCHAR 0177
ENCODING 375
SWIDTH 548 0
DWIDTH 16 0
BBX 15 28 0 -6
BITMAP
03C0
07E0
0EF0
1E70
0000
0000
F81E
781E
781E
7C3C
3C3C
3C3C
1C38
1E78
1E78
0E70
0FF0
0FF0
07E0
07E0
07E0
03C0
03C0
07C0
0780
7F80
7F00
7E00
ENDCHAR
STARTCHAR 0178
ENCODING 376
SWIDTH 651 0
DWIDTH 19 0
BBX 19 26 0 0
BITMAP
071E00
071E00
071E00
000000
000000
F803E0
7C03C0
3C07C0
3E0780
1F0F80
1F1F00
0F9E00
07BE00
07FC00
03F800
01F800
01F000
00F000
00F000
00F000
00F000
00F000
00F000
00F000
00F000
00F000
ENDCHAR
STARTCHAR 0179
ENCODING 377
SWIDTH 617 0
DWIDTH 18 0
BBX 17 27 0 0
BITMAP
00F800
00F000
01E000
01C000
000000
000000
3FFF80
3FFF80
3FFF80
3FFF00
001F00
003E00
007C00
00F800
01F000
01E000
03E000
07C000
0F8000
1F0000
3E0000
3E0000
7C0000
FFFF80
FFFF80
FFFF80
FFFF80
ENDCHAR
STARTCHAR 017A
ENCODING 378
SWIDTH 514 0
DWIDTH 15 0
BBX 14 22 0 0
BITMAP
03E0
03C0
0780
0700
0000
0000
7FF8
7FF8
7FF8
00F8
01F0
03F0
07E0
07C0
0F80
1F80
3F00
3E00
7C00
FFFC
FFFC
FFFC
ENDCHAR
STARTCHAR 017B
ENCODING 379
SWIDTH 617 0
DWIDTH 18 0
BBX 17 27 0 0
BITMAP
01E000
01E000
01E000
01E000
000000
000000
3FFF80
3FFF80
3FFF80
3FFF00
001F00
003E00
007C00
00F800
01F000
01E000
03E000
07C000
0F8000
1F0000
3E0000
3E0000
7C0000
FFFF80
FFFF80
FFFF80
FFFF80
ENDCHAR
STARTCHAR 017C
ENCODING 380
SWIDTH 514 0
DWIDTH 15 0
BBX 14 22 0 0
BITMAP
0780
0780
0780
0780
0000
0000
7FF8
7FF8
7FF8
00F8
01F0
03F0
07E0
07C0
0F80
1F80
3F00
3E00
7C00
FFFC
FFFC
FFFC
ENDCHAR
STARTCHAR 017D
ENCODING 381
SWIDTH 617 0
DWIDTH 18 0
BBX 17 27 0 0
BITMAP
0F3800
077800
03F000
01E000
000000
000000
3FFF80
3FFF80
3FFF80
3FFF00
001F00
003E00
007C00
00F800
01F000
01E000
03E000
07C000
0F8000
1F0000
3E0000
3E0000
7C0000
FFFF80
FFFF80
FFFF80
FFFF80
ENDCHAR
STARTCHAR 017E
ENCODING 382
SWIDTH 514 0
DWIDTH 15 0
BBX 14 22 0 0
BITMAP
3CE0
1DE0
0FC0
0780
0000
0000
7FF8
7FF8
7FF8
00F8
01F0
03F0
07E0
07C0
0F80
1F80
3F00
3E00
7C00
FFFC
FFFC
FFFC
ENDCHAR
STARTCHAR 017F
ENCODING 383
SWIDTH 274 0
DWIDTH 8 0
BBX 8 21 2 0
BITMAP
3F
7F
FF
F0
F0
F0
F0
F0
F0
F0
F0
F0
F0
F0
F0
F0
F0
F0
F0
F0
F0
ENDCHAR
STARTCHAR 0180
ENCODING 384
SWIDTH 617 0
DWIDTH 18 0
BBX 17 21 0 0
BITMAP
3C0000
FFC000
FFC000
FFC000
3C0000
3CF800
3FFC00
3FFE00
3E1F00
3E0F00
3C0F00
3C0F80
3C0F80
3C0F80
3C0F80
3C0F00
3E0F00
3F1F00
3FFE00
3FFC00
3CF800
ENDCHAR
STARTCHAR 0181
ENCODING 385
SWIDTH 822 0
DWIDTH 24 0
BBX 23 21 0 0
BITMAP
1FFFC0
7FFFF0
7FFFF8
FFFFFC
F7C07C
F7C03C
77C03C
67C078
07FFF8
07FFE0
07FFF8
07FFFC
07C07C
07C03E
07C03E
07C03E
07C07E
07FFFC
07FFFC
07FFF8
07FFE0
ENDCHAR
STARTCHAR 0182
ENCODING 386
SWIDTH 720 0
DWIDTH 21 0
BBX 18 21 2 0
BITMAP
FFFF00
FFFF00
FFFF00
FFFF00
F00000
F00000
F00000
F00000
F00000
FFFC00
FFFE00
FFFF00
FFFF80
F00F80
F007C0
F007C0
F00F80
FFFF80
FFFF00
FFFF00
FFFC00
ENDCHAR
STARTCHAR 0183
ENCODING 387
SWIDTH 617 0
DWIDTH 18 0
BBX 15 21 2 0
BITMAP
FFE0
FFE0
FFE0
F000
F000
F3E0
FFF0
FFF8
F87C
F83C
F03C
F03E
F03E
F03E
F03E
F03C
F83C
FC7C
FFF8
FFF0
F3E0
ENDCHAR
STARTCHAR 0184
ENCODING 388
SWIDTH 720 0
DWIDTH 21 0
BBX 20 21 0 0
BITMAP
040000
1C0000
3C0000
7C0000
FC0000
7C0000
3C0000
3C0000
3FFE00
3FFF80
3FFFC0
3FFFE0
3C03E0
3C01E0
3C01F0
3C01E0
3C03E0
3FFFE0
3FFFC0
3FFFC0
3FFF00
ENDCHAR
STARTCHAR 0185
ENCODING 389
SWIDTH 617 0
DWIDTH 18 0
BBX 17 21 0 0
BITMAP
0C0000
3C0000
7C0000
FC0000
7C0000
3CF800
3FFC00
3FFE00
3E1F00
3E0F00
3C0F00
3C0F80
3C0F80
3C0F80
3C0F80
3C0F00
3E0F00
3F1F00
3FFE00
3FFC00
3CF800
ENDCHAR
STARTCHAR 0186
ENCODING 390
SWIDTH 720 0
DWIDTH 21 0
BBX 18 21 2 0
BITMAP
07E000
1FF800
7FFE00
7FFE00
FC1F00
F00F80
300F80
000780
000780
0007C0
0007C0
0007C0
000780
300780
F00F80
F80F80
FC1F00
7FFF00
3FFE00
1FF800
07E000
ENDCHAR
STARTCHAR 0187
ENCODING 391
SWIDTH 720 0
DWIDTH 21 0
BBX 22 24 1 0
BITMAP
0000FC
0001FC
0001FC
01FBE0
07FFC0
1FFFC0
3FFFC0
3E0FC0
7C07C0
780300
780000
F80000
F80000
F80000
F80000
F80000
780300
7803C0
7C07C0
3E0FC0
3FFF80
1FFF00
0FFE00
01F800
ENDCHAR
STARTCHAR 0188
ENCODING 392
SWIDTH 548 0
DWIDTH 16 0
BBX 18 19 1 0
BITMAP
000FC0
001FC0
003FC0
07FC00
1FFC00
3FFC00
7C7C00
783800
F80000
F00000
F00000
F00000
F00000
F80000
783C00
7C7C00
3FFC00
1FF800
07E000
ENDCHAR
STARTCHAR 0189
ENCODING 393
SWIDTH 720 0
DWIDTH 21 0
BBX 20 21 0 0
BITMAP
3FFC00
3FFF00
3FFF80
3FFFC0
3C0FC0
3C03E0
3C01E0
3C01E0
3C01E0
FFE1E0
FFE1F0
FFE1F0
3C01E0
3C01E0
3C01E0
3C03E0
3C07C0
3FFFC0
3FFF80
3FFF00
3FFC00
ENDCHAR
STARTCHAR 018A
ENCODING 394
SWIDTH 822 0
DWIDTH 24 0
BBX 23 21 0 0
BITMAP
1FFF80
7FFFE0
7FFFF0
FFFFF8
F7C0FC
F7C07C
77C03C
67C03E
07C03E
07C03E
07C03E
07C03E
07C03E
07C03E
07C03C
07C07C
07C0FC
07FFF8
07FFF0
07FFE0
07FF80
ENDCHAR
STARTCHAR 018B
ENCODING 395
SWIDTH 720 0
DWIDTH 21 0
BBX 18 21 1 0
BITMAP
3FFFC0
3FFFC0
3FFFC0
3FFFC0
0007C0
0007C0
0007C0
0007C0
0007C0
0FFFC0
3FFFC0
7FFFC0
7FFFC0
FC07C0
F807C0
F807C0
FC07C0
7FFFC0
7FFFC0
3FFFC0
0FFFC0
ENDCHAR
STARTCHAR 018C
ENCODING 396
SWIDTH 617 0
DWIDTH 18 0
BBX 15 21 1 0
BITMAP
0FFE
0FFE
0FFE
001E
001E
0F9E
3FDE
3FFE
7C7E
783E
F81E
F01E
F01E
F01E
F01E
F81E
783E
7C7E
3FFE
1FDE
0F9E
ENDCHAR
STARTCHAR 018D
ENCODING 397
SWIDTH 617 0
DWIDTH 18 0
BBX 16 22 1 -6
BITMAP
07E0
1FF0
3FF8
7C3C
781E
F01E
F00E
F00E
F00F
F01E
F01E
781E
7C3C
3FFC
1FF8
0FF0
03E0
01F0
00F8
7FFC
7FFC
7FFC
ENDCHAR
STARTCHAR 018E
ENCODING 398
SWIDTH 651 0
DWIDTH 19 0
BBX 16 21 1 0
BITMAP
7FFF
7FFF
7FFF
7FFF
000F
000F
000F
000F
3FFF
3FFF
3FFF
3FFF
000F
000F
000F
000F
000F
FFFF
FFFF
FFFF
FFFF
ENDCHAR
STARTCHAR 018F
ENCODING 399
SWIDTH 720 0
DWIDTH 21 0
BBX 19 21 1 0
BITMAP
03F800
0FFE00
1FFF00
3FFF80
7E0F80
7C07C0
1803C0
0003E0
0003E0
FFFFE0
FFFFE0
FFFFE0
FFFFE0
7803E0
7803C0
7C07C0
3E0FC0
3FFF80
1FFF00
0FFE00
03F800
ENDCHAR
STARTCHAR 0190
ENCODING 400
SWIDTH 617 0
DWIDTH 18 0
BBX 16 21 2 0
BITMAP
0FE0
3FF8
7FFC
7FFC
FC3E
F83E
F818
7800
3C00
1F80
3F80
7F80
F800
F000
F008
F01F
F83E
FFFE
7FFC
3FF8
0FE0
ENDCHAR
STARTCHAR 0191
ENCODING 401
SWIDTH 617 0
DWIDTH 18 0
BBX 17 27 -1 -6
BITMAP
1FFF80
1FFF80
1FFF80
1FFF80
1E0000
1E0000
1E0000
1E0000
1E0000
1FFF00
1FFF00
1FFF00
1FFF00
1E0000
1E0000
1E0000
1E0000
1E0000
1E0000
1E0000
1E0000
1E0000
1E0000
FE0000
FE0000
FC0000
F80000
ENDCHAR
STARTCHAR 0192
ENCODING 402
SWIDTH 548 0
DWIDTH 16 0
BBX 16 27 0 -6
BITMAP
003E
00FF
00FF
00FF
00F1
01E0
0FFC
0FFC
0FFC
0FFC
03E0
03C0
03C0
03C0
03C0
03C0
0780
0780
0780
0780
0780
0F80
8F00
FF00
FF00
FE00
7C00
ENDCHAR
STARTCHAR 0193
ENCODING 403
SWIDTH 788 0
DWIDTH 23 0
BBX 24 24 1 0
BITMAP
00003F
0000FE
0000FE
01FCF0
07FFF0
0FFFF0
1FFFF0
3F07F0
7C01F0
7C01C0
780000
F80000
F80000
F81FF0
F81FF0
781FF0
781FF0
7C00F0
7C00F0
3F03F0
1FFFF0
0FFFE0
07FF80
01FE00
ENDCHAR
STARTCHAR 0194
ENCODING 404
SWIDTH 617 0
DWIDTH 18 0
BBX 18 27 0 -6
BITMAP
F803C0
7807C0
7C0780
3C0780
3C0F00
3E0F00
1E1F00
1F1E00
0F1E00
0F3C00
07BC00
07F800
03F800
03F800
03F000
01F000
01E000
01F000
03F000
03F000
03F800
07F800
07BC00
07BC00
07FC00
07F800
01F000
ENDCHAR
STARTCHAR 0195
ENCODING 405
SWIDTH 925 0
DWIDTH 27 0
BBX 23 21 2 0
BITMAP
F00000
F00000
F00000
F00000
F00000
F3E01E
F7F01E
FFF81E
FC781E
F83C1E
F03C1E
F03C1E
F03C1E
F03C1E
F03C1E
F03C1E
F03C1E
F01E3C
F01FFC
F00FF8
F003E0
ENDCHAR
STARTCHAR 0196
ENCODING 406
SWIDTH 274 0
DWIDTH 8 0
BBX 4 21 2 0
BITMAP
F0
F0
F0
F0
F0
F0
F0
F0
F0
F0
F0
F0
F0
F0
F0
F0
F0
F0
F0
F0
F0
ENDCHAR
STARTCHAR 0197
ENCODING 407
SWIDTH 274 0
DWIDTH 8 0
BBX 8 21 0 0
BITMAP
3C
3C
3C
3C
3C
3C
3C
3C
3C
FF
FF
FF
3C
3C
3C
3C
3C
3C
3C
3C
3C
ENDCHAR
STARTCHAR 0198
ENCODING 408
SWIDTH 720 0
DWIDTH 21 0
BBX 19 21 2 0
BITMAP
3F0FC0
7F1F80
FF1F00
F83E00
F07C00
F0F800
F1F000
F3E000
F7E000
FFF000
FFF000
FEF800
FC7800
F87C00
F83E00
F03E00
F01F00
F01F80
F00F80
F007C0
F007E0
ENDCHAR
STARTCHAR 0199
ENCODING 409
SWIDTH 548 0
DWIDTH 16 0
BBX 14 21 2 0
BITMAP
3F00
7F00
FF00
F000
F000
F0F8
F1F0
F3E0
F3C0
F7C0
FF80
FF80
FF80
FFC0
FBC0
F1E0
F1E0
F0F0
F0F0
F078
F07C
ENDCHAR
STARTCHAR 019A
ENCODING 410
SWIDTH 274 0
DWIDTH 8 0
BBX 8 21 0 0
BITMAP
3C
3C
3C
3C
3C
3C
3C
3C
3C
FF
FF
FF
3C
3C
3C
3C
3C
3C
3C
3C
3C
ENDCHAR
STARTCHAR 019B
ENCODING 411
SWIDTH 548 0
DWIDTH 16 0
BBX 16 21 0 0
BITMAP
0F20
0FE0
07F0
1FC0
7F80
7BC0
63C0
07E0
07E0
07E0
0FF0
0FF0
1E78
1E78
1E78
3C3C
3C3C
3C3C
781E
781E
F80F
ENDCHAR
STARTCHAR 019C
ENCODING 412
SWIDTH 994 0
DWIDTH 29 0
BBX 25 21 2 0
BITMAP
F03C0F80
F03C0F80
F03C0F80
F03C0F80
F03C0F80
F03C0F80
F03C0F80
F03C0F80
F03C0F80
F03C0F80
F03C0F80
F03C0F80
F03C0F80
F03C0F80
F03E0F80
F87E0F80
F87E1F80
FFFFFF80
7FFFFF80
3FFFF780
1F87E780
ENDCHAR
STARTCHAR 019D
ENCODING 413
SWIDTH 720 0
DWIDTH 21 0
BBX 20 27 -1 -6
BITMAP
1F00F0
1F00F0
1F80F0
1F80F0
1FC0F0
1FE0F0
1FE0F0
1FF0F0
1EF0F0
1E78F0
1E7CF0
1E3CF0
1E3EF0
1E1EF0
1E0FF0
1E0FF0
1E07F0
1E07F0
1E03F0
1E01F0
1E01F0
1E0000
1E0000
1E0000
FE0000
FC0000
F80000
ENDCHAR
STARTCHAR 019E
ENCODING 414
SWIDTH 617 0
DWIDTH 18 0
BBX 14 22 2 -6
BITMAP
F3E0
F7F0
FFF8
FC78
F87C
F03C
F03C
F03C
F03C
F03C
F03C
F03C
F03C
F03C
F03C
F03C
003C
003C
003C
003C
003C
003C
ENDCHAR
STARTCHAR 019F
ENCODING 415
SWIDTH 788 0
DWIDTH 23 0
BBX 20 21 1 0
BITMAP
01FC00
0FFF00
1FFF80
3FFFC0
3F07E0
7C01E0
7801F0
F800F0
FFFFF0
FFFFF0
FFFFF0
FFFFF0
F800F0
7800F0
7C01F0
7C03E0
3F07E0
3FFFC0
1FFF80
0FFF00
01FC00
ENDCHAR
STARTCHAR 01A0
ENCODING 416
SWIDTH 857 0
DWIDTH 25 0
BBX 24 21 1 0
BITMAP
01FC0F
07FF0F
1FFF8F
3FFFCF
3F07E3
7C03E7
7C01F6
7800FE
F800F8
F800F0
F800F0
F800F0
F800F0
7800F0
7C01F0
7C03F0
3F07E0
3FFFC0
1FFF80
07FF00
01FC00
ENDCHAR
STARTCHAR 01A1
ENCODING 417
SWIDTH 720 0
DWIDTH 21 0
BBX 20 16 1 0
BITMAP
07E0F0
1FF8F0
3FFCF0
7C3EF0
781E70
F81E60
F01FE0
F00FC0
F00F80
F01F00
F81E00
781E00
7C3C00
3FFC00
1FF800
07E000
ENDCHAR
STARTCHAR 01A2
ENCODING 418
SWIDTH 891 0
DWIDTH 26 0
BBX 23 27 1 -6
BITMAP
01F80E
07FE3E
1FFFFE
3FFFFE
3F0F3E
7C0F3E
7C0F3E
780F3E
F80F3E
F80F3E
F80F3E
F80F3E
F80F3E
780F3E
7C0F3E
7C0F3E
3F0F3E
3FFF3E
1FFF3E
07FF3E
01FC3E
00003E
00003E
00003E
00003E
00003E
00003E
ENDCHAR
STARTCHAR 01A3
ENCODING 419
SWIDTH 754 0
DWIDTH 22 0
BBX 19 22 1 -6
BITMAP
07E1E0
1FFFE0
3FFFE0
7C79E0
7879E0
F879E0
F079E0
F079E0
F079E0
F079E0
F879E0
7879E0
7C79E0
3FF9E0
1FF9E0
07E1E0
0001E0
0001E0
0001E0
0001E0
0001E0
0001E0
ENDCHAR
STARTCHAR 01A4
ENCODING 420
SWIDTH 788 0
DWIDTH 23 0
BBX 21 21 0 0
BITMAP
1FFFC0
7FFFE0
7FFFF0
FFFFF8
F7C0F8
F7C078
77C078
67C078
07C0F8
07FFF8
07FFF0
07FFE0
07FF80
07C000
07C000
07C000
07C000
07C000
07C000
07C000
07C000
ENDCHAR
STARTCHAR 01A5
ENCODING 421
SWIDTH 617 0
DWIDTH 18 0
BBX 15 27 2 -6
BITMAP
3F00
7F00
FF00
F000
F000
F3E0
F7F0
FFF8
FC7C
F83C
F03C
F03E
F01E
F01E
F03E
F03C
F83C
FC7C
FFF8
FFF0
F3E0
F000
F000
F000
F000
F000
F000
ENDCHAR
STARTCHAR 01A6
ENCODING 422
SWIDTH 651 0
DWIDTH 19 0
BBX 17 26 2 -5
BITMAP
F00000
F00000
FFF000
FFFC00
FFFE00
FFFE00
F03F00
F01F00
F00F00
F00F00
F01F00
F03F00
FFFE00
FFFE00
FFFC00
FFF000
F1E000
F1F000
F0F800
F0F800
F07C00
007E00
003E00
001F00
001F80
000F80
ENDCHAR
STARTCHAR 01A7
ENCODING 423
SWIDTH 651 0
DWIDTH 19 0
BBX 17 21 1 0
BITMAP
07F800
1FFC00
3FFE00
3FFF00
7C0F00
780F80
000F00
001F00
01FF00
0FFE00
3FF800
7FE000
7E0000
780000
F80780
F80780
7C1F80
7FFF00
3FFF00
1FFE00
07F000
ENDCHAR
STARTCHAR 01A8
ENCODING 424
SWIDTH 548 0
DWIDTH 16 0
BBX 14 16 1 0
BITMAP
0FE0
3FF8
3FF8
7C3C
383C
003C
01FC
0FF8
3FE0
7F00
F800
F03C
787C
7FFC
3FF8
0FE0
ENDCHAR
STARTCHAR 01A9
ENCODING 425
SWIDTH 582 0
DWIDTH 17 0
BBX 15 21 1 0
BITMAP
7FFE
7FFE
7FFE
7FFE
7C00
3E00
1F00
0F80
0FC0
07E0
03E0
07C0
0F80
1F00
3E00
7C00
7C00
FFFE
FFFE
FFFE
FFFE
ENDCHAR
STARTCHAR 01AA
ENCODING 426
SWIDTH 342 0
DWIDTH 10 0
BBX 12 27 0 -6
BITMAP
3C00
7E00
4F00
CF00
4F00
7F00
3F00
0F00
0F00
0F00
0F00
0F00
0F00
0F00
0F00
0F00
0F00
0F00
0F00
0F00
0F00
0F00
0F80
07E0
07E0
07F0
03F0
ENDCHAR
STARTCHAR 01AB
ENCODING 427
SWIDTH 342 0
DWIDTH 10 0
BBX 9 27 0 -6
BITMAP
0400
1C00
3C00
3C00
3C00
FF80
FF80
FF80
3C00
3C00
3C00
3C00
3C00
3C00
3C00
3C00
3C00
3E00
1F80
1F80
0F80
0780
0780
0780
1F80
3F00
3E00
ENDCHAR
STARTCHAR 01AC
ENCODING 428
SWIDTH 617 0
DWIDTH 18 0
BBX 17 21 0 0
BITMAP
1FFF80
7FFF80
7FFF80
FFFF80
F1E000
E1E000
61E000
61E000
01E000
01E000
01E000
01E000
01E000
01E000
01E000
01E000
01E000
01E000
01E000
01E000
01E000
ENDCHAR
STARTCHAR 01AD
ENCODING 429
SWIDTH 342 0
DWIDTH 10 0
BBX 10 21 0 0
BITMAP
0FC0
1FC0
3FC0
3C00
3C00
FF80
FF80
FF80
3C00
3C00
3C00
3C00
3C00
3C00
3C00
3C00
3C00
3E00
3F80
1F80
0F80
ENDCHAR
STARTCHAR 01AE
ENCODING 430
SWIDTH 617 0
DWIDTH 18 0
BBX 16 27 1 -6
BITMAP
FFFF
FFFF
FFFF
FFFF
03C0
03C0
03C0
03C0
03C0
03C0
03C0
03C0
03C0
03C0
03C0
03C0
03C0
03C0
03C0
03C0
03C0
03C0
03C0
03F8
03F8
01F8
00F8
ENDCHAR
STARTCHAR 01AF
ENCODING 431
SWIDTH 822 0
DWIDTH 24 0
BBX 22 21 2 0
BITMAP
F00FBC
F00FBC
F00FBC
F00FBC
F00F8C
F00F8C
F00FB8
F00FF0
F00FE0
F00F80
F00F80
F00F80
F00F80
F00F80
F00F80
F80F00
7C1F00
7FFF00
3FFE00
1FFC00
07F000
ENDCHAR
STARTCHAR 01B0
ENCODING 432
SWIDTH 720 0
DWIDTH 21 0
BBX 19 16 2 0
BITMAP
F03DE0
F03DE0
F03DE0
F03DE0
F03C60
F03C60
F03DC0
F03F80
F03F00
F03C00
F07C00
F07C00
F8FC00
7FFC00
7FBC00
1F3C00
ENDCHAR
STARTCHAR 01B1
ENCODING 433
SWIDTH 788 0
DWIDTH 23 0
BBX 21 21 1 0
BITMAP
FFDFF8
FFDFF8
FFDFF8
FFDFF8
0F8780
1E03C0
3C01E0
3C00E0
7800F0
7800F0
7800F0
7800F8
7800F8
7800F0
7C01F0
7E03F0
3F07E0
3FFFE0
1FFFC0
07FF00
01FC00
ENDCHAR
STARTCHAR 01B2
ENCODING 434
SWIDTH 720 0
DWIDTH 21 0
BBX 17 21 2 0
BITMAP
F0FC00
F07E00
F07F00
F00F00
F00F80
F00F80
F00F80
F00F80
F00F80
F00F00
F00F00
F00F00
F00F00
F01F00
F81F00
F83E00
7C7E00
7FFC00
3FFC00
1FF800
07E000
ENDCHAR
STARTCHAR 01B3
ENCODING 435
SWIDTH 754 0
DWIDTH 22 0
BBX 22 21 0 0
BITMAP
F801E0
7C03F8
3C07FC
3E07FC
1E0F98
1F1F00
0F1F00
07BE00
07FC00
03FC00
03F800
01F000
00F000
00F000
00F000
00F000
00F000
00F000
00F000
00F000
00F000
ENDCHAR
STARTCHAR 01B4
ENCODING 436
SWIDTH 548 0
DWIDTH 16 0
BBX 20 27 0 -6
BITMAP
0001E0
0003F0
0007F0
0007F0
000F00
F80F00
780E00
781E00
7C1E00
3C3C00
3C3C00
3E3C00
1E7800
1E7800
0E7000
0FF000
0FF000
07E000
07E000
07E000
03C000
03C000
07C000
0F8000
7F8000
7F0000
7C0000
ENDCHAR
STARTCHAR 01B5
ENCODING 437
SWIDTH 617 0
DWIDTH 18 0
BBX 17 21 0 0
BITMAP
3FFF80
3FFF80
3FFF80
3FFF80
001F00
003E00
007C00
00F800
01F800
FFFF80
FFFF80
FFFF80
0F8000
1F8000
3F0000
3E0000
7C0000
FFFF80
FFFF80
FFFF80
FFFF80
ENDCHAR
STARTCHAR 01B6
ENCODING 438
SWIDTH 514 0
DWIDTH 15 0
BBX 14 16 0 0
BITMAP
7FF8
7FF8
7FF8
00F8
01F0
03E0
FFF8
FFF8
FFF8
1F00
3E00
3E00
7C00
FFFC
FFFC
FFFC
ENDCHAR
STARTCHAR 01B7
ENCODING 439
SWIDTH 617 0
DWIDTH 18 0
BBX 15 27 1 -6
BITMAP
FFFE
FFFE
FFFE
FFFE
003C
0078
00F0
01E0
03C0
0780
0FE0
0FF8
0FFC
007C
003E
001E
001E
001E
001E
001E
701E
F03E
FC7E
7FFC
3FF8
1FF0
07C0
ENDCHAR
STARTCHAR 01B8
ENCODING 440
SWIDTH 617 0
DWIDTH 18 0
BBX 16 27 1 -6
BITMAP
7FFF
7FFF
7FFF
7FFF
7C00
3E00
1F00
0F80
07C0
03E0
07F0
1FF0
3FF0
7E00
7800
7800
F000
F000
F000
F800
F80E
781F
7C3E
3FFE
3FFC
1FF8
07E0
ENDCHAR
STARTCHAR 01B9
ENCODING 441
SWIDTH 514 0
DWIDTH 15 0
BBX 14 22 1 -6
BITMAP
FFF0
FFF0
FFF0
7800
3C00
3E00
1F00
0F00
1F80
7F80
7C00
F000
F000
F000
F000
F000
F038
F07C
F878
7FF8
3FF0
0FC0
ENDCHAR
STARTCHAR 01BA
ENCODING 442
SWIDTH 514 0
DWIDTH 15 0
BBX 14 22 1 -6
BITMAP
7FF8
7FF8
7FF8
00F0
03E0
07C0
0FE0
0FF0
00F0
0078
0078
00F8
07F8
3FF0
7FE0
FF00
F800
F038
F87C
FFF8
7FF0
1FC0
ENDCHAR
STARTCHAR 01BB
ENCODING 443
SWIDTH 548 0
DWIDTH 16 0
BBX 14 21 1 0
BITMAP
0FC0
3FF0
3FF8
7FF8
787C
F03C
F03C
0078
0078
00F8
FFFC
FFFC
FFFC
0FC0
1F00
3E00
7C00
7FFC
FFFC
FFFC
FFFC
ENDCHAR
STARTCHAR 01BC
ENCODING 444
SWIDTH 548 0
DWIDTH 16 0
BBX 14 21 1 0
BITMAP
FFF8
FFF8
FFF8
FFF8
3E00
3E00
3E00
3FC0
3FF0
3FF8
3FFC
007C
003C
003C
F03C
F83C
7C7C
7FF8
3FF8
1FF0
0FC0
ENDCHAR
STARTCHAR 01BD
ENCODING 445
SWIDTH 480 0
DWIDTH 14 0
BBX 13 16 0 0
BITMAP
FFF0
FFF0
FFF0
3C00
3C00
3C00
3FE0
3FF0
3FF8
0078
0078
7078
7878
7FF8
3FF0
0FC0
ENDCHAR
STARTCHAR 01BE
ENCODING 446
SWIDTH 582 0
DWIDTH 17 0
BBX 16 21 0 0
BITMAP
0400
1C00
3C00
3C00
3C00
FF80
FF80
FF80
3C00
3E00
3F00
1FF0
0FFC
07FE
007F
001F
3C0F
3E1F
1FFE
0FFC
07F0
ENDCHAR
STARTCHAR 01BF
ENCODING 447
SWIDTH 617 0
DWIDTH 18 0
BBX 15 22 2 -6
BITMAP
F3E0
FFF0
FFF8
FC7C
F83C
F03C
F01E
F01E
F03E
F03C
F03C
F03C
F078
F0F8
F1F0
F3E0
F7C0
FF00
FC00
F800
F000
F000
ENDCHAR
STARTCHAR 01C0
ENCODING 448
SWIDTH 274 0
DWIDTH 8 0
BBX 3 21 3 0
BITMAP
E0
E0
E0
E0
E0
E0
E0
E0
E0
E0
E0
E0
E0
E0
E0
E0
E0
E0
E0
E0
E0
ENDCHAR
STARTCHAR 01C1
ENCODING 449
SWIDTH 480 0
DWIDTH 14 0
BBX 9 21 3 0
BITMAP
E380
E380
E380
E380
E380
E380
E380
E380
E380
E380
E380
E380
E380
E380
E380
E380
E380
E380
E380
E380
E380
ENDCHAR
STARTCHAR 01C2
ENCODING 450
SWIDTH 582 0
DWIDTH 17 0
BBX 15 21 1 0
BITMAP
0380
0380
0380
0380
0380
FFFE
FFFE
FFFE
FFFE
0380
0380
0380
FFFE
FFFE
FFFE
FFFE
0380
0380
0380
0380
0380
ENDCHAR
STARTCHAR 01C3
ENCODING 451
SWIDTH 342 0
DWIDTH 10 0
BBX 4 21 3 0
BITMAP
F0
F0
F0
F0
F0
F0
F0
F0
F0
E0
E0
E0
E0
E0
60
00
00
F0
F0
F0
F0
ENDCHAR
STARTCHAR 01C4
ENCODING 452
SWIDTH 1337 0
DWIDTH 39 0
BBX 36 27 2 0
BITMAP
000001E700
000000EF00
0000007E00
0000003C00
0000000000
0000000000
FFF007FFF0
FFFC07FFF0
FFFE07FFF0
FFFF07FFE0
F01F0003E0
F00F8007C0
F007800F80
F007801F00
F007803E00
F007803C00
F007807C00
F00780F800
F00781F000
F00783E000
F00787C000
F00F87C000
F01F0F8000
FFFF1FFFF0
FFFE1FFFF0
FFFC1FFFF0
FFF01FFFF0
ENDCHAR
STARTCHAR 01C5
ENCODING 453
SWIDTH 1200 0
DWIDTH 35 0
BBX 33 22 2 0
BITMAP
000003CE00
FFF001DE00
FFFC00FC00
FFFE007800
FFFF000000
F01F000000
F00F8FFF00
F0078FFF00
F0078FFF00
F007801F00
F007803E00
F007807E00
F00780FC00
F00780F800
F00781F000
F00783F000
F00F87E000
F01F07C000
FFFF0F8000
FFFE1FFF80
FFFC1FFF80
FFF01FFF80
ENDCHAR
STARTCHAR 01C6
ENCODING 454
SWIDTH 1097 0
DWIDTH 32 0
BBX 31 22 1 0
BITMAP
00001E70
001E0EF0
001E07E0
001E03C0
001E0000
001E0000
0F9E3FFC
3FDE3FFC
3FFE3FFC
7C7E007C
783E00F8
F81E01F8
F01E03F0
F01E03E0
F01E07C0
F01E0FC0
F81E1F80
783E1F00
7C7E3E00
3FFE7FFE
1FFE7FFE
0F9E7FFE
ENDCHAR
STARTCHAR 01C7
ENCODING 455
SWIDTH 1165 0
DWIDTH 34 0
BBX 30 21 2 0
BITMAP
F000003C
F000003C
F000003C
F000003C
F000003C
F000003C
F000003C
F000003C
F000003C
F000003C
F000003C
F000003C
F000003C
F000F03C
F000787C
F000787C
F0007C78
FFFE7FF8
FFFE3FF8
FFFE1FF0
FFFE0FC0
ENDCHAR
STARTCHAR 01C8
ENCODING 456
SWIDTH 891 0
DWIDTH 26 0
BBX 22 27 2 -6
BITMAP
F0003C
F0003C
F0003C
F00000
F00000
F0003C
F0003C
F0003C
F0003C
F0003C
F0003C
F0003C
F0003C
F0003C
F0003C
F0003C
F0003C
FFFE3C
FFFE3C
FFFE3C
FFFE3C
00003C
00003C
00003C
0001FC
0001F8
0001F0
ENDCHAR
STARTCHAR 01C9
ENCODING 457
SWIDTH 548 0
DWIDTH 16 0
BBX 12 27 2 -6
BITMAP
F0F0
F0F0
F0F0
F000
F000
F0F0
F0F0
F0F0
F0F0
F0F0
F0F0
F0F0
F0F0
F0F0
F0F0
F0F0
F0F0
F0F0
F0F0
F0F0
F0F0
00F0
00F0
00F0
07F0
07E0
07C0
ENDCHAR
STARTCHAR 01CA
ENCODING 458
SWIDTH 1268 0
DWIDTH 37 0
BBX 33 21 2 0
BITMAP
F807800780
F807800780
FC07800780
FC07800780
FE07800780
FF07800780
FF07800780
FF87800780
F787800780
F3C7800780
F3E7800780
F1E7800780
F1F7800780
F0F79E0780
F07F8F0F80
F07F8F0F80
F03F8F8F00
F03F8FFF00
F01F87FF00
F00F83FE00
F00F81F800
ENDCHAR
STARTCHAR 01CB
ENCODING 459
SWIDTH 994 0
DWIDTH 29 0
BBX 25 27 2 -6
BITMAP
F8078780
F8078780
FC078780
FC078000
FE078000
FF078780
FF078780
FF878780
F7878780
F3C78780
F3E78780
F1E78780
F1F78780
F0F78780
F07F8780
F07F8780
F03F8780
F03F8780
F01F8780
F00F8780
F00F8780
00000780
00000780
00000780
00003F80
00003F00
00003E00
ENDCHAR
STARTCHAR 01CC
ENCODING 460
SWIDTH 891 0
DWIDTH 26 0
BBX 22 27 2 -6
BITMAP
00003C
00003C
00003C
000000
000000
F3E03C
FFF83C
FFF83C
FC7C3C
F87C3C
F03C3C
F03C3C
F03C3C
F03C3C
F03C3C
F03C3C
F03C3C
F03C3C
F03C3C
F03C3C
F03C3C
00003C
00003C
00003C
0001FC
0001F8
0001F0
ENDCHAR
STARTCHAR 01CD
ENCODING 461
SWIDTH 720 0
DWIDTH 21 0
BBX 21 27 0 0
BITMAP
079C00
03BC00
01F800
00F000
000000
000000
00F800
01F800
01FC00
01FC00
03FC00
03DE00
039E00
079E00
078F00
0F8F00
0F0F80
0F0780
1F0780
1FFFC0
3FFFC0
3FFFE0
3C01E0
7C01E0
7801F0
7800F0
F800F8
ENDCHAR
STARTCHAR 01CE
ENCODING 462
SWIDTH 548 0
DWIDTH 16 0
BBX 14 22 1 0
BITMAP
3CE0
1DE0
0FC0
0780
0000
0000
0FC0
3FF0
7FF8
7878
3078
0078
00F8
1FF8
7F78
7878
F078
F078
F8F8
FFF8
7FBC
1F3C
ENDCHAR
STARTCHAR 01CF
ENCODING 463
SWIDTH 274 0
DWIDTH 8 0
BBX 9 27 -1 0
BITMAP
F380
7780
3F00
1E00
0000
0000
1E00
1E00
1E00
1E00
1E00
1E00
1E00
1E00
1E00
1E00
1E00
1E00
1E00
1E00
1E00
1E00
1E00
1E00
1E00
1E00
1E00
ENDCHAR
STARTCHAR 01D0
ENCODING 464
SWIDTH 274 0
DWIDTH 8 0
BBX 9 22 -1 0
BITMAP
F380
7780
3F00
1E00
0000
0000
1E00
1E00
1E00
1E00
1E00
1E00
1E00
1E00
1E00
1E00
1E00
1E00
1E00
1E00
1E00
1E00
ENDCHAR
STARTCHAR 01D1
ENCODING 465
SWIDTH 788 0
DWIDTH 23 0
BBX 20 27 1 0
BITMAP
079C00
03BC00
01F800
00F000
000000
000000
01FC00
07FF00
1FFF80
3FFFC0
3F07E0
7C03E0
7801F0
7800F0
F800F0
F800F0
F800F0
F800F0
F800F0
7800F0
7C01F0
7C03E0
3F07E0
3FFFC0
1FFF80
07FF00
01FC00
ENDCHAR
STARTCHAR 01D2
ENCODING 466
SWIDTH 617 0
DWIDTH 18 0
BBX 16 22 1 0
BITMAP
1E70
0EF0
07E0
03C0
0000
0000
07E0
1FF8
3FFC
7C3C
781E
F81E
F01F
F00F
F00F
F01F
F81E
781E
7C3C
3FFC
1FF8
07E0
ENDCHAR
STARTCHAR 01D3
ENCODING 467
SWIDTH 720 0
DWIDTH 21 0
BBX 17 27 2 0
BITMAP
0F3800
077800
03F000
01E000
000000
000000
F00F80
F00F80
F00F80
F00F80
F00F80
F00F80
F00F80
F00F80
F00F80
F00F80
F00F80
F00F80
F00F80
F00F80
F00F80
F80F00
7C1F00
7FFF00
3FFE00
1FFC00
07F000
ENDCHAR
STARTCHAR 01D4
ENCODING 468
SWIDTH 617 0
DWIDTH 18 0
BBX 14 22 2 0
BITMAP
3CE0
1DE0
0FC0
0780
0000
0000
F03C
F03C
F03C
F03C
F03C
F03C
F03C
F03C
F03C
F03C
F07C
F07C
F8FC
7FFC
7FBC
1F3C
ENDCHAR
STARTCHAR 01D5
ENCODING 469
SWIDTH 720 0
DWIDTH 21 0
BBX 17 27 2 0
BITMAP
0FF000
0FF000
000000
0C3000
0C3000
000000
F00F80
F00F80
F00F80
F00F80
F00F80
F00F80
F00F80
F00F80
F00F80
F00F80
F00F80
F00F80
F00F80
F00F80
F00F80
F80F00
7C1F00
7FFF00
3FFE00
1FFC00
07F000
ENDCHAR
STARTCHAR 01D6
ENCODING 470
SWIDTH 617 0
DWIDTH 18 0
BBX 14 27 2 0
BITMAP
3FE0
3FE0
3FE0
0000
0000
0000
38F0
38F0
38F0
0000
0000
F03C
F03C
F03C
F03C
F03C
F03C
F03C
F03C
F03C
F03C
F07C
F07C
F8FC
7FFC
7FBC
1F3C
ENDCHAR
STARTCHAR 01D7
ENCODING 471
SWIDTH 720 0
DWIDTH 21 0
BBX 17 27 2 0
BITMAP
00E000
01C000
018000
0C3000
0C3000
000000
F00F80
F00F80
F00F80
F00F80
F00F80
F00F80
F00F80
F00F80
F00F80
F00F80
F00F80
F00F80
F00F80
F00F80
F00F80
F80F00
7C1F00
7FFF00
3FFE00
1FFC00
07F000
ENDCHAR
STARTCHAR 01D8
ENCODING 472
SWIDTH 617 0
DWIDTH 18 0
BBX 14 26 2 0
BITMAP
03E0
03C0
0780
0700
0000
38F0
38F0
38F0
0000
0000
F03C
F03C
F03C
F03C
F03C
F03C
F03C
F03C
F03C
F03C
F07C
F07C
F8FC
7FFC
7FBC
1F3C
ENDCHAR
STARTCHAR 01D9
ENCODING 473
SWIDTH 720 0
DWIDTH 21 0
BBX 17 27 2 0
BITMAP
066000
07E000
03C000
0C3000
0C3000
000000
F00F80
F00F80
F00F80
F00F80
F00F80
F00F80
F00F80
F00F80
F00F80
F00F80
F00F80
F00F80
F00F80
F00F80
F00F80
F80F00
7C1F00
7FFF00
3FFE00
1FFC00
07F000
ENDCHAR
STARTCHAR 01DA
ENCODING 474
SWIDTH 617 0
DWIDTH 18 0
BBX 14 26 2 0
BITMAP
3CE0
1DE0
0FC0
0780
0000
38F0
38F0
38F0
0000
0000
F03C
F03C
F03C
F03C
F03C
F03C
F03C
F03C
F03C
F03C
F07C
F07C
F8FC
7FFC
7FBC
1F3C
ENDCHAR
STARTCHAR 01DB
ENCODING 475
SWIDTH 720 0
DWIDTH 21 0
BBX 17 27 2 0
BITMAP
070000
038000
018000
0C3000
0C3000
000000
F00F80
F00F80
F00F80
F00F80
F00F80
F00F80
F00F80
F00F80
F00F80
F00F80
F00F80
F00F80
F00F80
F00F80
F00F80
F80F00
7C1F00
7FFF00
3FFE00
1FFC00
07F000
ENDCHAR
STARTCHAR 01DC
ENCODING 476
SWIDTH 617 0
DWIDTH 18 0
BBX 14 26 2 0
BITMAP
1E00
0F00
0700
0380
0000
38F0
38F0
38F0
0000
0000
F03C
F03C
F03C
F03C
F03C
F03C
F03C
F03C
F03C
F03C
F07C
F07C
F8FC
7FFC
7FBC
1F3C
ENDCHAR
STARTCHAR 01DD
ENCODING 477
SWIDTH 548 0
DWIDTH 16 0
BBX 14 16 1 0
BITMAP
0FC0
3FF0
7FF8
7878
787C
003C
003C
FFFC
FFFC
FFFC
F03C
703C
7878
3FF8
1FF0
0FC0
ENDCHAR
STARTCHAR 01DE
ENCODING 478
SWIDTH 720 0
DWIDTH 21 0
BBX 21 27 0 0
BITMAP
03FC00
03FC00
000000
030C00
030C00
000000
00F800
01F800
01FC00
01FC00
03FC00
03DE00
039E00
079E00
078F00
0F8F00
0F0F80
0F0780
1F0780
1FFFC0
3FFFC0
3FFFE0
3C01E0
7C01E0
7801F0
7800F0
F800F8
ENDCHAR
STARTCHAR 01DF
ENCODING 479
SWIDTH 548 0
DWIDTH 16 0
BBX 14 26 1 0
BITMAP
3FE0
3FE0
3FE0
0000
0000
38F0
38F0
38F0
0000
0000
0FC0
3FF0
7FF8
7878
3078
0078
00F8
1FF8
7F78
7878
F078
F078
F8F8
FFF8
7FBC
1F3C
ENDCHAR
STARTCHAR 01E0
ENCODING 480
SWIDTH 720 0
DWIDTH 21 0
BBX 21 27 0 0
BITMAP
03FC00
03FC00
000000
006000
006000
000000
00F800
01F800
01FC00
01FC00
03FC00
03DE00
039E00
079E00
078F00
0F8F00
0F0F80
0F0780
1F0780
1FFFC0
3FFFC0
3FFFE0
3C01E0
7C01E0
7801F0
7800F0
F800F8
ENDCHAR
STARTCHAR 01E1
ENCODING 481
SWIDTH 548 0
DWIDTH 16 0
BBX 14 26 1 0
BITMAP
3FE0
3FE0
3FE0
0000
0780
0780
0780
0780
0000
0000
0FC0
3FF0
7FF8
7878
3078
0078
00F8
1FF8
7F78
7878
F078
F078
F8F8
FFF8
7FBC
1F3C
ENDCHAR
STARTCHAR 01E2
ENCODING 482
SWIDTH 994 0
DWIDTH 29 0
BBX 29 26 -1 0
BITMAP
0003FE00
0003FE00
0003FE00
00000000
00000000
007FFFF0
007FFFF0
00FFFFF0
00F3FFF0
01F3C000
01E3C000
03E3C000
03C3C000
03C3FFE0
0783FFE0
0783FFE0
0F03FFE0
0FFFC000
1FFFC000
1FFFC000
3FFFC000
3C03C000
7C03FFF8
7803FFF8
F803FFF8
F803FFF8
ENDCHAR
STARTCHAR 01E3
ENCODING 483
SWIDTH 891 0
DWIDTH 26 0
BBX 23 21 1 0
BITMAP
01FF00
01FF00
01FF00
000000
000000
0FE3E0
3FFFF8
7FFFFC
787E3C
307C1E
007C1E
00FFFE
1FFFFE
3F7FFE
787800
F07C00
F07C00
F8FE18
7FFFFE
7FCFFC
1F03F0
ENDCHAR
STARTCHAR 01E4
ENCODING 484
SWIDTH 788 0
DWIDTH 23 0
BBX 21 21 1 0
BITMAP
01FC00
07FF80
0FFFC0
1FFFC0
3F07E0
7C01E0
7C01C0
780000
F80000
F81FF0
F81FF0
F81FF0
7800F0
781FF8
7C1FF8
7C01F0
3F07F0
1FFFF0
0FFFE0
07FF80
01FE00
ENDCHAR
STARTCHAR 01E5
ENCODING 485
SWIDTH 617 0
DWIDTH 18 0
BBX 16 22 1 -6
BITMAP
0F9E
3FDE
3FFE
7C7E
783E
F01E
F01E
F01E
F01E
F01E
783E
7C7E
7FFE
3FDE
0F9E
001E
FFFF
001E
7C3C
7FFC
3FF8
0FE0
ENDCHAR
STARTCHAR 01E6
ENCODING 486
SWIDTH 788 0
DWIDTH 23 0
BBX 20 27 1 0
BITMAP
03CE00
01DE00
00FC00
007800
000000
000000
01FC00
07FF80
0FFFC0
1FFFE0
3F07E0
7C03E0
7C0180
780000
F80000
F80000
F81FF0
F81FF0
781FF0
781FF0
7C00F0
7E00F0
3F03F0
1FFFF0
0FFFE0
07FF80
01FC00
ENDCHAR
STARTCHAR 01E7
ENCODING 487
SWIDTH 617 0
DWIDTH 18 0
BBX 15 28 1 -6
BITMAP
3CE0
1DE0
0FC0
0780
0000
0000
0F9E
1FDE
3FFE
7C7E
783E
F81E
F01E
F01E
F01E
F01E
F81E
783E
7C7E
3FFE
1FDE
0F9E
001E
601E
783C
7FFC
3FF8
0FE0
ENDCHAR
STARTCHAR 01E8
ENCODING 488
SWIDTH 720 0
DWIDTH 21 0
BBX 19 27 2 0
BITMAP
1E7000
0EF000
07E000
03C000
000000
000000
F00FC0
F01F80
F03F00
F07E00
F07C00
F0F800
F1F000
F3E000
F7E000
FFE000
FFF000
FFF800
FEF800
FC7C00
F83E00
F03E00
F01F00
F01F80
F00F80
F007C0
F007E0
ENDCHAR
STARTCHAR 01E9
ENCODING 489
SWIDTH 548 0
DWIDTH 16 0
BBX 14 27 2 0
BITMAP
F380
7780
3F00
1E00
0000
0000
F000
F000
F000
F000
F000
F0F8
F1F0
F3E0
F3C0
F7C0
FF80
FF80
FF80
FFC0
FBC0
F1E0
F1E0
F0F0
F0F0
F078
F07C
ENDCHAR
STARTCHAR 01EA
ENCODING 490
SWIDTH 788 0
DWIDTH 23 0
BBX 20 27 1 -6
BITMAP
01FC00
07FF00
1FFF80
3FFFC0
3F07E0
7C03E0
7801F0
7800F0
F800F0
F800F0
F800F0
F800F0
F800F0
7800F0
7C01F0
7C03E0
3F07E0
3FFFC0
1FFF80
07FF00
01FC00
003800
007000
007000
007000
007C00
003C00
ENDCHAR
STARTCHAR 01EB
ENCODING 491
SWIDTH 617 0
DWIDTH 18 0
BBX 16 22 1 -6
BITMAP
07E0
1FF8
3FFC
7C3C
781E
F81E
F01F
F00F
F00F
F01F
F81E
781E
7C3C
3FFC
1FF8
07E0
01C0
0380
0380
0380
03E0
01E0
ENDCHAR
STARTCHAR 01EC
ENCODING 492
SWIDTH 788 0
DWIDTH 23 0
BBX 20 32 1 -6
BITMAP
03FE00
03FE00
03FE00
000000
000000
01FC00
07FF00
1FFF80
3FFFC0
3F07E0
7C03E0
7801F0
7800F0
F800F0
F800F0
F800F0
F800F0
F800F0
7800F0
7C01F0
7C03E0
3F07E0
3FFFC0
1FFF80
07FF00
01FC00
003800
007000
007000
007000
007C00
003C00
ENDCHAR
STARTCHAR 01ED
ENCODING 493
SWIDTH 617 0
DWIDTH 18 0
BBX 16 27 1 -6
BITMAP
1FF0
1FF0
1FF0
0000
0000
07E0
1FF8
3FFC
7C3C
781E
F81E
F01F
F00F
F00F
F01F
F81E
781E
7C3C
3FFC
1FF8
07E0
01C0
0380
0380
0380
03E0
01E0
ENDCHAR
STARTCHAR 01EE
ENCODING 494
SWIDTH 617 0
DWIDTH 18 0
BBX 15 33 1 -6
BITMAP
1E70
0EF0
07E0
03C0
0000
0000
FFFE
FFFE
FFFE
FFFE
003C
0078
00F0
01E0
03C0
0780
0FE0
0FF8
0FFC
007C
003E
001E
001E
001E
001E
001E
701E
F03E
FC7E
7FFC
3FF8
1FF0
07C0
ENDCHAR
STARTCHAR 01EF
ENCODING 495
SWIDTH 514 0
DWIDTH 15 0
BBX 14 28 1 -6
BITMAP
3CE0
1DE0
0FC0
0780
0000
0000
7FF8
7FF8
7FF8
00F0
01F0
03E0
03C0
0780
0FC0
0FF0
00F8
0078
0078
003C
003C
007C
E078
F078
F8F8
7FF0
3FE0
1F80
ENDCHAR
STARTCHAR 01F0
ENCODING 496
SWIDTH 274 0
DWIDTH 8 0
BBX 9 28 -1 -6
BITMAP
F380
7780
3F00
1E00
0000
0000
1E00
1E00
1E00
1E00
1E00
1E00
1E00
1E00
1E00
1E00
1E00
1E00
1E00
1E00
1E00
1E00
1E00
1E00
1E00
FE00
FC00
F800
ENDCHAR
STARTCHAR 01F1
ENCODING 497
SWIDTH 1337 0
DWIDTH 39 0
BBX 36 21 2 0
BITMAP
FFF007FFF0
FFFC07FFF0
FFFE07FFF0
FFFF07FFE0
F01F0003E0
F00F8007C0
F007800F80
F007801F00
F007803E00
F007803C00
F007807C00
F00780F800
F00781F000
F00783E000
F00787C000
F00F87C000
F01F0F8000
FFFF1FFFF0
FFFE1FFFF0
FFFC1FFFF0
FFF01FFFF0
ENDCHAR
STARTCHAR 01F2
ENCODING 498
SWIDTH 1200 0
DWIDTH 35 0
BBX 33 21 2 0
BITMAP
FFF0000000
FFFC000000
FFFE000000
FFFF000000
F01F000000
F00F8FFF00
F0078FFF00
F0078FFF00
F007801F00
F007803E00
F007807E00
F00780FC00
F00780F800
F00781F000
F00783F000
F00F87E000
F01F07C000
FFFF0F8000
FFFE1FFF80
FFFC1FFF80
FFF01FFF80
ENDCHAR
STARTCHAR 01F3
ENCODING 499
SWIDTH 1097 0
DWIDTH 32 0
BBX 31 21 1 0
BITMAP
001E0000
001E0000
001E0000
001E0000
001E0000
0F9E3FFC
3FDE3FFC
3FFE3FFC
7C7E007C
783E00F8
F81E01F8
F01E03F0
F01E03E0
F01E07C0
F01E0FC0
F81E1F80
783E1F00
7C7E3E00
3FFE7FFE
1FFE7FFE
0F9E7FFE
ENDCHAR
STARTCHAR 01F4
ENCODING 500
SWIDTH 788 0
DWIDTH 23 0
BBX 20 27 1 0
BITMAP
003E00
003C00
007800
007000
000000
000000
01FC00
07FF80
0FFFC0
1FFFE0
3F07E0
7C03E0
7C0180
780000
F80000
F80000
F81FF0
F81FF0
781FF0
781FF0
7C00F0
7E00F0
3F03F0
1FFFF0
0FFFE0
07FF80
01FC00
ENDCHAR
STARTCHAR 01F5
ENCODING 501
SWIDTH 617 0
DWIDTH 18 0
BBX 15 28 1 -6
BITMAP
01F0
01E0
03C0
0380
0000
0000
0F9E
1FDE
3FFE
7C7E
783E
F81E
F01E
F01E
F01E
F01E
F81E
783E
7C7E
3FFE
1FDE
0F9E
001E
601E
783C
7FFC
3FF8
0FE0
ENDCHAR
STARTCHAR 01F6
ENCODING 502
SWIDTH 1028 0
DWIDTH 30 0
BBX 26 21 2 0
BITMAP
F0078000
F0078000
F0078000
F0078000
F0078000
F00783C0
F00783C0
F00783C0
FFFF83C0
FFFF83C0
FFFF83C0
FFFF83C0
F00783C0
F00783C0
F00783C0
F00783C0
F00783C0
F007C780
F003FF80
F003FF00
F000FC00
ENDCHAR
STARTCHAR 01F7
ENCODING 503
SWIDTH 651 0
DWIDTH 19 0
BBX 16 27 2 -6
BITMAP
F1F0
F7F8
FFFC
FFFE
FC3E
F81F
F81F
F00F
F00F
F01F
F01F
F01E
F01E
F03E
F03C
F07C
F078
F0F8
F1F0
F3E0
F7C0
FF80
FF00
FE00
F800
F000
F000
ENDCHAR
STARTCHAR 01F8
ENCODING 504
SWIDTH 720 0
DWIDTH 21 0
BBX 17 27 2 0
BITMAP
0F0000
078000
038000
01C000
000000
000000
F80780
F80780
FC0780
FC0780
FE0780
FF0780
FF0780
FF8780
F78780
F3C780
F3E780
F1E780
F1F780
F0F780
F07F80
F07F80
F03F80
F03F80
F01F80
F00F80
F00F80
ENDCHAR
STARTCHAR 01F9
ENCODING 505
SWIDTH 617 0
DWIDTH 18 0
BBX 14 22 2 0
BITMAP
1E00
0F00
0700
0380
0000
0000
F3E0
FFF8
FFF8
FC7C
F87C
F03C
F03C
F03C
F03C
F03C
F03C
F03C
F03C
F03C
F03C
F03C
ENDCHAR
STARTCHAR 01FA
ENCODING 506
SWIDTH 720 0
DWIDTH 21 0
BBX 21 29 0 0
BITMAP
003E00
003C00
007800
007000
00E000
01F000
019800
019800
01F800
01F800
01FC00
01FC00
03FC00
03DE00
039E00
079E00
078F00
0F8F00
0F0F80
0F0780
1F0780
1FFFC0
3FFFC0
3FFFE0
3C01E0
7C01E0
7801F0
7800F0
F800F8
ENDCHAR
STARTCHAR 01FB
ENCODING 507
SWIDTH 548 0
DWIDTH 16 0
BBX 14 28 1 0
BITMAP
03E0
03C0
0780
0700
0000
0700
0F80
0CC0
0CC0
0F80
0700
0000
0FC0
3FF0
7FF8
7878
3078
0078
00F8
1FF8
7F78
7878
F078
F078
F8F8
FFF8
7FBC
1F3C
ENDCHAR
STARTCHAR 01FC
ENCODING 508
SWIDTH 994 0
DWIDTH 29 0
BBX 29 27 -1 0
BITMAP
0001F000
0001E000
0003C000
00038000
00000000
00000000
007FFFF0
007FFFF0
00FFFFF0
00F3FFF0
01F3C000
01E3C000
03E3C000
03C3C000
03C3FFE0
0783FFE0
0783FFE0
0F03FFE0
0FFFC000
1FFFC000
1FFFC000
3FFFC000
3C03C000
7C03FFF8
7803FFF8
F803FFF8
F803FFF8
ENDCHAR
STARTCHAR 01FD
ENCODING 509
SWIDTH 891 0
DWIDTH 26 0
BBX 23 22 1 0
BITMAP
001F00
001E00
003C00
003800
000000
000000
0FE3E0
3FFFF8
7FFFFC
787E3C
307C1E
007C1E
00FFFE
1FFFFE
3F7FFE
787800
F07C00
F07C00
F8FE18
7FFFFE
7FCFFC
1F03F0
ENDCHAR
STARTCHAR 01FE
ENCODING 510
SWIDTH 788 0
DWIDTH 23 0
BBX 21 27 1 0
BITMAP
007C00
007800
00F000
00E000
000000
000000
01FC30
07FF78
1FFFF0
3FFFE0
3F07E0
7C07E0
780FF0
781EF0
F83CF0
F878F0
F8F0F0
F9E0F0
F9C0F0
7B80F0
7F01F0
7E03F0
3F07E0
3FFFC0
7FFF80
FFFF00
61FC00
ENDCHAR
STARTCHAR 01FF
ENCODING 511
SWIDTH 617 0
DWIDTH 18 0
BBX 16 22 1 0
BITMAP
01F0
01E0
03C0
0380
0000
0000
07E6
1FFE
3FFE
7C3C
787E
787E
F0EF
F1CF
F38F
F70F
7E1E
7C1E
7C3E
3FFC
FFF8
67E0
ENDCHAR
STARTCHAR 0200
ENCODING 512
SWIDTH 720 0
DWIDTH 21 0
BBX 21 27 0 0
BITMAP
0F7800
073800
039C00
038C00
000000
000000
00F800
01F800
01FC00
01FC00
03FC00
03DE00
039E00
079E00
078F00
0F8F00
0F0F80
0F0780
1F0780
1FFFC0
3FFFC0
3FFFE0
3C01E0
7C01E0
7801F0
7800F0
F800F8
ENDCHAR
STARTCHAR 0201
ENCODING 513
SWIDTH 548 0
DWIDTH 16 0
BBX 14 22 1 0
BITMAP
7BC0
39C0
1CE0
1C60
0000
0000
0FC0
3FF0
7FF8
7878
3078
0078
00F8
1FF8
7F78
7878
F078
F078
F8F8
FFF8
7FBC
1F3C
ENDCHAR
STARTCHAR 0202
ENCODING 514
SWIDTH 720 0
DWIDTH 21 0
BBX 21 27 0 0
BITMAP
00F000
01F800
030C00
030C00
000000
000000
00F800
01F800
01FC00
01FC00
03FC00
03DE00
039E00
079E00
078F00
0F8F00
0F0F80
0F0780
1F0780
1FFFC0
3FFFC0
3FFFE0
3C01E0
7C01E0
7801F0
7800F0
F800F8
ENDCHAR
STARTCHAR 0203
ENCODING 515
SWIDTH 548 0
DWIDTH 16 0
BBX 14 22 1 0
BITMAP
0780
0FC0
1860
1860
0000
0000
0FC0
3FF0
7FF8
7878
3078
0078
00F8
1FF8
7F78
7878
F078
F078
F8F8
FFF8
7FBC
1F3C
ENDCHAR
STARTCHAR 0204
ENCODING 516
SWIDTH 651 0
DWIDTH 19 0
BBX 16 27 2 0
BITMAP
3DE0
1CE0
0E70
0E30
0000
0000
FFFF
FFFF
FFFF
FFFF
F000
F000
F000
F000
FFFE
FFFE
FFFE
FFFE
F000
F000
F000
F000
F000
FFFF
FFFF
FFFF
FFFF
ENDCHAR
STARTCHAR 0205
ENCODING 517
SWIDTH 548 0
DWIDTH 16 0
BBX 14 22 1 0
BITMAP
7BC0
39C0
1CE0
1C60
0000
0000
0FC0
1FE0
3FF0
7878
F038
F03C
FFFC
FFFC
FFFC
F000
F000
F800
7C70
7FF8
3FF8
0FE0
ENDCHAR
STARTCHAR 0206
ENCODING 518
SWIDTH 651 0
DWIDTH 19 0
BBX 16 27 2 0
BITMAP
03C0
07E0
0C30
0C30
0000
0000
FFFF
FFFF
FFFF
FFFF
F000
F000
F000
F000
FFFE
FFFE
FFFE
FFFE
F000
F000
F000
F000
F000
FFFF
FFFF
FFFF
FFFF
ENDCHAR
STARTCHAR 0207
ENCODING 519
SWIDTH 548 0
DWIDTH 16 0
BBX 14 22 1 0
BITMAP
0780
0FC0
1860
1860
0000
0000
0FC0
1FE0
3FF0
7878
F038
F03C
FFFC
FFFC
FFFC
F000
F000
F800
7C70
7FF8
3FF8
0FE0
ENDCHAR
STARTCHAR 0208
ENCODING 520
SWIDTH 274 0
DWIDTH 8 0
BBX 10 27 -2 0
BITMAP
F780
7380
39C0
38C0
0000
0000
0F00
0F00
0F00
0F00
0F00
0F00
0F00
0F00
0F00
0F00
0F00
0F00
0F00
0F00
0F00
0F00
0F00
0F00
0F00
0F00
0F00
ENDCHAR
STARTCHAR 0209
ENCODING 521
SWIDTH 274 0
DWIDTH 8 0
BBX 10 22 -2 0
BITMAP
F780
7380
39C0
38C0
0000
0000
0F00
0F00
0F00
0F00
0F00
0F00
0F00
0F00
0F00
0F00
0F00
0F00
0F00
0F00
0F00
0F00
ENDCHAR
STARTCHAR 020A
ENCODING 522
SWIDTH 274 0
DWIDTH 8 0
BBX 8 27 0 0
BITMAP
3C
7E
C3
C3
00
00
3C
3C
3C
3C
3C
3C
3C
3C
3C
3C
3C
3C
3C
3C
3C
3C
3C
3C
3C
3C
3C
ENDCHAR
STARTCHAR 020B
ENCODING 523
SWIDTH 274 0
DWIDTH 8 0
BBX 8 22 0 0
BITMAP
3C
7E
C3
C3
00
00
3C
3C
3C
3C
3C
3C
3C
3C
3C
3C
3C
3C
3C
3C
3C
3C
ENDCHAR
STARTCHAR 020C
ENCODING 524
SWIDTH 788 0
DWIDTH 23 0
BBX 20 27 1 0
BITMAP
0F7800
073800
039C00
038C00
000000
000000
01FC00
07FF00
1FFF80
3FFFC0
3F07E0
7C03E0
7801F0
7800F0
F800F0
F800F0
F800F0
F800F0
F800F0
7800F0
7C01F0
7C03E0
3F07E0
3FFFC0
1FFF80
07FF00
01FC00
ENDCHAR
STARTCHAR 020D
ENCODING 525
SWIDTH 617 0
DWIDTH 18 0
BBX 16 22 1 0
BITMAP
7BC0
39C0
1CE0
1C60
0000
0000
07E0
1FF8
3FFC
7C3C
781E
F81E
F01F
F00F
F00F
F01F
F81E
781E
7C3C
3FFC
1FF8
07E0
ENDCHAR
STARTCHAR 020E
ENCODING 526
SWIDTH 788 0
DWIDTH 23 0
BBX 20 27 1 0
BITMAP
00F000
01F800
030C00
030C00
000000
000000
01FC00
07FF00
1FFF80
3FFFC0
3F07E0
7C03E0
7801F0
7800F0
F800F0
F800F0
F800F0
F800F0
F800F0
7800F0
7C01F0
7C03E0
3F07E0
3FFFC0
1FFF80
07FF00
01FC00
ENDCHAR
STARTCHAR 020F
ENCODING 527
SWIDTH 617 0
DWIDTH 18 0
BBX 16 22 1 0
BITMAP
03C0
07E0
0C30
0C30
0000
0000
07E0
1FF8
3FFC
7C3C
781E
F81E
F01F
F00F
F00F
F01F
F81E
781E
7C3C
3FFC
1FF8
07E0
ENDCHAR
STARTCHAR 0210
ENCODING 528
SWIDTH 720 0
DWIDTH 21 0
BBX 18 27 2 0
BITMAP
3DE000
1CE000
0E7000
0E3000
000000
000000
FFFC00
FFFE00
FFFF00
FFFF80
F00F80
F00780
F00780
F00F80
FFFF00
FFFF00
FFFE00
FFF000
F0F800
F07C00
F03E00
F03E00
F01F00
F01F80
F00F80
F007C0
F007C0
ENDCHAR
STARTCHAR 0211
ENCODING 529
SWIDTH 377 0
DWIDTH 11 0
BBX 11 22 0 0
BITMAP
F780
7380
39C0
38C0
0000
0000
3DE0
3FE0
3FE0
3E00
3C00
3C00
3C00
3C00
3C00
3C00
3C00
3C00
3C00
3C00
3C00
3C00
ENDCHAR
STARTCHAR 0212
ENCODING 530
SWIDTH 720 0
DWIDTH 21 0
BBX 18 27 2 0
BITMAP
03C000
07E000
0C3000
0C3000
000000
000000
FFFC00
FFFE00
FFFF00
FFFF80
F00F80
F00780
F00780
F00F80
FFFF00
FFFF00
FFFE00
FFF000
F0F800
F07C00
F03E00
F03E00
F01F00
F01F80
F00F80
F007C0
F007C0
ENDCHAR
STARTCHAR 0213
ENCODING 531
SWIDTH 377 0
DWIDTH 11 0
BBX 9 22 2 0
BITMAP
3C00
7E00
C300
C300
0000
0000
F780
FF80
FF80
F800
F000
F000
F000
F000
F000
F000
F000
F000
F000
F000
F000
F000
ENDCHAR
STARTCHAR 0214
ENCODING 532
SWIDTH 720 0
DWIDTH 21 0
BBX 17 27 2 0
BITMAP
3DE000
1CE000
0E7000
0E3000
000000
000000
F00F80
F00F80
F00F80
F00F80
F00F80
F00F80
F00F80
F00F80
F00F80
F00F80
F00F80
F00F80
F00F80
F00F80
F00F80
F80F00
7C1F00
7FFF00
3FFE00
1FFC00
07F000
ENDCHAR
STARTCHAR 0215
ENCODING 533
SWIDTH 617 0
DWIDTH 18 0
BBX 14 22 2 0
BITMAP
F780
7380
39C0
38C0
0000
0000
F03C
F03C
F03C
F03C
F03C
F03C
F03C
F03C
F03C
F03C
F07C
F07C
F8FC
7FFC
7FBC
1F3C
ENDCHAR
STARTCHAR 0216
ENCODING 534
SWIDTH 720 0
DWIDTH 21 0
BBX 17 27 2 0
BITMAP
03C000
07E000
0C3000
0C3000
000000
000000
F00F80
F00F80
F00F80
F00F80
F00F80
F00F80
F00F80
F00F80
F00F80
F00F80
F00F80
F00F80
F00F80
F00F80
F00F80
F80F00
7C1F00
7FFF00
3FFE00
1FFC00
07F000
ENDCHAR
STARTCHAR 0217
ENCODING 535
SWIDTH 617 0
DWIDTH 18 0
BBX 14 22 2 0
BITMAP
0780
0FC0
1860
1860
0000
0000
F03C
F03C
F03C
F03C
F03C
F03C
F03C
F03C
F03C
F03C
F07C
F07C
F8FC
7FFC
7FBC
1F3C
ENDCHAR
STARTCHAR 0218
ENCODING 536
SWIDTH 651 0
DWIDTH 19 0
BBX 17 29 1 -8
BITMAP
07F000
1FFC00
3FFE00
7FFF00
7C1F00
780F00
780000
7F0000
3FF000
3FFC00
0FFE00
03FF00
007F80
000F80
F00780
F80F80
7C1F80
7FFF00
3FFF00
1FFC00
07F000
000000
000000
01E000
01E000
01E000
00E000
01C000
018000
ENDCHAR
STARTCHAR 0219
ENCODING 537
SWIDTH 548 0
DWIDTH 16 0
BBX 14 24 1 -8
BITMAP
1FC0
3FF0
7FF8
F078
F060
FC00
7FC0
7FF0
1FF8
03FC
007C
303C
F878
FFF8
7FF0
1FC0
0000
0000
0780
0780
0780
0380
0700
0600
ENDCHAR
STARTCHAR 021A
ENCODING 538
SWIDTH 617 0
DWIDTH 18 0
BBX 16 29 1 -8
BITMAP
FFFF
FFFF
FFFF
FFFF
03C0
03C0
03C0
03C0
03C0
03C0
03C0
03C0
03C0
03C0
03C0
03C0
03C0
03C0
03C0
03C0
03C0
0000
0000
03C0
03C0
03C0
01C0
0380
0300
ENDCHAR
STARTCHAR 021B
ENCODING 539
SWIDTH 342 0
DWIDTH 10 0
BBX 9 29 0 -8
BITMAP
0400
1C00
3C00
3C00
3C00
FF80
FF80
FF80
3C00
3C00
3C00
3C00
3C00
3C00
3C00
3C00
3C00
3C00
3F80
1F80
0F80
0000
0000
0F00
0F00
0F00
0700
0E00
0C00
ENDCHAR
STARTCHAR 021C
ENCODING 540
SWIDTH 582 0
DWIDTH 17 0
BBX 14 27 1 -6
BITMAP
1FC0
7FF0
FFF8
FFFC
787C
603C
003C
003C
003C
007C
01F8
07F8
3FF8
FFFC
FF3C
F83C
C03C
003C
007C
00FC
01F8
07F0
3FE0
FFC0
FF00
F800
C000
ENDCHAR
STARTCHAR 021D
ENCODING 541
SWIDTH 514 0
DWIDTH 15 0
BBX 13 22 1 -6
BITMAP
0FC0
3FE0
7FF0
F8F8
2078
0078
0078
00F8
03F0
1FE0
FFF0
FEF8
E078
0078
0078
00F8
01F0
03F0
1FE0
FF80
FE00
C000
ENDCHAR
STARTCHAR 021E
ENCODING 542
SWIDTH 720 0
DWIDTH 21 0
BBX 17 27 2 0
BITMAP
0F3800
077800
03F000
01E000
000000
000000
F00780
F00780
F00780
F00780
F00780
F00780
F00780
F00780
FFFF80
FFFF80
FFFF80
FFFF80
F00780
F00780
F00780
F00780
F00780
F00780
F00780
F00780
F00780
ENDCHAR
STARTCHAR 021F
ENCODING 543
SWIDTH 617 0
DWIDTH 18 0
BBX 14 27 2 0
BITMAP
79C0
3BC0
1F80
0F00
0000
0000
F000
F000
F000
F000
F000
F3E0
F7F0
FFF8
FC78
F83C
F03C
F03C
F03C
F03C
F03C
F03C
F03C
F03C
F03C
F03C
F03C
ENDCHAR
STARTCHAR 0220
ENCODING 544
SWIDTH 685 0
DWIDTH 20 0
BBX 17 27 2 -6
BITMAP
F7F800
FFFE00
FFFE00
FFFF00
FC1F00
F00F80
F00F80
F00F80
F00F80
F00F80
F00F80
F00F80
F00F80
F00F80
F00F80
F00F80
F00F80
F00F80
F00F80
F00F80
F00F80
000F80
000F80
000F80
000F80
000F80
000F80
ENDCHAR
STARTCHAR 0221
ENCODING 545
SWIDTH 822 0
DWIDTH 24 0
BBX 23 27 1 -6
BITMAP
001E00
001E00
001E00
001E00
001E00
0F9E00
3FDE00
3FFE00
7C7E00
783E00
F81E00
F01E00
F01E00
F01E00
F01E00
F81E00
783E00
7C7E00
3FFE00
1FDEF8
0F9FFC
001FFE
001F8E
000F8E
001FFE
003FFC
0009F8
ENDCHAR
STARTCHAR 0222
ENCODING 546
SWIDTH 617 0
DWIDTH 18 0
BBX 16 21 1 0
BITMAP
0070
0E7C
3E7E
7E7E
7E1F
7C1F
781E
7C3E
3FFC
1FF8
3FFC
7FFE
7C1F
F80F
F00F
F80F
FC1F
7FFF
7FFE
3FFC
0FF0
ENDCHAR
STARTCHAR 0223
ENCODING 547
SWIDTH 617 0
DWIDTH 18 0
BBX 16 21 1 0
BITMAP
0C10
1C3C
3C3E
781E
781F
781F
781E
7C3E
3FFC
0FF8
3FFC
7FFE
7C1F
F80F
F00F
F80F
FC1F
7FFF
7FFE
3FFC
0FF0
ENDCHAR
STARTCHAR 0224
ENCODING 548
SWIDTH 617 0
DWIDTH 18 0
BBX 17 25 0 -4
BITMAP
3FFF80
3FFF80
3FFF80
3FFF80
001F00
003E00
007E00
00FC00
01F800
01F000
03E000
07C000
0F8000
1F0000
3F0000
3E0000
7C0000
FFFE00
FFFF00
FFFF80
FFFF80
000380
000380
000380
000380
ENDCHAR
STARTCHAR 0225
ENCODING 549
SWIDTH 514 0
DWIDTH 15 0
BBX 14 20 0 -4
BITMAP
7FF8
7FF8
7FF8
00F8
01F0
03E0
03E0
07C0
0F80
1F00
1F00
3E00
7C00
FFF0
FFF8
FFFC
001C
001C
001C
001C
ENDCHAR
STARTCHAR 0226
ENCODING 550
SWIDTH 720 0
DWIDTH 21 0
BBX 21 27 0 0
BITMAP
007800
007800
007800
007800
000000
000000
00F800
01F800
01FC00
01FC00
03FC00
03DE00
039E00
079E00
078F00
0F8F00
0F0F80
0F0780
1F0780
1FFFC0
3FFFC0
3FFFE0
3C01E0
7C01E0
7801F0
7800F0
F800F8
ENDCHAR
STARTCHAR 0227
ENCODING 551
SWIDTH 548 0
DWIDTH 16 0
BBX 14 22 1 0
BITMAP
0780
0780
0780
0780
0000
0000
0FC0
3FF0
7FF8
7878
3078
0078
00F8
1FF8
7F78
7878
F078
F078
F8F8
FFF8
7FBC
1F3C
ENDCHAR
STARTCHAR 0228
ENCODING 552
SWIDTH 651 0
DWIDTH 19 0
BBX 16 27 2 -6
BITMAP
FFFF
FFFF
FFFF
FFFF
F000
F000
F000
F000
FFFE
FFFE
FFFE
FFFE
F000
F000
F000
F000
F000
FFFF
FFFF
FFFF
FFFF
03E0
03F0
0070
0070
07F0
07C0
ENDCHAR
STARTCHAR 0229
ENCODING 553
SWIDTH 548 0
DWIDTH 16 0
BBX 14 22 1 -6
BITMAP
0FC0
1FE0
3FF0
7878
F038
F03C
FFFC
FFFC
FFFC
F000
F000
F800
7C70
7FF8
3FF8
0FE0
07C0
07E0
00E0
00E0
0FE0
0F80
ENDCHAR
STARTCHAR 022A
ENCODING 554
SWIDTH 788 0
DWIDTH 23 0
BBX 20 27 1 0
BITMAP
03FC00
03FC00
000000
030C00
030C00
000000
01FC00
07FF00
1FFF80
3FFFC0
3F07E0
7C03E0
7801F0
7800F0
F800F0
F800F0
F800F0
F800F0
F800F0
7800F0
7C01F0
7C03E0
3F07E0
3FFFC0
1FFF80
07FF00
01FC00
ENDCHAR
STARTCHAR 022B
ENCODING 555
SWIDTH 617 0
DWIDTH 18 0
BBX 16 26 1 0
BITMAP
1FF0
1FF0
1FF0
0000
0000
1C78
1C78
1C78
0000
0000
07E0
1FF8
3FFC
7C3C
781E
F81E
F01F
F00F
F00F
F01F
F81E
781E
7C3C
3FFC
1FF8
07E0
ENDCHAR
STARTCHAR 022C
ENCODING 556
SWIDTH 788 0
DWIDTH 23 0
BBX 20 27 1 0
BITMAP
03FC00
03FC00
000000
01CC00
033800
000000
01FC00
07FF00
1FFF80
3FFFC0
3F07E0
7C03E0
7801F0
7800F0
F800F0
F800F0
F800F0
F800F0
F800F0
7800F0
7C01F0
7C03E0
3F07E0
3FFFC0
1FFF80
07FF00
01FC00
ENDCHAR
STARTCHAR 022D
ENCODING 557
SWIDTH 617 0
DWIDTH 18 0
BBX 16 26 1 0
BITMAP
1FF0
1FF0
1FF0
0000
0000
0F18
1FF0
18F0
0000
0000
07E0
1FF8
3FFC
7C3C
781E
F81E
F01F
F00F
F00F
F01F
F81E
781E
7C3C
3FFC
1FF8
07E0
ENDCHAR
STARTCHAR 022E
ENCODING 558
SWIDTH 788 0
DWIDTH 23 0
BBX 20 27 1 0
BITMAP
007800
007800
007800
007800
000000
000000
01FC00
07FF00
1FFF80
3FFFC0
3F07E0
7C03E0
7801F0
7800F0
F800F0
F800F0
F800F0
F800F0
F800F0
7800F0
7C01F0
7C03E0
3F07E0
3FFFC0
1FFF80
07FF00
01FC00
ENDCHAR
STARTCHAR 022F
ENCODING 559
SWIDTH 617 0
DWIDTH 18 0
BBX 16 22 1 0
BITMAP
03C0
03C0
03C0
03C0
0000
0000
07E0
1FF8
3FFC
7C3C
781E
F81E
F01F
F00F
F00F
F01F
F81E
781E
7C3C
3FFC
1FF8
07E0
ENDCHAR
STARTCHAR 0230
ENCODING 560
SWIDTH 788 0
DWIDTH 23 0
BBX 20 27 1 0
BITMAP
03FC00
03FC00
000000
006000
006000
000000
01FC00
07FF00
1FFF80
3FFFC0
3F07E0
7C03E0
7801F0
7800F0
F800F0
F800F0
F800F0
F800F0
F800F0
7800F0
7C01F0
7C03E0
3F07E0
3FFFC0
1FFF80
07FF00
01FC00
ENDCHAR
STARTCHAR 0231
ENCODING 561
SWIDTH 617 0
DWIDTH 18 0
BBX 16 26 1 0
BITMAP
1FF0
1FF0
1FF0
0000
03C0
03C0
03C0
03C0
0000
0000
07E0
1FF8
3FFC
7C3C
781E
F81E
F01F
F00F
F00F
F01F
F81E
781E
7C3C
3FFC
1FF8
07E0
ENDCHAR
STARTCHAR 0232
ENCODING 562
SWIDTH 651 0
DWIDTH 19 0
BBX 19 26 0 0
BITMAP
07FC00
07FC00
07FC00
000000
000000
F803E0
7C03C0
3C07C0
3E0780
1F0F80
1F1F00
0F9E00
07BE00
07FC00
03F800
01F800
01F000
00F000
00F000
00F000
00F000
00F000
00F000
00F000
00F000
00F000
ENDCHAR
STARTCHAR 0233
ENCODING 563
SWIDTH 548 0
DWIDTH 16 0
BBX 15 27 0 -6
BITMAP
1FF0
1FF0
1FF0
0000
0000
F81E
781E
781E
7C3C
3C3C
3C3C
1C38
1E78
1E78
0E70
0FF0
0FF0
07E0
07E0
07E0
03C0
03C0
07C0
0780
7F80
7F00
7E00
ENDCHAR
STARTCHAR 0234
ENCODING 564
SWIDTH 480 0
DWIDTH 14 0
BBX 12 27 2 -6
BITMAP
F000
F000
F000
F000
F000
F000
F000
F000
F000
F000
F000
F000
F000
F000
F000
F000
F000
F000
F000
F3C0
FFE0
FFF0
FE70
7C70
FFF0
FFE0
4FC0
ENDCHAR
STARTCHAR 0235
ENCODING 565
SWIDTH 822 0
DWIDTH 24 0
BBX 22 22 2 -6
BITMAP
F3E000
F7F000
FFF800
FC7800
F87C00
F03C00
F03C00
F03C00
F03C00
F03C00
F03C00
F03C00
F03C00
F03C00
F03DF0
F03FF8
003FFC
003F3C
003E3C
003FFC
007FF8
0013F0
ENDCHAR
STARTCHAR 0236
ENCODING 566
SWIDTH 514 0
DWIDTH 15 0
BBX 15 21 0 0
BITMAP
0400
1C00
3C00
3C00
3C00
FF80
FF80
FF80
3C00
3C00
3C00
3C00
3C00
3CF0
3FFC
3FFC
1F9C
1F1E
3FFC
3FFC
19F0
ENDCHAR
STARTCHAR 0237
ENCODING 567
SWIDTH 274 0
DWIDTH 8 0
BBX 7 22 -1 -6
BITMAP
1E
1E
1E
1E
1E
1E
1E
1E
1E
1E
1E
1E
1E
1E
1E
1E
1E
1E
1E
FE
FC
F8
ENDCHAR
STARTCHAR 0238
ENCODING 568
SWIDTH 960 0
DWIDTH 28 0
BBX 26 21 1 0
BITMAP
001E0000
001E0000
001E0000
001E0000
001E0000
0F9E7C00
3FDFFE00
3FFFFF00
7C7F0F80
783F0780
F81E0780
F01E07C0
F01E07C0
F01E07C0
F01E0780
F81E0780
783F0780
7C7F8F80
3FFFFF00
1FDFFE00
0F9E7C00
ENDCHAR
STARTCHAR 0239
ENCODING 569
SWIDTH 960 0
DWIDTH 28 0
BBX 26 22 1 -6
BITMAP
0F9E7C00
1FDFFE00
3FFFFF00
7C7F8F80
783F0780
F81E0780
F01E0780
F01E03C0
F01E03C0
F01E0780
781E0780
783F0780
7C7F8F80
3FFFFF00
1FDFFE00
0F9E7C00
001E0000
001E0000
001E0000
001E0000
001E0000
001E0000
ENDCHAR
STARTCHAR 023A
ENCODING 570
SWIDTH 720 0
DWIDTH 21 0
BBX 21 22 0 -1
BITMAP
00F8C0
01F9C0
01FD80
01FF80
03FF00
03DE00
039E00
079E00
079F00
0F1F00
0F3F80
0F7780
1FFF80
1FFFC0
3FFFC0
3FFFE0
3D81E0
7F81E0
7B01F0
7E00F0
FE00F8
0C0000
ENDCHAR
STARTCHAR 023B
ENCODING 571
SWIDTH 720 0
DWIDTH 21 0
BBX 18 21 1 0
BITMAP
01F980
07FF00
1FFF80
3FFF80
3E0FC0
7C0FC0
781B00
781800
F83000
F83000
F86000
F8C000
F8C000
798300
7B83C0
7F07C0
3E0FC0
3FFF80
1FFF00
0FFE00
19F800
ENDCHAR
STARTCHAR 023C
ENCODING 572
SWIDTH 548 0
DWIDTH 16 0
BBX 15 27 1 -6
BITMAP
000E
000C
001C
0018
0030
07F0
1FF0
3FF8
7CFC
78F8
F980
F180
F300
F300
F600
FE00
7E3C
7C7C
3FFC
1FF8
3FE0
3000
7000
6000
E000
C000
C000
ENDCHAR
STARTCHAR 023D
ENCODING 573
SWIDTH 617 0
DWIDTH 18 0
BBX 17 21 0 0
BITMAP
3C0000
3C0000
3C0000
3C0000
3C0000
3C0000
3C0000
3C0000
3C0000
FFE000
FFE000
FFE000
3C0000
3C0000
3C0000
3C0000
3C0000
3FFF80
3FFF80
3FFF80
3FFF80
ENDCHAR
STARTCHAR 023E
ENCODING 574
SWIDTH 617 0
DWIDTH 18 0
BBX 16 23 1 -1
BITMAP
0003
FFFF
FFFF
FFFF
FFFF
03F8
03F0
03E0
03E0
03C0
03C0
03C0
03C0
07C0
07C0
0FC0
0FC0
1BC0
3BC0
33C0
63C0
63C0
C000
ENDCHAR
STARTCHAR 023F
ENCODING 575
SWIDTH 548 0
DWIDTH 16 0
BBX 14 22 1 -6
BITMAP
1FC0
3FF0
7FF0
F0F8
F070
FC00
7FC0
7FF0
1FF8
07FC
007C
403C
7078
FFF8
7FF0
3FC0
1E00
0F10
0790
03F8
03F8
00E0
ENDCHAR
STARTCHAR 0240
ENCODING 576
SWIDTH 514 0
DWIDTH 15 0
BBX 14 22 0 -6
BITMAP
7FF8
7FF8
7FF8
00F0
01F0
03E0
07C0
0780
0F80
1F00
3E00
3C00
7C00
FC00
FE00
FF00
0F80
03C0
03E4
01FC
00FC
0078
ENDCHAR
STARTCHAR 0241
ENCODING 577
SWIDTH 651 0
DWIDTH 19 0
BBX 16 21 1 0
BITMAP
07E0
1FF8
7FFC
7C3E
F01F
300F
000F
000F
000F
000F
000F
001F
003E
03FE
03F8
03F0
03C0
03C0
03C0
03C0
03C0
ENDCHAR
STARTCHAR 0242
ENCODING 578
SWIDTH 480 0
DWIDTH 14 0
BBX 12 16 1 0
BITMAP
1F80
7FC0
FFE0
F1F0
60F0
00F0
00F0
00E0
03E0
07C0
0780
0780
0780
0780
0780
0780
ENDCHAR
STARTCHAR 0243
ENCODING 579
SWIDTH 720 0
DWIDTH 21 0
BBX 19 21 0 0
BITMAP
3FFE00
3FFF80
3FFFC0
3FFFC0
3C03C0
3C03E0
3C03C0
3C03C0
3FFF80
3FFF00
3FFF80
3FFFC0
3C03E0
FFE1E0
FFE1E0
FFE1E0
3C03E0
3FFFE0
3FFFC0
3FFFC0
3FFF00
ENDCHAR
STARTCHAR 0244
ENCODING 580
SWIDTH 720 0
DWIDTH 21 0
BBX 20 21 0 0
BITMAP
3C03E0
3C03E0
3C03E0
3C03E0
3C03E0
3C03E0
3C03E0
3C03E0
FFFFF0
FFFFF0
FFFFF0
3C03E0
3C03E0
3C03E0
3C03E0
3E03C0
1F07C0
1FFFC0
0FFF80
07FF00
01FC00
ENDCHAR
STARTCHAR 0245
ENCODING 581
SWIDTH 651 0
DWIDTH 19 0
BBX 19 21 0 0
BITMAP
01F000
01F000
01F800
03F800
03F800
07BC00
07BC00
07BE00
0F1E00
0F1E00
0F1F00
1E0F00
1E0F00
1E0F80
3E0780
3C0780
3C07C0
7C03C0
7803C0
7803E0
F801E0
ENDCHAR
STARTCHAR 0246
ENCODING 582
SWIDTH 651 0
DWIDTH 19 0
BBX 16 24 2 -2
BITMAP
0006
FFFF
FFFF
FFFF
FFFF
F018
F030
F030
F060
FFFE
FFFE
FFFE
FFFE
F180
F300
F300
F600
F600
FFFF
FFFF
FFFF
FFFF
3800
3000
ENDCHAR
STARTCHAR 0247
ENCODING 583
SWIDTH 548 0
DWIDTH 16 0
BBX 14 27 1 -5
BITMAP
000C
0018
0018
0038
0030
0070
0FE0
3FE0
3FF0
7CF8
79F8
F1BC
F1BC
FFFC
FFFC
F600
F600
FE38
7C78
7FF8
3FF0
1FC0
3000
3000
7000
6000
E000
ENDCHAR
STARTCHAR 0248
ENCODING 584
SWIDTH 548 0
DWIDTH 16 0
BBX 15 21 1 0
BITMAP
0078
0078
0078
0078
0078
0078
0078
03FE
03FE
03FE
0078
0078
0078
E078
F0F8
F0F8
F8F0
FFF0
7FE0
3FE0
1F80
ENDCHAR
STARTCHAR 0249
ENCODING 585
SWIDTH 274 0
DWIDTH 8 0
BBX 9 27 -1 -6
BITMAP
1E00
1E00
1E00
0000
0000
1E00
1E00
1E00
1E00
1E00
1E00
7F80
7F80
7F80
1E00
1E00
1E00
1E00
1E00
1E00
1E00
1E00
1E00
1E00
FE00
FC00
F800
ENDCHAR
STARTCHAR 024A
ENCODING 586
SWIDTH 754 0
DWIDTH 22 0
BBX 22 27 1 -6
BITMAP
01FE60
07FFE0
1FFFE0
3FFFE0
3F03E0
7C01E0
7C01E0
7801E0
F801E0
F801E0
F801E0
F801E0
F801E0
7801E0
7C01E0
7C01E0
3F01E0
3FFFE0
1FFFE0
07FFE0
01FFE0
0001E0
0001E0
0001FC
0001FC
0000FC
00007C
ENDCHAR
STARTCHAR 024B
ENCODING 587
SWIDTH 617 0
DWIDTH 18 0
BBX 18 22 1 -6
BITMAP
0F9E00
1FDE00
3FFE00
7C7E00
783E00
F81E00
F01E00
F01E00
F01E00
F01E00
781E00
783E00
7C7E00
3FFE00
1FDE00
0F9E00
001E00
001E00
001E00
001FC0
000FC0
0007C0
ENDCHAR
STARTCHAR 024C
ENCODING 588
SWIDTH 720 0
DWIDTH 21 0
BBX 21 21 0 0
BITMAP
1FFF00
1FFFC0
1FFFC0
1FFFE0
1F03E0
1F01E0
1F01E0
1F03E0
FFFFE0
FFFFC0
FFFF80
FFFC00
1F3E00
1F1F00
1F0F80
1F0FC0
1F07C0
1F03E0
1F03F0
1F01F0
1F00F8
ENDCHAR
STARTCHAR 024D
ENCODING 589
SWIDTH 377 0
DWIDTH 11 0
BBX 11 16 0 0
BITMAP
3DE0
3FE0
3FE0
3E20
3C00
3C00
3C00
FF00
FF00
FF00
3C00
3C00
3C00
3C00
3C00
3C00
ENDCHAR
STARTCHAR 024E
ENCODING 590
SWIDTH 651 0
DWIDTH 19 0
BBX 19 21 0 0
BITMAP
F803E0
7C03E0
7C07C0
FFFFE0
FFFFE0
FFFFE0
0F1F00
0F9E00
07FE00
07FC00
03F800
01F800
01F000
00F000
00F000
00F000
00F000
00F000
00F000
00F000
00F000
ENDCHAR
STARTCHAR 024F
ENCODING 591
SWIDTH 548 0
DWIDTH 16 0
BBX 16 22 0 -6
BITMAP
F81E
781E
781E
3C3C
FFFF
FFFF
FFFF
1E78
1E78
0FF0
0FF0
0FF0
07E0
07E0
07E0
03C0
03C0
07C0
0F80
7F80
7F00
7E00
ENDCHAR
STARTCHAR 0250
ENCODING 592
SWIDTH 548 0
DWIDTH 16 0
BBX 14 16 1 0
BITMAP
F3F0
77F8
7FFC
7C7C
783C
783C
79FC
7FF8
7FE0
7C00
7800
7838
7878
7FF8
3FF0
0FC0
ENDCHAR
STARTCHAR 0251
ENCODING 593
SWIDTH 617 0
DWIDTH 18 0
BBX 15 16 1 0
BITMAP
0F9E
3FDE
3FFE
7C7E
783E
F81E
F01E
F01E
F01E
F01E
F81E
783E
7C7E
3FFE
1FDE
0F9E
ENDCHAR
STARTCHAR 0252
ENCODING 594
SWIDTH 617 0
DWIDTH 18 0
BBX 15 16 2 0
BITMAP
F3E0
FFF0
FFF8
F87C
F83C
F03C
F03C
F03E
F03E
F03C
F03C
F83C
F87C
FFF8
FFF0
F3E0
ENDCHAR
STARTCHAR 0253
ENCODING 595
SWIDTH 617 0
DWIDTH 18 0
BBX 15 21 2 0
BITMAP
3F00
7F00
FE00
F000
F000
F3E0
FFF0
FFF8
F87C
F83C
F03C
F03E
F03E
F03E
F03E
F03C
F83C
FC7C
FFF8
FFF0
F3E0
ENDCHAR
STARTCHAR 0254
ENCODING 596
SWIDTH 548 0
DWIDTH 16 0
BBX 14 16 1 0
BITMAP
0FC0
3FE0
7FF0
F8F8
7078
003C
003C
003C
003C
003C
007C
F078
F8F8
7FF0
3FE0
1FC0
ENDCHAR
STARTCHAR 0255
ENCODING 597
SWIDTH 548 0
DWIDTH 16 0
BBX 14 17 1 -1
BITMAP
07C0
1FF0
3FF8
7C7C
783C
F838
F000
F1F0
F7F8
FFFC
7E3C
7C1C
FC3C
FFFC
FFF8
E7E0
4000
ENDCHAR
STARTCHAR 0256
ENCODING 598
SWIDTH 617 0
DWIDTH 18 0
BBX 18 27 1 -6
BITMAP
001E00
001E00
001E00
001E00
001E00
0F9E00
3FDE00
3FFE00
7C7E00
783E00
F81E00
F01E00
F01E00
F01E00
F01E00
F81E00
783E00
7C7E00
3FFE00
1FDE00
0F9E00
001E00
001E00
001E00
001FC0
000FC0
0007C0
ENDCHAR
STARTCHAR 0257
ENCODING 599
SWIDTH 617 0
DWIDTH 18 0
BBX 19 21 1 0
BITMAP
0007E0
000FE0
001FC0
001E00
001E00
0F9E00
3FDE00
3FFE00
7C7E00
783E00
F81E00
F01E00
F01E00
F01E00
F01E00
F81E00
783E00
7C7E00
3FFE00
1FDE00
0F9E00
ENDCHAR
STARTCHAR 0258
ENCODING 600
SWIDTH 548 0
DWIDTH 16 0
BBX 14 16 1 0
BITMAP
0FC0
1FF0
3FF8
7878
703C
F03C
FFFC
FFFC
FFFC
003C
003C
787C
7878
7FF8
3FF0
0FC0
ENDCHAR
STARTCHAR 0259
ENCODING 601
SWIDTH 548 0
DWIDTH 16 0
BBX 14 16 1 0
BITMAP
0FC0
3FF0
7FF8
7878
787C
003C
003C
FFFC
FFFC
FFFC
F03C
703C
7878
3FF8
1FF0
0FC0
ENDCHAR
STARTCHAR 025A
ENCODING 602
SWIDTH 788 0
DWIDTH 23 0
BBX 22 16 1 0
BITMAP
0FC000
3FF000
7FF800
787800
F87F00
01FF00
3FFF80
FFFF88
FE3FF8
F03DFC
F03CF8
783C00
787800
3FF800
1FF000
0FC000
ENDCHAR
STARTCHAR 025B
ENCODING 603
SWIDTH 480 0
DWIDTH 14 0
BBX 13 16 1 0
BITMAP
0F80
3FE0
7FF0
78F0
7060
7800
3E00
1E00
7E00
7800
F000
F070
F8F8
7FF0
3FE0
1FC0
ENDCHAR
STARTCHAR 025C
ENCODING 604
SWIDTH 480 0
DWIDTH 14 0
BBX 12 16 1 0
BITMAP
1F80
3FE0
7FE0
F1F0
70F0
01E0
07C0
0780
07E0
00F0
00F0
60F0
F1F0
FFF0
7FE0
1F80
ENDCHAR
STARTCHAR 025D
ENCODING 605
SWIDTH 685 0
DWIDTH 20 0
BBX 19 16 1 0
BITMAP
1F8000
3FC000
7FFC00
F1FC00
70FC20
01EFE0
07EFE0
0787C0
07E000
00F000
00F000
60F000
F1F000
FFF000
7FE000
1F8000
ENDCHAR
STARTCHAR 025E
ENCODING 606
SWIDTH 548 0
DWIDTH 16 0
BBX 14 16 1 0
BITMAP
07E0
1FF8
3FF8
7C7C
783C
F878
F1F0
F1E0
F1F8
F03C
F83C
783C
7C3C
3FFC
1FF8
07E0
ENDCHAR
STARTCHAR 025F
ENCODING 607
SWIDTH 342 0
DWIDTH 10 0
BBX 10 22 -1 -6
BITMAP
0F00
0F00
0F00
0F00
0F00
0F00
0F00
0F00
0F00
0F00
0F00
0F00
0F00
7FC0
7FC0
7FC0
0F00
0F00
0F00
7F00
FE00
FC00
ENDCHAR
STARTCHAR 0260
ENCODING 608
SWIDTH 617 0
DWIDTH 18 0
BBX 19 27 1 -6
BITMAP
0007E0
000FE0
001FC0
001E00
001E00
0F9E00
1FDE00
3FFE00
7C7E00
783E00
F81E00
F01E00
F01E00
F01E00
F01E00
F81E00
783E00
7C7E00
3FFE00
3FDE00
0F9E00
001E00
781E00
7C3C00
7FFC00
3FF800
0FE000
ENDCHAR
STARTCHAR 0261
ENCODING 609
SWIDTH 617 0
DWIDTH 18 0
BBX 15 22 1 -6
BITMAP
0F9E
1FDE
3FFE
7C7E
783E
F81E
F01E
F01E
F01E
F01E
F81E
783E
7C7E
3FFE
1FDE
0F9E
001E
601E
783C
7FFC
3FF8
0FE0
ENDCHAR
STARTCHAR 0262
ENCODING 610
SWIDTH 582 0
DWIDTH 17 0
BBX 15 16 1 0
BITMAP
07E0
1FF8
3FFC
7C3E
781C
F800
F000
F000
F0FE
F0FE
F8FE
781E
7C1E
3FFE
1FFC
07F0
ENDCHAR
STARTCHAR 0263
ENCODING 611
SWIDTH 548 0
DWIDTH 16 0
BBX 16 22 0 -6
BITMAP
F81F
781E
7C1E
3C3C
3E3C
1E78
1E78
0FF0
0FF0
07E0
07E0
03C0
03C0
07E0
07E0
0FF0
0FF0
0F70
0E70
0FF0
0FF0
07E0
ENDCHAR
STARTCHAR 0264
ENCODING 612
SWIDTH 582 0
DWIDTH 17 0
BBX 17 16 0 0
BITMAP
3E1E00
FF3F80
7F7F80
47F900
07F000
03F000
03E000
01E000
03E000
07F000
07F800
0F7800
0F7800
0FF800
07F800
03E000
ENDCHAR
STARTCHAR 0265
ENCODING 613
SWIDTH 617 0
DWIDTH 18 0
BBX 14 22 2 -6
BITMAP
F03C
F03C
F03C
F03C
F03C
F03C
F03C
F03C
F03C
F03C
F07C
F07C
F8FC
7FFC
7FBC
1E3C
003C
003C
003C
003C
003C
003C
ENDCHAR
STARTCHAR 0266
ENCODING 614
SWIDTH 617 0
DWIDTH 18 0
BBX 14 21 2 0
BITMAP
3F00
7F00
FF00
F000
F000
F3E0
F7F0
FFF8
F878
F83C
F03C
F03C
F03C
F03C
F03C
F03C
F03C
F03C
F03C
F03C
F03C
ENDCHAR
STARTCHAR 0267
ENCODING 615
SWIDTH 617 0
DWIDTH 18 0
BBX 14 27 2 -6
BITMAP
3F00
7F00
FF00
F000
F000
F3E0
F7F0
FFF8
F878
F87C
F03C
F03C
F03C
F03C
F03C
F03C
F03C
F03C
F03C
F03C
F03C
003C
003C
007C
01F8
01F8
03F0
ENDCHAR
STARTCHAR 0268
ENCODING 616
SWIDTH 274 0
DWIDTH 8 0
BBX 8 21 0 0
BITMAP
3C
3C
3C
00
00
3C
3C
3C
3C
3C
3C
FF
FF
FF
3C
3C
3C
3C
3C
3C
3C
ENDCHAR
STARTCHAR 0269
ENCODING 617
SWIDTH 274 0
DWIDTH 8 0
BBX 6 16 2 0
BITMAP
F0
F0
F0
F0
F0
F0
F0
F0
F0
F0
F0
F0
F0
FC
FC
3C
ENDCHAR
STARTCHAR 026A
ENCODING 618
SWIDTH 411 0
DWIDTH 12 0
BBX 10 16 1 0
BITMAP
FFC0
FFC0
FFC0
1E00
1E00
1E00
1E00
1E00
1E00
1E00
1E00
1E00
1E00
FFC0
FFC0
FFC0
ENDCHAR
STARTCHAR 026B
ENCODING 619
SWIDTH 342 0
DWIDTH 10 0
BBX 10 21 0 0
BITMAP
1E00
1E00
1E00
1E00
1E00
1E00
1E00
1E00
1E00
7EC0
FF80
DF80
1E00
1E00
1E00
1E00
1E00
1E00
1E00
1E00
1E00
ENDCHAR
STARTCHAR 026C
ENCODING 620
SWIDTH 342 0
DWIDTH 10 0
BBX 10 21 0 0
BITMAP
0F00
0F00
0F00
0F00
0F00
0F00
3F00
7F00
FF00
EF00
EF00
FFC0
7FC0
3FC0
0F00
0F00
0F00
0F00
0F00
0F00
0F00
ENDCHAR
STARTCHAR 026D
ENCODING 621
SWIDTH 274 0
DWIDTH 8 0
BBX 7 27 2 -6
BITMAP
F0
F0
F0
F0
F0
F0
F0
F0
F0
F0
F0
F0
F0
F0
F0
F0
F0
F0
F0
F0
F0
F0
F0
F0
FE
7E
3E
ENDCHAR
STARTCHAR 026E
ENCODING 622
SWIDTH 617 0
DWIDTH 18 0
BBX 15 27 2 -6
BITMAP
F000
F000
F000
F000
F000
FFFC
FFFC
FFFC
F07C
F0F8
F0F0
F1E0
F3C0
F3F0
F3F8
F07C
F03C
F01E
F01E
F01E
F01E
001E
703C
F87C
7FF8
3FF0
0FE0
ENDCHAR
STARTCHAR 026F
ENCODING 623
SWIDTH 891 0
DWIDTH 26 0
BBX 22 16 2 0
BITMAP
F0783C
F0783C
F0783C
F0783C
F0783C
F0783C
F0783C
F0783C
F0783C
F0783C
F0783C
F0F87C
F8FC7C
FFFFFC
7FBFFC
3E1F3C
ENDCHAR
STARTCHAR 0270
ENCODING 624
SWIDTH 891 0
DWIDTH 26 0
BBX 22 22 2 -6
BITMAP
F0783C
F0783C
F0783C
F0783C
F0783C
F0783C
F0783C
F0783C
F0783C
F0783C
F0783C
F0F87C
F8FC7C
FFFFFC
7FBFBC
3E1F3C
00003C
00003C
00003C
00003C
00003C
00003C
ENDCHAR
STARTCHAR 0271
ENCODING 625
SWIDTH 891 0
DWIDTH 26 0
BBX 22 22 2 -6
BITMAP
E3C1E0
EFF7F8
FFFFF8
F8FC7C
F0783C
F0783C
F0783C
F0783C
F0783C
F0783C
F0783C
F0783C
F0783C
F0783C
F0783C
F0783C
00003C
00003C
00003C
0001FC
0001F8
0001F0
ENDCHAR
STARTCHAR 0272
ENCODING 626
SWIDTH 617 0
DWIDTH 18 0
BBX 17 22 -1 -6
BITMAP
1E7C00
1EFF00
1FFF00
1F8F00
1F0F80
1E0780
1E0780
1E0780
1E0780
1E0780
1E0780
1E0780
1E0780
1E0780
1E0780
1E0780
1E0000
1E0000
1E0000
FE0000
FC0000
F80000
ENDCHAR
STARTCHAR 0273
ENCODING 627
SWIDTH 617 0
DWIDTH 18 0
BBX 17 22 2 -6
BITMAP
F3E000
F7F800
FFF800
FC7C00
F87C00
F03C00
F03C00
F03C00
F03C00
F03C00
F03C00
F03C00
F03C00
F03C00
F03C00
F03C00
003C00
003C00
003F00
003F80
001F80
000F80
ENDCHAR
STARTCHAR 0274
ENCODING 628
SWIDTH 617 0
DWIDTH 18 0
BBX 14 16 2 0
BITMAP
F03C
F83C
F83C
FC3C
FE3C
FE3C
FF3C
F73C
F7BC
F3FC
F1FC
F1FC
F0FC
F07C
F07C
F03C
ENDCHAR
STARTCHAR 0275
ENCODING 629
SWIDTH 617 0
DWIDTH 18 0
BBX 16 16 1 0
BITMAP
07E0
1FF8
3FFC
7C3C
781E
F81E
F01F
FFFF
FFFF
F01F
F81E
781E
7C3C
3FFC
1FF8
07E0
ENDCHAR
STARTCHAR 0276
ENCODING 630
SWIDTH 822 0
DWIDTH 24 0
BBX 22 16 1 0
BITMAP
07EFFC
1FFFFC
3FFFFC
7C3F00
781F00
F81F00
F01FF8
F00FF8
F00FF8
F01F00
F81F00
781F00
7C3F00
3FFFFC
1FFFFC
07EFFC
ENDCHAR
STARTCHAR 0277
ENCODING 631
SWIDTH 857 0
DWIDTH 25 0
BBX 22 16 1 0
BITMAP
01FE00
0FFFC0
1FFFF0
3F01F8
7C0078
78003C
F8003C
F0783C
F0783C
F0783C
F0783C
F87C3C
78FC7C
7FFFF8
3FCFF0
0F83E0
ENDCHAR
STARTCHAR 0278
ENCODING 632
SWIDTH 754 0
DWIDTH 22 0
BBX 20 27 1 -6
BITMAP
00F000
00F000
00F000
00F000
00F000
07FE00
1FFF80
3FFFC0
7CF3C0
78F1E0
F8F1E0
F0F1E0
F0F1F0
F0F1F0
F0F1E0
F8F1E0
78F1E0
7CF3C0
3FFFC0
1FFF80
07FE00
00F000
00F000
00F000
00F000
00F000
00F000
ENDCHAR
STARTCHAR 0279
ENCODING 633
SWIDTH 377 0
DWIDTH 11 0
BBX 9 16 0 0
BITMAP
0780
0780
0780
0780
0780
0780
0780
0780
0780
0780
0780
0780
0F80
FF80
FB80
F380
ENDCHAR
STARTCHAR 027A
ENCODING 634
SWIDTH 377 0
DWIDTH 11 0
BBX 9 21 0 0
BITMAP
0780
0780
0780
0780
0780
0780
0780
0780
0780
0780
0780
0780
0780
0780
0780
0780
0780
0F80
FF80
FB80
F380
ENDCHAR
STARTCHAR 027B
ENCODING 635
SWIDTH 377 0
DWIDTH 11 0
BBX 13 22 0 -6
BITMAP
0780
0780
0780
0780
0780
0780
0780
0780
0780
0780
0780
0780
0F80
FF80
FF80
F780
0780
0780
03C0
03F0
03F0
00F8
ENDCHAR
STARTCHAR 027C
ENCODING 636
SWIDTH 377 0
DWIDTH 11 0
BBX 9 22 2 -6
BITMAP
F780
FF80
FF80
F800
F800
F000
F000
F000
F000
F000
F000
F000
F000
F000
F000
F000
F000
F000
F000
F000
F000
F000
ENDCHAR
STARTCHAR 027D
ENCODING 637
SWIDTH 377 0
DWIDTH 11 0
BBX 9 22 2 -6
BITMAP
F780
FF80
FF80
F800
F800
F000
F000
F000
F000
F000
F000
F000
F000
F000
F000
F000
F000
F000
F000
FE00
7E00
3E00
ENDCHAR
STARTCHAR 027E
ENCODING 638
SWIDTH 377 0
DWIDTH 11 0
BBX 9 16 2 0
BITMAP
0F80
3F80
7F80
7800
F000
F000
F000
F000
F000
F000
F000
F000
F000
F000
F000
F000
ENDCHAR
STARTCHAR 027F
ENCODING 639
SWIDTH 377 0
DWIDTH 11 0
BBX 9 22 0 -6
BITMAP
FC00
FE00
FF00
0F80
0780
0780
0780
0780
0780
0780
0780
0780
0780
0780
0780
0780
0780
0780
0780
0780
0780
0780
ENDCHAR
STARTCHAR 0280
ENCODING 640
SWIDTH 582 0
DWIDTH 17 0
BBX 15 16 2 0
BITMAP
FFE0
FFF8
FFF8
F07C
F03C
F03C
F07C
FFF8
FFF0
FFE0
F3E0
F1F0
F0F8
F078
F07C
F03E
ENDCHAR
STARTCHAR 0281
ENCODING 641
SWIDTH 582 0
DWIDTH 17 0
BBX 15 16 2 0
BITMAP
F03E
F07C
F078
F0F8
F1F0
F3E0
FFE0
FFF0
FFF8
F078
F03C
F03C
F07C
FFF8
FFF8
FFE0
ENDCHAR
STARTCHAR 0282
ENCODING 642
SWIDTH 548 0
DWIDTH 16 0
BBX 14 22 1 -6
BITMAP
1FC0
3FF0
7FF0
F0F8
F070
F000
7E00
7FC0
1FF0
03F8
007C
F03C
F87C
FFF8
FFF0
FFC0
F000
F000
F000
FC00
7E00
3E00
ENDCHAR
STARTCHAR 0283
ENCODING 643
SWIDTH 342 0
DWIDTH 10 0
BBX 12 27 -1 -6
BITMAP
03F0
07F0
0FF0
0F00
0F00
0F00
0F00
0F00
0F00
0F00
0F00
0F00
0F00
0F00
0F00
0F00
0F00
0F00
0F00
0F00
0F00
0F00
0F00
0F00
7F00
FE00
FC00
ENDCHAR
STARTCHAR 0284
ENCODING 644
SWIDTH 342 0
DWIDTH 10 0
BBX 12 27 -1 -6
BITMAP
03F0
07F0
0FF0
0F00
0F00
0F00
0F00
0F00
0F00
0F00
0F00
0F00
0F00
0F00
0F00
0F00
0F00
0F00
7FC0
7FC0
7FC0
0F00
0F00
0F00
7F00
FE00
FC00
ENDCHAR
STARTCHAR 0285
ENCODING 645
SWIDTH 342 0
DWIDTH 10 0
BBX 12 22 -1 -6
BITMAP
F800
FE00
FE00
1E00
0F00
0F00
0F00
0F00
0F00
0F00
0F00
0F00
0F00
0F00
0F00
0F00
0F00
0F00
0F00
0FE0
0FE0
03F0
ENDCHAR
STARTCHAR 0286
ENCODING 646
SWIDTH 548 0
DWIDTH 16 0
BBX 17 27 0 -6
BITMAP
001F80
003F80
007F80
007800
007800
007800
007800
007800
007800
007800
007800
007800
007800
007800
007800
007800
007800
007800
007800
1E7800
7FF800
7FF800
F1F800
F1F800
7FFC00
7FF800
1F9000
ENDCHAR
STARTCHAR 0287
ENCODING 647
SWIDTH 342 0
DWIDTH 10 0
BBX 9 21 0 0
BITMAP
7C00
FE00
7E00
1E00
1E00
1E00
1E00
1E00
1E00
1E00
1E00
1E00
1E00
7F80
7F80
7F80
1E00
1E00
1E00
1C00
1000
ENDCHAR
STARTCHAR 0288
ENCODING 648
SWIDTH 342 0
DWIDTH 10 0
BBX 9 27 0 -6
BITMAP
0400
1C00
3C00
3C00
3C00
FF80
FF80
FF80
3C00
3C00
3C00
3C00
3C00
3C00
3C00
3C00
3C00
3C00
3C00
3C00
3C00
3C00
3C00
3C00
3F80
1F80
0F80
ENDCHAR
STARTCHAR 0289
ENCODING 649
SWIDTH 617 0
DWIDTH 18 0
BBX 17 16 0 0
BITMAP
3C0F00
3C0F00
3C0F00
3C0F00
3C0F00
3C0F00
FFFF80
FFFF80
FFFF80
3C0F00
3C1F00
3C1F00
3E3F00
1FFF00
1FEF00
078F00
ENDCHAR
STARTCHAR 028A
ENCODING 650
SWIDTH 617 0
DWIDTH 18 0
BBX 16 16 1 0
BITMAP
F00F
F81F
FC3F
3C3C
3C3C
781E
781E
F00F
F00F
F00F
F81F
781E
7C3E
3FFC
1FF8
07E0
ENDCHAR
STARTCHAR 028B
ENCODING 651
SWIDTH 582 0
DWIDTH 17 0
BBX 14 16 2 0
BITMAP
F3E0
F3F8
F3F8
F078
F03C
F03C
F03C
F038
F078
F078
F078
F078
78F0
7FF0
3FE0
1F80
ENDCHAR
STARTCHAR 028C
ENCODING 652
SWIDTH 548 0
DWIDTH 16 0
BBX 16 16 0 0
BITMAP
03C0
03C0
07E0
07E0
07F0
0FF0
0F70
1E78
1E78
1E38
3C3C
3C3C
3C1E
781E
781E
F80F
ENDCHAR
STARTCHAR 028D
ENCODING 653
SWIDTH 788 0
DWIDTH 23 0
BBX 22 16 0 0
BITMAP
0783C0
0F83C0
0F87C0
0FC7E0
0FC7E0
1FC7E0
1DCEF0
1DCEF0
3CEE70
3CEE78
38FC78
78FC78
787C38
787C3C
707C3C
F0783C
ENDCHAR
STARTCHAR 028E
ENCODING 654
SWIDTH 548 0
DWIDTH 16 0
BBX 16 21 0 0
BITMAP
00F0
00F0
01E0
01E0
01E0
03C0
03C0
07E0
07E0
07E0
0FF0
0F70
1E78
1E78
1E38
3C3C
3C3C
3C1C
781E
781E
F00F
ENDCHAR
STARTCHAR 028F
ENCODING 655
SWIDTH 582 0
DWIDTH 17 0
BBX 15 16 1 0
BITMAP
F03E
F83C
787C
3C78
3EF0
1FF0
1FE0
0FC0
07C0
0780
0780
0780
0780
0780
0780
0780
ENDCHAR
STARTCHAR 0290
ENCODING 656
SWIDTH 514 0
DWIDTH 15 0
BBX 17 22 0 -6
BITMAP
7FF800
7FF800
7FF800
00F800
01F000
03E000
03E000
07C000
0F8000
1F0000
1F0000
3E0000
7C0000
FFFC00
FFFC00
FFFC00
003C00
003C00
003C00
003F80
001F80
000F80
ENDCHAR
STARTCHAR 0291
ENCODING 657
SWIDTH 685 0
DWIDTH 20 0
BBX 19 19 0 -3
BITMAP
7FF800
7FF800
7FF800
00F800
01F000
03E000
03E000
07C000
0F8780
1F1FC0
1F3FE0
3E78E0
7CF0E0
FFFFE0
FFFFC0
FFFF80
078000
078000
010000
ENDCHAR
STARTCHAR 0292
ENCODING 658
SWIDTH 514 0
DWIDTH 15 0
BBX 14 22 1 -6
BITMAP
7FF8
7FF8
7FF8
00F0
01F0
03E0
03C0
0780
0FC0
0FF0
00F8
0078
0078
003C
003C
007C
E078
F078
F8F8
7FF0
3FE0
1F80
ENDCHAR
STARTCHAR 0293
ENCODING 659
SWIDTH 514 0
DWIDTH 15 0
BBX 15 22 0 -6
BITMAP
3FFC
3FFC
3FFC
0078
00F8
01F0
01E0
03C0
07F0
07F8
007C
003C
003C
003E
1F1E
7FDE
7FFC
F0FC
787C
7FFE
3FFC
0FC8
ENDCHAR
STARTCHAR 0294
ENCODING 660
SWIDTH 548 0
DWIDTH 16 0
BBX 14 21 1 0
BITMAP
0FC0
3FE0
7FF0
F8F8
7078
003C
003C
003C
003C
003C
007C
00F8
07F8
07F0
07C0
0780
0780
0780
0780
0780
0780
ENDCHAR
STARTCHAR 0295
ENCODING 661
SWIDTH 548 0
DWIDTH 16 0
BBX 14 21 1 0
BITMAP
07E0
1FF0
3FF8
7C7C
7838
F000
F000
F000
F000
F800
7800
7C00
3F80
3F80
0F80
0780
0780
0780
0780
0780
0780
ENDCHAR
STARTCHAR 0296
ENCODING 662
SWIDTH 548 0
DWIDTH 16 0
BBX 14 21 1 0
BITMAP
0780
0780
0780
0780
0780
0780
07C0
07F0
07F8
00F8
007C
003C
003C
003C
003C
003C
7078
F8F8
7FF0
3FE0
1FC0
ENDCHAR
STARTCHAR 0297
ENCODING 663
SWIDTH 548 0
DWIDTH 16 0
BBX 14 22 1 -6
BITMAP
07E0
1FF0
3FF8
7C7C
7838
F000
F000
F000
F000
F000
F000
F000
F000
F000
F000
F000
F038
783C
7C7C
3FF8
1FF0
07C0
ENDCHAR
STARTCHAR 0298
ENCODING 664
SWIDTH 788 0
DWIDTH 23 0
BBX 20 21 1 0
BITMAP
01FC00
0FFF00
1FFF80
3FFFC0
3F07E0
7C03E0
7C01F0
7800F0
F8F0F0
F8F0F0
F8F0F0
F8F0F0
F800F0
7800F0
7C01F0
7C03E0
3F07E0
3FFFC0
1FFF80
07FF00
01FC00
ENDCHAR
STARTCHAR 0299
ENCODING 665
SWIDTH 617 0
DWIDTH 18 0
BBX 15 16 2 0
BITMAP
FFF0
FFF8
FFFC
F03C
F03C
F03C
FFF8
FFF0
FFF8
F03C
F03E
F03E
F03E
FFFC
FFFC
FFF0
ENDCHAR
STARTCHAR 029A
ENCODING 666
SWIDTH 548 0
DWIDTH 16 0
BBX 14 16 1 0
BITMAP
0F80
3FE0
7FF0
78F8
707C
783C
3E3C
1E3C
7E3C
783C
F03C
F07C
F8F8
7FF0
3FE0
1FC0
ENDCHAR
STARTCHAR 029B
ENCODING 667
SWIDTH 582 0
DWIDTH 17 0
BBX 19 19 1 0
BITMAP
0007E0
000FE0
001FE0
07FE00
1FFE00
3FFE00
7C3E00
781C00
F80000
F00000
F00000
F0FE00
F0FE00
F8FE00
781E00
7C1E00
3FFE00
1FFC00
07F000
ENDCHAR
STARTCHAR 029C
ENCODING 668
SWIDTH 617 0
DWIDTH 18 0
BBX 14 16 2 0
BITMAP
F03C
F03C
F03C
F03C
F03C
F03C
FFFC
FFFC
FFFC
F03C
F03C
F03C
F03C
F03C
F03C
F03C
ENDCHAR
STARTCHAR 029D
ENCODING 669
SWIDTH 445 0
DWIDTH 13 0
BBX 13 27 0 -6
BITMAP
01E0
01E0
01E0
0000
0000
01E0
01E0
01E0
01E0
01E0
01E0
01E0
01E0
01E0
01E0
01E0
01E0
01E0
1FF8
3FF8
7FF8
F1E0
F1E0
71E0
7FC0
3FC0
1F00
ENDCHAR
STARTCHAR 029E
ENCODING 670
SWIDTH 548 0
DWIDTH 16 0
BBX 13 22 1 -6
BITMAP
F078
F078
7878
7878
3C78
3C78
1EF8
1FF8
0FF8
0FF8
0FF8
0F78
1E78
3E78
7C78
F878
0078
0078
0078
0078
0078
0078
ENDCHAR
STARTCHAR 029F
ENCODING 671
SWIDTH 445 0
DWIDTH 13 0
BBX 10 16 2 0
BITMAP
F000
F000
F000
F000
F000
F000
F000
F000
F000
F000
F000
F000
F000
FFC0
FFC0
FFC0
ENDCHAR
STARTCHAR 02A0
ENCODING 672
SWIDTH 617 0
DWIDTH 18 0
BBX 19 27 1 -6
BITMAP
0007E0
000FE0
001FC0
001E00
001E00
0F9E00
1FDE00
3FFE00
7C7E00
783E00
F81E00
F01E00
F01E00
F01E00
F01E00
781E00
783E00
7C7E00
3FFE00
1FDE00
0F9E00
001E00
001E00
001E00
001E00
001E00
001E00
ENDCHAR
STARTCHAR 02A1
ENCODING 673
SWIDTH 548 0
DWIDTH 16 0
BBX 14 21 1 0
BITMAP
0FC0
3FE0
7FF0
F8F8
7078
003C
003C
003C
003C
003C
007C
00F8
07F8
07F0
07C0
0780
FFF8
FFF8
FFF8
0780
0780
ENDCHAR
STARTCHAR 02A2
ENCODING 674
SWIDTH 548 0
DWIDTH 16 0
BBX 14 21 1 0
BITMAP
07E0
1FF0
3FF8
7C7C
7838
F000
F000
F000
F000
F800
7800
7C00
3F80
3F80
0F80
0780
7FFC
7FFC
7FFC
0780
0780
ENDCHAR
STARTCHAR 02A3
ENCODING 675
SWIDTH 1028 0
DWIDTH 30 0
BBX 28 21 1 0
BITMAP
001E0000
001E0000
001E0000
001E0000
001E0000
0F9FFFF0
3FDFFFF0
3FFFFFF0
7C7E03E0
783E07C0
F81E07C0
F01E0F80
F01E1F00
F01E3E00
F01E3E00
F81E7C00
783EF800
7C7FF800
3FFFFFF0
1FDFFFF0
0F9FFFF0
ENDCHAR
STARTCHAR 02A4
ENCODING 676
SWIDTH 925 0
DWIDTH 27 0
BBX 26 27 1 -6
BITMAP
001E0000
001E0000
001E0000
001E0000
001E0000
0F9FFF80
3FDFFF80
3FFFFF80
7C7E0F80
783E1F00
F81E3E00
F01E3C00
F01E7800
F01EFC00
F01EFF00
F81E0F80
783E0780
7C7E0780
3FFE03C0
1FDE03C0
0F9E03C0
000007C0
000E0780
001F0F80
000FFF00
0007FE00
0001F800
ENDCHAR
STARTCHAR 02A5
ENCODING 677
SWIDTH 1200 0
DWIDTH 35 0
BBX 34 24 1 -3
BITMAP
001E000000
001E000000
001E000000
001E000000
001E000000
0F9FFFF000
3FDFFFF000
3FFFFFF000
7C7E03E000
783E07C000
F81E07C000
F01E0F8000
F01E1F0000
F01E3E1E00
F01E3E7F80
F81E7CFF80
783EF9F3C0
7C7FFBE3C0
3FFFFFFF80
1FDFFFFF80
0F9FFFFE00
00000F0000
00000E0000
0000060000
ENDCHAR
STARTCHAR 02A6
ENCODING 678
SWIDTH 822 0
DWIDTH 24 0
BBX 22 21 0 0
BITMAP
040000
1C0000
3C0000
3C0000
3C0000
FFFFC0
FFFFF0
FFFFF8
3C7878
3C7030
3C7800
3C7F00
3C3FE0
3C1FF8
3C07FC
3C007C
3C003C
3C003C
3FFFFC
1FFFF8
0FFFE0
ENDCHAR
STARTCHAR 02A7
ENCODING 679
SWIDTH 514 0
DWIDTH 15 0
BBX 17 27 0 -6
BITMAP
041F80
1C3F80
3C7F80
3C7800
3C7800
FFF800
FFF800
FFF800
3C7800
3C7800
3C7800
3C7800
3C7800
3C7800
3C7800
3C7800
3C7800
3C7800
3FF800
1FF800
0FF800
007800
007800
007800
07F800
07F000
07E000
ENDCHAR
STARTCHAR 02A8
ENCODING 680
SWIDTH 822 0
DWIDTH 24 0
BBX 23 21 0 0
BITMAP
040000
1C0000
3C0000
3C0000
3C0000
FF87E0
FF8FF8
FF9FFC
3C3E3C
3C3C1E
3C781C
3C7800
3C78F8
3C7BFC
3C7FFE
3C7F1E
3C7E1E
3EFE1E
1FFFFC
1FEFFC
0F83F0
ENDCHAR
STARTCHAR 02A9
ENCODING 681
SWIDTH 857 0
DWIDTH 25 0
BBX 23 27 0 -6
BITMAP
0FE000
1FC000
1FC000
1E0000
1E0000
FFF8F8
FFFBFC
FFFFFE
1E7E3E
1E7C1E
1E7C1E
1E7C1E
1E7C1E
1E781E
1E781E
1E781E
1E781E
1E781E
1E781E
1E781E
1E781E
00001E
00001E
00001E
0000FE
0000FC
0000F8
ENDCHAR
STARTCHAR 02AA
ENCODING 682
SWIDTH 788 0
DWIDTH 23 0
BBX 19 21 2 0
BITMAP
F00000
F00000
F00000
F00000
F00000
F07E00
F1FF80
F3FFC0
F3C3C0
F38180
F3C000
F3F000
F1FF00
F0FFC0
F01FE0
F001E0
F801E0
FE03E0
FFFFC0
FFFF80
F3FE00
ENDCHAR
STARTCHAR 02AB
ENCODING 683
SWIDTH 685 0
DWIDTH 20 0
BBX 17 21 2 0
BITMAP
F00000
F00000
F00000
F00000
F00000
FFFF80
FFFF80
FFFF80
F01F00
F01F00
F03E00
F07C00
F0F800
F0F800
F1F000
F3E000
F7C000
F7C000
FFFF80
FFFF80
FFFF80
ENDCHAR
STARTCHAR 02AC
ENCODING 684
SWIDTH 514 0
DWIDTH 15 0
BBX 14 21 1 0
BITMAP
C71C
C71C
E798
67B8
6DB8
6DB0
7DF0
3CF0
38E0
38E0
0000
C71C
C71C
E798
67B8
6DB8
6DB0
7DF0
3CF0
38E0
38E0
ENDCHAR
STARTCHAR 02AD
ENCODING 685
SWIDTH 548 0
DWIDTH 16 0
BBX 12 21 2 0
BITMAP
FFF0
FFF0
FFF0
FFF0
E070
E070
E070
0000
0000
0000
0000
0000
0000
0000
FFF0
FFF0
FFF0
FFF0
E070
E070
E070
ENDCHAR
STARTCHAR 02AE
ENCODING 686
SWIDTH 720 0
DWIDTH 21 0
BBX 19 22 0 -6
BITMAP
FC01E0
FE01E0
FF01E0
0F81E0
0781E0
0781E0
0781E0
0781E0
0781E0
0781E0
0781E0
03C1E0
03C3E0
03FFE0
01FDE0
00F9E0
0001E0
0001E0
0001E0
0001E0
0001E0
0001E0
ENDCHAR
STARTCHAR 02AF
ENCODING 687
SWIDTH 720 0
DWIDTH 21 0
BBX 25 22 0 -6
BITMAP
FC01E000
FE01E000
FF01E000
0F81E000
0781E000
0781E000
0781E000
0781E000
0781E000
0781E000
0781E000
03C1E000
03C3E000
03FFE000
01FDE000
00F9E000
0001E000
0001E000
0000F100
0000FF00
00007F00
00001F80
ENDCHAR
STARTCHAR 02B0
ENCODING 688
SWIDTH 377 0
DWIDTH 11 0
BBX 9 14 1 7
BITMAP
C000
C000
C000
C000
CE00
FF00
E380
E380
C380
C380
C380
C380
C380
C380
ENDCHAR
STARTCHAR 02B1
ENCODING 689
SWIDTH 377 0
DWIDTH 11 0
BBX 9 14 1 7
BITMAP
7800
F800
E000
C000
CE00
FF00
E380
E380
C380
C380
C380
C380
C380
C380
ENDCHAR
STARTCHAR 02B2
ENCODING 690
SWIDTH 205 0
DWIDTH 6 0
BBX 5 18 0 3
BITMAP
38
38
38
00
38
38
38
38
38
38
38
38
38
38
30
30
F0
E0
ENDCHAR
STARTCHAR 02B3
ENCODING 691
SWIDTH 240 0
DWIDTH 7 0
BBX 6 10 1 7
BITMAP
DC
FC
E0
E0
C0
C0
C0
C0
C0
C0
ENDCHAR
STARTCHAR 02B4
ENCODING 692
SWIDTH 240 0
DWIDTH 7 0
BBX 7 10 0 7
BITMAP
0E
0E
0E
0E
0E
0E
0E
1E
FE
EE
ENDCHAR
STARTCHAR 02B5
ENCODING 693
SWIDTH 240 0
DWIDTH 7 0
BBX 9 14 0 3
BITMAP
0E00
0E00
0E00
0E00
0E00
0E00
0E00
1E00
FE00
EE00
0E00
0E00
0F80
0780
ENDCHAR
STARTCHAR 02B6
ENCODING 694
SWIDTH 377 0
DWIDTH 11 0
BBX 10 10 1 7
BITMAP
C3C0
C380
C700
CE00
FF00
FF80
C380
C380
FF80
FF00
ENDCHAR
STARTCHAR 02B7
ENCODING 695
SWIDTH 514 0
DWIDTH 15 0
BBX 15 10 0 7
BITMAP
E38E
E38E
63CC
77DC
76DC
36D8
3EF8
3E78
1C70
1C70
ENDCHAR
STARTCHAR 02B8
ENCODING 696
SWIDTH 342 0
DWIDTH 10 0
BBX 10 14 0 3
BITMAP
E1C0
61C0
71C0
7380
3380
3B00
3B00
1F00
1E00
0E00
0E00
1C00
7C00
7800
ENDCHAR
STARTCHAR 02B9
ENCODING 697
SWIDTH 240 0
DWIDTH 7 0
BBX 5 7 1 14
BITMAP
F8
F8
F8
F8
70
70
70
ENDCHAR
STARTCHAR 02BA
ENCODING 698
SWIDTH 480 0
DWIDTH 14 0
BBX 10 7 2 14
BITMAP
F3C0
F3C0
F3C0
F3C0
F3C0
F3C0
E1C0
ENDCHAR
STARTCHAR 02BB
ENCODING 699
SWIDTH 274 0
DWIDTH 8 0
BBX 4 9 2 12
BITMAP
10
70
60
E0
C0
F0
F0
F0
F0
ENDCHAR
STARTCHAR 02BC
ENCODING 700
SWIDTH 274 0
DWIDTH 8 0
BBX 4 9 2 12
BITMAP
F0
F0
F0
F0
30
30
60
E0
80
ENDCHAR
STARTCHAR 02BD
ENCODING 701
SWIDTH 274 0
DWIDTH 8 0
BBX 4 9 2 12
BITMAP
F0
F0
F0
F0
C0
C0
60
70
10
ENDCHAR
STARTCHAR 02BE
ENCODING 702
SWIDTH 342 0
DWIDTH 10 0
BBX 3 6 3 18
BITMAP
C0
E0
20
20
E0
C0
ENDCHAR
STARTCHAR 02BF
ENCODING 703
SWIDTH 342 0
DWIDTH 10 0
BBX 3 6 3 18
BITMAP
20
60
C0
C0
60
20
ENDCHAR
STARTCHAR 02C0
ENCODING 704
SWIDTH 377 0
DWIDTH 11 0
BBX 9 14 1 7
BITMAP
3E00
7F00
E380
C380
0380
0380
0380
0380
1F00
1E00
1C00
1C00
1C00
1C00
ENDCHAR
STARTCHAR 02C1
ENCODING 705
SWIDTH 377 0
DWIDTH 11 0
BBX 9 14 1 7
BITMAP
3E00
7F00
E380
E380
C000
C000
E000
E000
7C00
3C00
1C00
1C00
1C00
1C00
ENDCHAR
STARTCHAR 02C2
ENCODING 706
SWIDTH 582 0
DWIDTH 17 0
BBX 15 16 1 2
BITMAP
0006
001E
007E
01FE
0FF8
3FE0
FF00
FC00
FC00
FF00
3FE0
0FF8
01FE
007E
001E
0006
ENDCHAR
STARTCHAR 02C3
ENCODING 707
SWIDTH 582 0
DWIDTH 17 0
BBX 15 16 1 2
BITMAP
8000
F000
FC00
FF00
3FE0
0FF8
01FE
007E
007E
01FE
0FF8
3FE0
FF00
FC00
F000
8000
ENDCHAR
STARTCHAR 02C4
ENCODING 708
SWIDTH 582 0
DWIDTH 17 0
BBX 15 14 1 3
BITMAP
0380
07C0
07C0
0FE0
0FE0
1EF0
1EF0
3C78
3C78
3838
783C
783C
F01E
F01E
ENDCHAR
STARTCHAR 02C5
ENCODING 709
SWIDTH 582 0
DWIDTH 17 0
BBX 15 14 1 3
BITMAP
F01E
F01E
783C
783C
3838
3C78
3C78
1EF0
1EF0
0FE0
0FE0
07C0
07C0
0380
ENDCHAR
STARTCHAR 02C6
ENCODING 710
SWIDTH 342 0
DWIDTH 10 0
BBX 9 4 0 17
BITMAP
1E00
3F00
7780
F380
ENDCHAR
STARTCHAR 02C7
ENCODING 711
SWIDTH 342 0
DWIDTH 10 0
BBX 9 4 0 17
BITMAP
F380
7780
3F00
1E00
ENDCHAR
STARTCHAR 02C8
ENCODING 712
SWIDTH 342 0
DWIDTH 10 0
BBX 2 5 4 18
BITMAP
C0
C0
C0
C0
C0
ENDCHAR
STARTCHAR 02C9
ENCODING 713
SWIDTH 342 0
DWIDTH 10 0
BBX 9 3 0 18
BITMAP
FF80
FF80
FF80
ENDCHAR
STARTCHAR 02CA
ENCODING 714
SWIDTH 342 0
DWIDTH 10 0
BBX 6 4 3 18
BITMAP
7C
78
F0
E0
ENDCHAR
STARTCHAR 02CB
ENCODING 715
SWIDTH 342 0
DWIDTH 10 0
BBX 6 4 1 18
BITMAP
F0
78
38
1C
ENDCHAR
STARTCHAR 02CC
ENCODING 716
SWIDTH 342 0
DWIDTH 10 0
BBX 2 5 4 -6
BITMAP
C0
C0
C0
C0
C0
ENDCHAR
STARTCHAR 02CD
ENCODING 717
SWIDTH 342 0
DWIDTH 10 0
BBX 9 3 0 -5
BITMAP
FF80
FF80
FF80
ENDCHAR
STARTCHAR 02CE
ENCODING 718
SWIDTH 342 0
DWIDTH 10 0
BBX 6 4 1 -6
BITMAP
F0
78
38
1C
ENDCHAR
STARTCHAR 02CF
ENCODING 719
SWIDTH 342 0
DWIDTH 10 0
BBX 6 4 3 -6
BITMAP
7C
78
F0
E0
ENDCHAR
STARTCHAR 02D0
ENCODING 720
SWIDTH 342 0
DWIDTH 10 0
BBX 4 16 3 0
BITMAP
F0
E0
60
60
00
00
00
00
00
00
00
00
60
60
E0
F0
ENDCHAR
STARTCHAR 02D1
ENCODING 721
SWIDTH 342 0
DWIDTH 10 0
BBX 4 4 3 12
BITMAP
F0
E0
60
60
ENDCHAR
STARTCHAR 02D2
ENCODING 722
SWIDTH 342 0
DWIDTH 10 0
BBX 3 6 3 1
BITMAP
C0
E0
20
20
E0
C0
ENDCHAR
STARTCHAR 02D3
ENCODING 723
SWIDTH 342 0
DWIDTH 10 0
BBX 3 6 3 1
BITMAP
20
60
C0
C0
60
20
ENDCHAR
STARTCHAR 02D4
ENCODING 724
SWIDTH 342 0
DWIDTH 10 0
BBX 5 6 2 3
BITMAP
30
30
30
30
F8
F8
ENDCHAR
STARTCHAR 02D5
ENCODING 725
SWIDTH 342 0
DWIDTH 10 0
BBX 5 6 2 3
BITMAP
F8
F8
30
30
30
30
ENDCHAR
STARTCHAR 02D6
ENCODING 726
SWIDTH 342 0
DWIDTH 10 0
BBX 5 6 2 3
BITMAP
30
30
F8
F8
30
30
ENDCHAR
STARTCHAR 02D7
ENCODING 727
SWIDTH 342 0
DWIDTH 10 0
BBX 9 3 0 4
BITMAP
FF80
FF80
FF80
ENDCHAR
STARTCHAR 02D8
ENCODING 728
SWIDTH 342 0
DWIDTH 10 0
BBX 9 4 0 17
BITMAP
C180
6180
7F00
1E00
ENDCHAR
STARTCHAR 02D9
ENCODING 729
SWIDTH 342 0
DWIDTH 10 0
BBX 4 4 3 17
BITMAP
F0
F0
F0
F0
ENDCHAR
STARTCHAR 02DA
ENCODING 730
SWIDTH 342 0
DWIDTH 10 0
BBX 6 6 2 15
BITMAP
70
F8
CC
CC
F8
70
ENDCHAR
STARTCHAR 02DB
ENCODING 731
SWIDTH 342 0
DWIDTH 10 0
BBX 5 6 1 -6
BITMAP
70
E0
E0
E0
F8
78
ENDCHAR
STARTCHAR 02DC
ENCODING 732
SWIDTH 342 0
DWIDTH 10 0
BBX 10 3 0 18
BITMAP
78C0
FF80
C780
ENDCHAR
STARTCHAR 02DD
ENCODING 733
SWIDTH 342 0
DWIDTH 10 0
BBX 10 4 2 17
BITMAP
7BC0
7380
E780
C700
ENDCHAR
STARTCHAR 02DE
ENCODING 734
SWIDTH 342 0
DWIDTH 10 0
BBX 8 7 0 5
BITMAP
20
E0
E0
F1
7F
3F
1E
ENDCHAR
STARTCHAR 02DF
ENCODING 735
SWIDTH 342 0
DWIDTH 10 0
BBX 9 7 0 14
BITMAP
4080
E380
3F00
1C00
3F00
6380
C080
ENDCHAR
STARTCHAR 02E0
ENCODING 736
SWIDTH 377 0
DWIDTH 11 0
BBX 10 14 0 3
BITMAP
E1C0
71C0
7380
3B80
3F00
1F00
1E00
0E00
1E00
1F00
1F00
3B00
3F00
1E00
ENDCHAR
STARTCHAR 02E1
ENCODING 737
SWIDTH 137 0
DWIDTH 4 0
BBX 2 14 1 7
BITMAP
C0
C0
C0
C0
C0
C0
C0
C0
C0
C0
C0
C0
C0
C0
ENDCHAR
STARTCHAR 02E2
ENCODING 738
SWIDTH 377 0
DWIDTH 11 0
BBX 9 10 1 7
BITMAP
3E00
FF00
E380
F000
FE00
3F80
0780
E380
FF80
3E00
ENDCHAR
STARTCHAR 02E3
ENCODING 739
SWIDTH 377 0
DWIDTH 11 0
BBX 10 10 0 7
BITMAP
71C0
7B80
3F80
1F00
1E00
1E00
3F00
3B80
73C0
F1C0
ENDCHAR
STARTCHAR 02E4
ENCODING 740
SWIDTH 377 0
DWIDTH 11 0
BBX 9 14 1 7
BITMAP
3E00
7F00
E380
E380
C000
C000
E000
E000
7C00
3C00
1C00
1C00
1C00
1C00
ENDCHAR
STARTCHAR 02E5
ENCODING 741
SWIDTH 377 0
DWIDTH 11 0
BBX 7 21 2 0
BITMAP
FE
FE
06
06
06
06
06
06
06
06
06
06
06
06
06
06
06
06
06
06
06
ENDCHAR
STARTCHAR 02E6
ENCODING 742
SWIDTH 377 0
DWIDTH 11 0
BBX 7 21 2 0
BITMAP
06
06
06
06
06
FE
FE
06
06
06
06
06
06
06
06
06
06
06
06
06
06
ENDCHAR
STARTCHAR 02E7
ENCODING 743
SWIDTH 377 0
DWIDTH 11 0
BBX 7 21 2 0
BITMAP
06
06
06
06
06
06
06
06
06
06
FE
FE
06
06
06
06
06
06
06
06
06
ENDCHAR
STARTCHAR 02E8
ENCODING 744
SWIDTH 377 0
DWIDTH 11 0
BBX 7 21 2 0
BITMAP
06
06
06
06
06
06
06
06
06
06
06
06
06
06
FE
FE
06
06
06
06
06
ENDCHAR
STARTCHAR 02E9
ENCODING 745
SWIDTH 377 0
DWIDTH 11 0
BBX 7 21 2 0
BITMAP
06
06
06
06
06
06
06
06
06
06
06
06
06
06
06
06
06
06
06
FE
FE
ENDCHAR
STARTCHAR 02EA
ENCODING 746
SWIDTH 342 0
DWIDTH 10 0
BBX 7 12 1 0
BITMAP
C0
C0
C0
C0
C0
C0
C0
C0
C0
C0
C0
FE
ENDCHAR
STARTCHAR 02EB
ENCODING 747
SWIDTH 342 0
DWIDTH 10 0
BBX 7 12 1 0
BITMAP
C0
C0
C0
C0
C0
C0
FE
C0
C0
C0
C0
C0
ENDCHAR
STARTCHAR 02EC
ENCODING 748
SWIDTH 342 0
DWIDTH 10 0
BBX 9 4 0 -6
BITMAP
F380
7780
3F00
1E00
ENDCHAR
STARTCHAR 02ED
ENCODING 749
SWIDTH 342 0
DWIDTH 10 0
BBX 9 5 0 18
BITMAP
FF80
FF80
0000
FF80
FF80
ENDCHAR
STARTCHAR 02EE
ENCODING 750
SWIDTH 514 0
DWIDTH 15 0
BBX 10 9 2 12
BITMAP
F3C0
F3C0
F3C0
F3C0
30C0
70C0
E1C0
E380
8100
ENDCHAR
STARTCHAR 02EF
ENCODING 751
SWIDTH 342 0
DWIDTH 10 0
BBX 5 4 2 -5
BITMAP
C8
58
70
20
ENDCHAR
STARTCHAR 02F0
ENCODING 752
SWIDTH 342 0
DWIDTH 10 0
BBX 5 4 2 -5
BITMAP
30
70
58
C8
ENDCHAR
STARTCHAR 02F1
ENCODING 753
SWIDTH 342 0
DWIDTH 10 0
BBX 4 6 3 -6
BITMAP
10
30
E0
E0
30
10
ENDCHAR
STARTCHAR 02F2
ENCODING 754
SWIDTH 342 0
DWIDTH 10 0
BBX 4 6 3 -6
BITMAP
80
C0
70
70
C0
80
ENDCHAR
STARTCHAR 02F3
ENCODING 755
SWIDTH 342 0
DWIDTH 10 0
BBX 6 6 2 -7
BITMAP
70
F8
CC
CC
F8
70
ENDCHAR
STARTCHAR 02F4
ENCODING 756
SWIDTH 342 0
DWIDTH 10 0
BBX 6 4 1 3
BITMAP
F0
78
38
1C
ENDCHAR
STARTCHAR 02F5
ENCODING 757
SWIDTH 342 0
DWIDTH 10 0
BBX 10 4 0 3
BITMAP
E780
F380
71C0
38C0
ENDCHAR
STARTCHAR 02F6
ENCODING 758
SWIDTH 342 0
DWIDTH 10 0
BBX 11 4 -1 3
BITMAP
3DE0
79C0
7380
E300
ENDCHAR
STARTCHAR 02F7
ENCODING 759
SWIDTH 342 0
DWIDTH 10 0
BBX 10 3 0 -6
BITMAP
78C0
FF80
C780
ENDCHAR
STARTCHAR 02F8
ENCODING 760
SWIDTH 342 0
DWIDTH 10 0
BBX 4 15 3 6
BITMAP
F0
F0
F0
F0
00
00
00
00
00
00
00
F0
F0
F0
F0
ENDCHAR
STARTCHAR 02F9
ENCODING 761
SWIDTH 342 0
DWIDTH 10 0
BBX 5 5 2 16
BITMAP
F8
F8
C0
C0
C0
ENDCHAR
STARTCHAR 02FA
ENCODING 762
SWIDTH 342 0
DWIDTH 10 0
BBX 5 5 2 16
BITMAP
F8
F8
08
08
08
ENDCHAR
STARTCHAR 02FB
ENCODING 763
SWIDTH 342 0
DWIDTH 10 0
BBX 5 5 2 -6
BITMAP
C0
C0
C0
F8
F8
ENDCHAR
STARTCHAR 02FC
ENCODING 764
SWIDTH 342 0
DWIDTH 10 0
BBX 5 5 2 -6
BITMAP
08
08
08
F8
F8
ENDCHAR
STARTCHAR 02FD
ENCODING 765
SWIDTH 411 0
DWIDTH 12 0
BBX 11 5 0 -6
BITMAP
E060
E060
E060
FFE0
FFE0
ENDCHAR
STARTCHAR 02FE
ENCODING 766
SWIDTH 411 0
DWIDTH 12 0
BBX 11 5 0 -6
BITMAP
E000
E000
E000
FFE0
FFE0
ENDCHAR
STARTCHAR 02FF
ENCODING 767
SWIDTH 342 0
DWIDTH 10 0
BBX 8 7 1 -5
BITMAP
30
60
40
FF
40
60
30
ENDCHAR
STARTCHAR 0300
ENCODING 768
SWIDTH 0 0
DWIDTH 0 0
BBX 6 4 -8 23
BITMAP
F0
78
38
1C
ENDCHAR
STARTCHAR 0301
ENCODING 769
SWIDTH 0 0
DWIDTH 0 0
BBX 6 4 -6 23
BITMAP
3C
78
70
E0
ENDCHAR
STARTCHAR 0302
ENCODING 770
SWIDTH 0 0
DWIDTH 0 0
BBX 8 4 -4 18
BITMAP
3C
7E
FF
E7
ENDCHAR
STARTCHAR 0303
ENCODING 771
SWIDTH 0 0
DWIDTH 0 0
BBX 10 3 -13 23
BITMAP
78C0
FF80
C780
ENDCHAR
STARTCHAR 0304
ENCODING 772
SWIDTH 0 0
DWIDTH 0 0
BBX 10 3 -5 18
BITMAP
FFC0
FFC0
FFC0
ENDCHAR
STARTCHAR 0305
ENCODING 773
SWIDTH 0 0
DWIDTH 0 0
BBX 16 3 -8 22
BITMAP
FFFF
FFFF
FFFF
ENDCHAR
STARTCHAR 0306
ENCODING 774
SWIDTH 0 0
DWIDTH 0 0
BBX 8 4 -4 18
BITMAP
C3
C3
7E
3C
ENDCHAR
STARTCHAR 0307
ENCODING 775
SWIDTH 0 0
DWIDTH 0 0
BBX 4 4 -2 18
BITMAP
F0
F0
F0
F0
ENDCHAR
STARTCHAR 0308
ENCODING 776
SWIDTH 0 0
DWIDTH 0 0
BBX 10 3 -5 18
BITMAP
F3C0
F3C0
F3C0
ENDCHAR
STARTCHAR 0309
ENCODING 777
SWIDTH 0 0
DWIDTH 0 0
BBX 6 5 -7 22
BITMAP
F8
0C
0C
3C
30
ENDCHAR
STARTCHAR 030A
ENCODING 778
SWIDTH 0 0
DWIDTH 0 0
BBX 6 6 -3 18
BITMAP
78
78
CC
CC
78
78
ENDCHAR
STARTCHAR 030B
ENCODING 779
SWIDTH 0 0
DWIDTH 0 0
BBX 10 4 -5 18
BITMAP
7BC0
7380
E780
C700
ENDCHAR
STARTCHAR 030C
ENCODING 780
SWIDTH 0 0
DWIDTH 0 0
BBX 8 4 -4 18
BITMAP
E7
FF
7E
3C
ENDCHAR
STARTCHAR 030D
ENCODING 781
SWIDTH 0 0
DWIDTH 0 0
BBX 2 5 -1 18
BITMAP
C0
C0
C0
C0
C0
ENDCHAR
STARTCHAR 030E
ENCODING 782
SWIDTH 0 0
DWIDTH 0 0
BBX 4 5 -2 18
BITMAP
90
90
90
90
90
ENDCHAR
STARTCHAR 030F
ENCODING 783
SWIDTH 0 0
DWIDTH 0 0
BBX 10 4 -5 18
BITMAP
F780
7380
39C0
38C0
ENDCHAR
STARTCHAR 0310
ENCODING 784
SWIDTH 0 0
DWIDTH 0 0
BBX 8 8 -4 18
BITMAP
3C
3C
3C
3C
C3
C3
7E
3C
ENDCHAR
STARTCHAR 0311
ENCODING 785
SWIDTH 0 0
DWIDTH 0 0
BBX 8 4 -4 18
BITMAP
3C
7E
C3
C3
ENDCHAR
STARTCHAR 0312
ENCODING 786
SWIDTH 0 0
DWIDTH 0 0
BBX 4 9 -2 12
BITMAP
30
70
E0
C0
C0
F0
F0
F0
F0
ENDCHAR
STARTCHAR 0313
ENCODING 787
SWIDTH 0 0
DWIDTH 0 0
BBX 4 9 -2 12
BITMAP
F0
F0
F0
F0
30
30
70
E0
C0
ENDCHAR
STARTCHAR 0314
ENCODING 788
SWIDTH 0 0
DWIDTH 0 0
BBX 4 9 -2 12
BITMAP
F0
F0
F0
F0
C0
C0
E0
70
30
ENDCHAR
STARTCHAR 0315
ENCODING 789
SWIDTH 0 0
DWIDTH 0 0
BBX 4 9 0 12
BITMAP
F0
F0
F0
F0
30
30
70
E0
40
ENDCHAR
STARTCHAR 0316
ENCODING 790
SWIDTH 0 0
DWIDTH 0 0
BBX 6 4 -3 -6
BITMAP
F8
78
3C
1C
ENDCHAR
STARTCHAR 0317
ENCODING 791
SWIDTH 0 0
DWIDTH 0 0
BBX 6 4 -3 -6
BITMAP
3C
78
70
E0
ENDCHAR
STARTCHAR 0318
ENCODING 792
SWIDTH 0 0
DWIDTH 0 0
BBX 5 6 -3 -7
BITMAP
08
08
F8
F8
08
08
ENDCHAR
STARTCHAR 0319
ENCODING 793
SWIDTH 0 0
DWIDTH 0 0
BBX 5 6 -2 -7
BITMAP
80
80
F8
F8
80
80
ENDCHAR
STARTCHAR 031A
ENCODING 794
SWIDTH 0 0
DWIDTH 0 0
BBX 10 7 -5 18
BITMAP
FFC0
FFC0
00C0
00C0
00C0
00C0
00C0
ENDCHAR
STARTCHAR 031B
ENCODING 795
SWIDTH 0 0
DWIDTH 0 0
BBX 5 9 0 12
BITMAP
78
78
78
78
18
18
70
F0
C0
ENDCHAR
STARTCHAR 031C
ENCODING 796
SWIDTH 0 0
DWIDTH 0 0
BBX 2 6 -1 -7
BITMAP
40
C0
80
80
C0
40
ENDCHAR
STARTCHAR 031D
ENCODING 797
SWIDTH 0 0
DWIDTH 0 0
BBX 4 6 -2 -7
BITMAP
60
60
60
60
F0
F0
ENDCHAR
STARTCHAR 031E
ENCODING 798
SWIDTH 0 0
DWIDTH 0 0
BBX 4 5 -2 -6
BITMAP
F0
F0
60
60
60
ENDCHAR
STARTCHAR 031F
ENCODING 799
SWIDTH 0 0
DWIDTH 0 0
BBX 4 6 -2 -7
BITMAP
60
60
F0
F0
60
60
ENDCHAR
STARTCHAR 0320
ENCODING 800
SWIDTH 0 0
DWIDTH 0 0
BBX 10 3 -5 -5
BITMAP
FFC0
FFC0
FFC0
ENDCHAR
STARTCHAR 0321
ENCODING 801
SWIDTH 0 0
DWIDTH 0 0
BBX 7 7 -3 -6
BITMAP
1E
1E
1E
1E
FE
FC
F8
ENDCHAR
STARTCHAR 0322
ENCODING 802
SWIDTH 0 0
DWIDTH 0 0
BBX 7 7 0 -6
BITMAP
F0
F0
F0
F0
FE
7E
3E
ENDCHAR
STARTCHAR 0323
ENCODING 803
SWIDTH 0 0
DWIDTH 0 0
BBX 4 4 -13 -7
BITMAP
F0
F0
F0
F0
ENDCHAR
STARTCHAR 0324
ENCODING 804
SWIDTH 0 0
DWIDTH 0 0
BBX 10 3 -5 -6
BITMAP
F3C0
F3C0
F3C0
ENDCHAR
STARTCHAR 0325
ENCODING 805
SWIDTH 0 0
DWIDTH 0 0
BBX 6 6 -3 -7
BITMAP
78
78
CC
CC
78
78
ENDCHAR
STARTCHAR 0326
ENCODING 806
SWIDTH 0 0
DWIDTH 0 0
BBX 4 5 -2 -6
BITMAP
F0
F0
30
60
C0
ENDCHAR
STARTCHAR 0327
ENCODING 807
SWIDTH 0 0
DWIDTH 0 0
BBX 8 6 -4 -6
BITMAP
3C
3F
07
07
FE
FC
ENDCHAR
STARTCHAR 0328
ENCODING 808
SWIDTH 0 0
DWIDTH 0 0
BBX 6 6 -3 -6
BITMAP
30
70
E0
F0
7C
38
ENDCHAR
STARTCHAR 0329
ENCODING 809
SWIDTH 0 0
DWIDTH 0 0
BBX 2 5 -1 -6
BITMAP
C0
C0
C0
C0
C0
ENDCHAR
STARTCHAR 032A
ENCODING 810
SWIDTH 0 0
DWIDTH 0 0
BBX 10 5 -5 -6
BITMAP
FFC0
FFC0
C0C0
C0C0
C0C0
ENDCHAR
STARTCHAR 032B
ENCODING 811
SWIDTH 0 0
DWIDTH 0 0
BBX 10 3 -5 -5
BITMAP
CCC0
4C80
7F80
ENDCHAR
STARTCHAR 032C
ENCODING 812
SWIDTH 0 0
DWIDTH 0 0
BBX 8 4 -4 -6
BITMAP
E7
FF
7E
3C
ENDCHAR
STARTCHAR 032D
ENCODING 813
SWIDTH 0 0
DWIDTH 0 0
BBX 8 4 -4 -6
BITMAP
3C
7E
FF
E7
ENDCHAR
STARTCHAR 032E
ENCODING 814
SWIDTH 0 0
DWIDTH 0 0
BBX 8 4 -4 -6
BITMAP
C3
C3
7E
3C
ENDCHAR
STARTCHAR 032F
ENCODING 815
SWIDTH 0 0
DWIDTH 0 0
BBX 8 4 -4 -6
BITMAP
3C
7E
C3
C3
ENDCHAR
STARTCHAR 0330
ENCODING 816
SWIDTH 0 0
DWIDTH 0 0
BBX 10 3 -5 -6
BITMAP
78C0
FFC0
C780
ENDCHAR
STARTCHAR 0331
ENCODING 817
SWIDTH 0 0
DWIDTH 0 0
BBX 10 3 -5 -5
BITMAP
FFC0
FFC0
FFC0
ENDCHAR
STARTCHAR 0332
ENCODING 818
SWIDTH 0 0
DWIDTH 0 0
BBX 16 3 -8 -6
BITMAP
FFFF
FFFF
FFFF
ENDCHAR
STARTCHAR 0333
ENCODING 819
SWIDTH 0 0
DWIDTH 0 0
BBX 10 9 -5 -11
BITMAP
FFC0
FFC0
FFC0
0000
0000
0000
FFC0
FFC0
FFC0
ENDCHAR
STARTCHAR 0334
ENCODING 820
SWIDTH 0 0
DWIDTH 0 0
BBX 10 3 -5 3
BITMAP
78C0
FFC0
C780
ENDCHAR
STARTCHAR 0335
ENCODING 821
SWIDTH 0 0
DWIDTH 0 0
BBX 10 3 -5 4
BITMAP
FFC0
FFC0
FFC0
ENDCHAR
STARTCHAR 0336
ENCODING 822
SWIDTH 0 0
DWIDTH 0 0
BBX 16 3 -8 4
BITMAP
FFFF
FFFF
FFFF
ENDCHAR
STARTCHAR 0337
ENCODING 823
SWIDTH 0 0
DWIDTH 0 0
BBX 13 13 -7 0
BITMAP
0010
0038
0078
00F0
01E0
03C0
0780
0F00
1E00
3C00
7800
F000
6000
ENDCHAR
STARTCHAR 0338
ENCODING 824
SWIDTH 0 0
DWIDTH 0 0
BBX 8 21 -4 0
BITMAP
07
07
0E
0E
0E
0E
1C
1C
1C
1C
18
38
38
38
30
70
70
70
70
E0
E0
ENDCHAR
STARTCHAR 0339
ENCODING 825
SWIDTH 0 0
DWIDTH 0 0
BBX 2 6 -1 -7
BITMAP
80
C0
40
40
C0
80
ENDCHAR
STARTCHAR 033A
ENCODING 826
SWIDTH 0 0
DWIDTH 0 0
BBX 10 5 -5 -6
BITMAP
C0C0
C0C0
C0C0
FFC0
FFC0
ENDCHAR
STARTCHAR 033B
ENCODING 827
SWIDTH 0 0
DWIDTH 0 0
BBX 6 5 -3 -6
BITMAP
FC
CC
CC
CC
FC
ENDCHAR
STARTCHAR 033C
ENCODING 828
SWIDTH 0 0
DWIDTH 0 0
BBX 9 3 -5 -5
BITMAP
7F80
CC80
0C00
ENDCHAR
STARTCHAR 033D
ENCODING 829
SWIDTH 0 0
DWIDTH 0 0
BBX 6 6 -3 18
BITMAP
48
FC
78
78
FC
48
ENDCHAR
STARTCHAR 033E
ENCODING 830
SWIDTH 0 0
DWIDTH 0 0
BBX 2 7 -1 18
BITMAP
40
80
80
C0
40
40
80
ENDCHAR
STARTCHAR 033F
ENCODING 831
SWIDTH 0 0
DWIDTH 0 0
BBX 16 5 -8 22
BITMAP
FFFF
FFFF
0000
FFFF
FFFF
ENDCHAR
STARTCHAR 0340
ENCODING 832
SWIDTH 0 0
DWIDTH 0 0
BBX 6 4 -6 18
BITMAP
F0
78
38
1C
ENDCHAR
STARTCHAR 0341
ENCODING 833
SWIDTH 0 0
DWIDTH 0 0
BBX 6 4 0 18
BITMAP
3C
78
70
E0
ENDCHAR
STARTCHAR 0342
ENCODING 834
SWIDTH 0 0
DWIDTH 0 0
BBX 10 3 -5 18
BITMAP
78C0
FFC0
C780
ENDCHAR
STARTCHAR 0343
ENCODING 835
SWIDTH 0 0
DWIDTH 0 0
BBX 4 9 -2 12
BITMAP
F0
F0
F0
F0
30
30
70
E0
C0
ENDCHAR
STARTCHAR 0344
ENCODING 836
SWIDTH 0 0
DWIDTH 0 0
BBX 14 4 -7 18
BITMAP
03C0
E7BC
E73C
E63C
ENDCHAR
STARTCHAR 0345
ENCODING 837
SWIDTH 0 0
DWIDTH 0 0
BBX 4 4 -2 -6
BITMAP
60
F0
F0
F0
ENDCHAR
STARTCHAR 0346
ENCODING 838
SWIDTH 0 0
DWIDTH 0 0
BBX 10 5 -5 18
BITMAP
FFC0
FFC0
C0C0
C0C0
C0C0
ENDCHAR
STARTCHAR 0347
ENCODING 839
SWIDTH 0 0
DWIDTH 0 0
BBX 14 9 -7 -11
BITMAP
FFFC
FFFC
FFFC
0000
0000
0000
FFFC
FFFC
FFFC
ENDCHAR
STARTCHAR 0348
ENCODING 840
SWIDTH 0 0
DWIDTH 0 0
BBX 4 5 -2 -6
BITMAP
90
90
90
90
90
ENDCHAR
STARTCHAR 0349
ENCODING 841
SWIDTH 0 0
DWIDTH 0 0
BBX 5 5 -3 -6
BITMAP
F8
F8
08
08
08
ENDCHAR
STARTCHAR 034A
ENCODING 842
SWIDTH 0 0
DWIDTH 0 0
BBX 10 5 -5 17
BITMAP
0600
7CC0
FFC0
CF80
1800
ENDCHAR
STARTCHAR 034B
ENCODING 843
SWIDTH 0 0
DWIDTH 0 0
BBX 10 7 -5 18
BITMAP
0C00
0C00
78C0
FFC0
C780
0C00
0C00
ENDCHAR
STARTCHAR 034C
ENCODING 844
SWIDTH 0 0
DWIDTH 0 0
BBX 10 6 -5 18
BITMAP
78C0
FFC0
C780
78C0
FFC0
C780
ENDCHAR
STARTCHAR 034D
ENCODING 845
SWIDTH 0 0
DWIDTH 0 0
BBX 6 4 -3 -6
BITMAP
84
FC
FC
84
ENDCHAR
STARTCHAR 034E
ENCODING 846
SWIDTH 0 0
DWIDTH 0 0
BBX 4 5 -2 -6
BITMAP
60
F0
60
60
60
ENDCHAR
STARTCHAR 034F
ENCODING 847
SWIDTH 0 0
DWIDTH 0 0
BBX 20 20 -10 0
BITMAP
F0F0F0
800010
800010
806010
010800
040200
000000
180180
800010
800010
900090
800010
180180
000000
040200
000000
816810
800010
800010
F0F0F0
ENDCHAR
STARTCHAR 0350
ENCODING 848
SWIDTH 0 0
DWIDTH 0 0
BBX 4 6 -2 18
BITMAP
80
C0
70
70
C0
80
ENDCHAR
STARTCHAR 0351
ENCODING 849
SWIDTH 0 0
DWIDTH 0 0
BBX 2 6 -1 18
BITMAP
40
C0
80
80
C0
40
ENDCHAR
STARTCHAR 0352
ENCODING 850
SWIDTH 0 0
DWIDTH 0 0
BBX 8 8 -4 18
BITMAP
3C
7E
C3
C3
3C
3C
3C
3C
ENDCHAR
STARTCHAR 0353
ENCODING 851
SWIDTH 0 0
DWIDTH 0 0
BBX 6 6 -3 -6
BITMAP
48
FC
78
78
FC
48
ENDCHAR
STARTCHAR 0354
ENCODING 852
SWIDTH 0 0
DWIDTH 0 0
BBX 4 6 -2 -6
BITMAP
10
30
E0
E0
30
10
ENDCHAR
STARTCHAR 0355
ENCODING 853
SWIDTH 0 0
DWIDTH 0 0
BBX 4 6 -2 -6
BITMAP
80
C0
70
70
C0
80
ENDCHAR
STARTCHAR 0356
ENCODING 854
SWIDTH 0 0
DWIDTH 0 0
BBX 10 6 -4 -6
BITMAP
8000
C300
7300
7580
CCC0
8000
ENDCHAR
STARTCHAR 0357
ENCODING 855
SWIDTH 0 0
DWIDTH 0 0
BBX 2 6 -1 18
BITMAP
80
C0
40
40
C0
80
ENDCHAR
STARTCHAR 0358
ENCODING 856
SWIDTH 0 0
DWIDTH 0 0
BBX 2 2 4 18
BITMAP
C0
C0
ENDCHAR
STARTCHAR 0359
ENCODING 857
SWIDTH 0 0
DWIDTH 0 0
BBX 4 5 -2 -6
BITMAP
60
D0
F0
E0
90
ENDCHAR
STARTCHAR 035A
ENCODING 858
SWIDTH 0 0
DWIDTH 0 0
BBX 10 6 -5 -7
BITMAP
7380
7F80
CCC0
CCC0
7F80
7380
ENDCHAR
STARTCHAR 035B
ENCODING 859
SWIDTH 0 0
DWIDTH 0 0
BBX 6 7 -3 18
BITMAP
60
60
40
FC
08
18
18
ENDCHAR
STARTCHAR 035C
ENCODING 860
SWIDTH 0 0
DWIDTH 0 0
BBX 22 5 -2 -6
BITMAP
C0001C
700038
3C01F0
0FFFC0
03FE00
ENDCHAR
STARTCHAR 035D
ENCODING 861
SWIDTH 0 0
DWIDTH 0 0
BBX 22 5 -2 18
BITMAP
C0001C
700038
3C01F0
0FFFC0
03FE00
ENDCHAR
STARTCHAR 035E
ENCODING 862
SWIDTH 0 0
DWIDTH 0 0
BBX 16 3 -2 18
BITMAP
FFFF
FFFF
FFFF
ENDCHAR
STARTCHAR 035F
ENCODING 863
SWIDTH 0 0
DWIDTH 0 0
BBX 16 3 -2 -5
BITMAP
FFFF
FFFF
FFFF
ENDCHAR
STARTCHAR 0360
ENCODING 864
SWIDTH 0 0
DWIDTH 0 0
BBX 22 3 -2 18
BITMAP
3FE01C
7FFFF8
E01FE0
ENDCHAR
STARTCHAR 0361
ENCODING 865
SWIDTH 0 0
DWIDTH 0 0
BBX 22 5 -2 18
BITMAP
03FE00
0FFFC0
3C01F0
700038
C0001C
ENDCHAR
STARTCHAR 0362
ENCODING 866
SWIDTH 0 0
DWIDTH 0 0
BBX 16 4 -2 -6
BITMAP
0002
FFFF
FFFF
0002
ENDCHAR
STARTCHAR 0363
ENCODING 867
SWIDTH 0 0
DWIDTH 0 0
BBX 10 10 -5 7
BITMAP
3F00
7F80
6380
0180
0F80
7F80
F180
E380
FF80
3DC0
ENDCHAR
STARTCHAR 0364
ENCODING 868
SWIDTH 0 0
DWIDTH 0 0
BBX 10 10 -5 7
BITMAP
1E00
7F00
7380
E180
FFC0
FFC0
E000
71C0
7F80
1F00
ENDCHAR
STARTCHAR 0365
ENCODING 869
SWIDTH 0 0
DWIDTH 0 0
BBX 2 14 -1 7
BITMAP
C0
C0
C0
00
C0
C0
C0
C0
C0
C0
C0
C0
C0
C0
ENDCHAR
STARTCHAR 0366
ENCODING 870
SWIDTH 0 0
DWIDTH 0 0
BBX 10 10 -5 7
BITMAP
1E00
7F80
E3C0
E1C0
E1C0
E1C0
E1C0
E3C0
7F80
3E00
ENDCHAR
STARTCHAR 0367
ENCODING 871
SWIDTH 0 0
DWIDTH 0 0
BBX 10 10 -5 7
BITMAP
E1C0
E1C0
E1C0
E1C0
E1C0
E1C0
E1C0
E3C0
7FC0
3DC0
ENDCHAR
STARTCHAR 0368
ENCODING 872
SWIDTH 0 0
DWIDTH 0 0
BBX 10 10 -5 7
BITMAP
1E00
7F80
7380
E1C0
E000
E000
E1C0
7180
7F80
1F00
ENDCHAR
STARTCHAR 0369
ENCODING 873
SWIDTH 0 0
DWIDTH 0 0
BBX 10 14 -5 7
BITMAP
01C0
01C0
01C0
01C0
3DC0
7FC0
F3C0
E1C0
E1C0
E1C0
E1C0
73C0
7FC0
3DC0
ENDCHAR
STARTCHAR 036A
ENCODING 874
SWIDTH 0 0
DWIDTH 0 0
BBX 10 14 -5 7
BITMAP
E000
E000
E000
E000
EF00
FF80
F380
E1C0
E1C0
E1C0
E1C0
E1C0
E1C0
E1C0
ENDCHAR
STARTCHAR 036B
ENCODING 875
SWIDTH 0 0
DWIDTH 0 0
BBX 15 10 -7 7
BITMAP
DE78
FFFC
E79C
C38C
C30E
C30E
C30E
C30E
C30E
C30E
ENDCHAR
STARTCHAR 036C
ENCODING 876
SWIDTH 0 0
DWIDTH 0 0
BBX 6 10 -3 7
BITMAP
DC
FC
E0
E0
E0
C0
C0
C0
C0
C0
ENDCHAR
STARTCHAR 036D
ENCODING 877
SWIDTH 0 0
DWIDTH 0 0
BBX 6 14 -3 7
BITMAP
10
30
70
70
FC
FC
70
70
70
70
70
70
7C
3C
ENDCHAR
STARTCHAR 036E
ENCODING 878
SWIDTH 0 0
DWIDTH 0 0
BBX 10 10 -5 7
BITMAP
E1C0
E1C0
6180
7380
3300
3F00
3F00
1E00
1E00
0C00
ENDCHAR
STARTCHAR 036F
ENCODING 879
SWIDTH 0 0
DWIDTH 0 0
BBX 10 10 -5 7
BITMAP
E3C0
7380
3F00
3E00
1E00
1E00
3F00
7F00
7380
E1C0
ENDCHAR
STARTCHAR 0374
ENCODING 884
SWIDTH 342 0
DWIDTH 10 0
BBX 6 4 3 18
BITMAP
7C
78
F0
E0
ENDCHAR
STARTCHAR 0375
ENCODING 885
SWIDTH 342 0
DWIDTH 10 0
BBX 6 4 1 -6
BITMAP
1C
38
78
F0
ENDCHAR
STARTCHAR 037A
ENCODING 890
SWIDTH 342 0
DWIDTH 10 0
BBX 4 4 3 -6
BITMAP
E0
E0
F0
F0
ENDCHAR
STARTCHAR 037B
ENCODING 891
SWIDTH 548 0
DWIDTH 16 0
BBX 14 16 1 0
BITMAP
0FC0
3FE0
7FF0
F8F8
7078
003C
003C
003C
003C
003C
007C
F078
F8F8
7FF0
3FE0
1FC0
ENDCHAR
STARTCHAR 037C
ENCODING 892
SWIDTH 548 0
DWIDTH 16 0
BBX 14 16 1 0
BITMAP
07C0
1FF0
3FF8
7C78
783C
FBF8
F3C0
F3C0
F3C0
F3C0
F838
783C
7C7C
3FF8
1FF0
07C0
ENDCHAR
STARTCHAR 037D
ENCODING 893
SWIDTH 548 0
DWIDTH 16 0
BBX 14 16 1 0
BITMAP
0FC0
3FE0
7FF0
78F8
F078
77BC
07BC
07BC
07BC
07BC
707C
F078
F8F8
7FF0
3FE0
0FC0
ENDCHAR
STARTCHAR 037E
ENCODING 894
SWIDTH 342 0
DWIDTH 10 0
BBX 4 21 3 -5
BITMAP
F0
F0
F0
F0
00
00
00
00
00
00
00
00
F0
F0
F0
F0
30
60
E0
C0
80
ENDCHAR
STARTCHAR 0384
ENCODING 900
SWIDTH 342 0
DWIDTH 10 0
BBX 6 4 3 17
BITMAP
7C
78
F0
E0
ENDCHAR
STARTCHAR 0385
ENCODING 901
SWIDTH 445 0
DWIDTH 13 0
BBX 14 4 0 17
BITMAP
07C0
E7BC
E73C
EE3C
ENDCHAR
STARTCHAR 0386
ENCODING 902
SWIDTH 720 0
DWIDTH 21 0
BBX 21 21 0 0
BITMAP
3EF800
78F800
F1FC00
E1FC00
03FC00
03DE00
03DE00
079F00
078F00
0F8F00
0F0F80
0F0780
1F07C0
1FFFC0
1FFFC0
3FFFE0
3C01E0
7C01F0
7801F0
7800F0
F800F8
ENDCHAR
STARTCHAR 0387
ENCODING 903
SWIDTH 342 0
DWIDTH 10 0
BBX 4 4 3 12
BITMAP
F0
F0
F0
F0
ENDCHAR
STARTCHAR 0388
ENCODING 904
SWIDTH 857 0
DWIDTH 25 0
BBX 24 21 -1 0
BITMAP
3EFFFF
7CFFFF
78FFFF
F0FFFF
00F800
00F800
00F800
00F800
00FFFE
00FFFE
00FFFE
00FFFE
00F800
00F800
00F800
00F800
00F800
00FFFF
00FFFF
00FFFF
00FFFF
ENDCHAR
STARTCHAR 0389
ENCODING 905
SWIDTH 891 0
DWIDTH 26 0
BBX 25 21 -1 0
BITMAP
3EF80780
7CF80780
78F80780
F0F80780
00F80780
00F80780
00F80780
00F80780
00FFFF80
00FFFF80
00FFFF80
00FFFF80
00F80780
00F80780
00F80780
00F80780
00F80780
00F80780
00F80780
00F80780
00F80780
ENDCHAR
STARTCHAR 038A
ENCODING 906
SWIDTH 480 0
DWIDTH 14 0
BBX 13 21 -1 0
BITMAP
3EF8
7CF8
78F8
F0F8
00F8
00F8
00F8
00F8
00F8
00F8
00F8
00F8
00F8
00F8
00F8
00F8
00F8
00F8
00F8
00F8
00F8
ENDCHAR
STARTCHAR 038C
ENCODING 908
SWIDTH 822 0
DWIDTH 24 0
BBX 24 21 -1 0
BITMAP
3E3F80
7CFFE0
71FFF8
E3FFFC
07E0FC
0FC03E
0F803E
0F001E
0F001F
0F001F
0F001F
0F001F
0F001F
0F001E
0F803E
0FC03E
07E0FC
03FFFC
01FFF8
00FFE0
003F80
ENDCHAR
STARTCHAR 038E
ENCODING 910
SWIDTH 925 0
DWIDTH 27 0
BBX 28 21 -1 0
BITMAP
3E7C01F0
3C7C03E0
783E03C0
F01E07C0
001F0780
000F8F00
00079F00
0007DE00
0003FE00
0003FC00
0001F800
0000F800
0000F000
0000F000
0000F000
0000F000
0000F000
0000F000
0000F000
0000F000
0000F000
ENDCHAR
STARTCHAR 038F
ENCODING 911
SWIDTH 822 0
DWIDTH 24 0
BBX 24 21 -1 0
BITMAP
3E3F80
78FFF0
F1FFF8
E3FFFC
07E0FC
0FC03E
0F803E
0F801E
0F001F
0F001F
0F001E
0F001E
0F001E
07801C
07803C
03C078
01F0F0
1FFBFF
1FFBFF
1FFBFF
1FFBFF
ENDCHAR
STARTCHAR 0390
ENCODING 912
SWIDTH 274 0
DWIDTH 8 0
BBX 14 22 -3 0
BITMAP
03C0
E7BC
E73C
EE3C
0000
0000
0780
0780
0780
0780
0780
0780
0780
0780
0780
0780
0780
0780
0780
0780
0780
0780
ENDCHAR
STARTCHAR 0391
ENCODING 913
SWIDTH 720 0
DWIDTH 21 0
BBX 21 21 0 0
BITMAP
00F800
01F800
01FC00
01FC00
03FC00
03DE00
039E00
079E00
078F00
0F8F00
0F0F80
0F0780
1F0780
1FFFC0
3FFFC0
3FFFE0
3C01E0
7C01E0
7801F0
7800F0
F800F8
ENDCHAR
STARTCHAR 0392
ENCODING 914
SWIDTH 720 0
DWIDTH 21 0
BBX 17 21 2 0
BITMAP
FFF800
FFFE00
FFFF00
FFFF00
F00F00
F00F80
F00F00
F01F00
FFFE00
FFFC00
FFFE00
FFFF00
F00F80
F00780
F00780
F00780
F00F80
FFFF80
FFFF00
FFFF00
FFFC00
ENDCHAR
STARTCHAR 0393
ENCODING 915
SWIDTH 582 0
DWIDTH 17 0
BBX 15 21 2 0
BITMAP
FFFE
FFFE
FFFE
FFFE
F000
F000
F000
F000
F000
F000
F000
F000
F000
F000
F000
F000
F000
F000
F000
F000
F000
ENDCHAR
STARTCHAR 0394
ENCODING 916
SWIDTH 720 0
DWIDTH 21 0
BBX 21 21 0 0
BITMAP
00F800
01F800
01FC00
01FC00
03FC00
03FE00
03DE00
079E00
078F00
0F8F00
0F0F80
0F0780
1E0780
1E03C0
3E03C0
3C03E0
3C01E0
7FFFE0
7FFFF0
7FFFF0
FFFFF8
ENDCHAR
STARTCHAR 0395
ENCODING 917
SWIDTH 651 0
DWIDTH 19 0
BBX 16 21 2 0
BITMAP
FFFF
FFFF
FFFF
FFFF
F000
F000
F000
F000
FFFE
FFFE
FFFE
FFFE
F000
F000
F000
F000
F000
FFFF
FFFF
FFFF
FFFF
ENDCHAR
STARTCHAR 0396
ENCODING 918
SWIDTH 617 0
DWIDTH 18 0
BBX 17 21 0 0
BITMAP
3FFF80
3FFF80
3FFF80
3FFF00
001F00
003E00
007C00
00F800
01F000
01E000
03E000
07C000
0F8000
1F0000
3E0000
3E0000
7C0000
FFFF80
FFFF80
FFFF80
FFFF80
ENDCHAR
STARTCHAR 0397
ENCODING 919
SWIDTH 720 0
DWIDTH 21 0
BBX 17 21 2 0
BITMAP
F00780
F00780
F00780
F00780
F00780
F00780
F00780
F00780
FFFF80
FFFF80
FFFF80
FFFF80
F00780
F00780
F00780
F00780
F00780
F00780
F00780
F00780
F00780
ENDCHAR
STARTCHAR 0398
ENCODING 920
SWIDTH 788 0
DWIDTH 23 0
BBX 20 21 1 0
BITMAP
01FC00
0FFF00
1FFF80
3FFFC0
3F07E0
7C03E0
7801F0
7800F0
F9FCF0
F9FCF0
F9FCF0
F9FCF0
F800F0
7800F0
7801F0
7C03E0
3F07E0
3FFFC0
1FFF80
0FFF00
01FC00
ENDCHAR
STARTCHAR 0399
ENCODING 921
SWIDTH 274 0
DWIDTH 8 0
BBX 4 21 2 0
BITMAP
F0
F0
F0
F0
F0
F0
F0
F0
F0
F0
F0
F0
F0
F0
F0
F0
F0
F0
F0
F0
F0
ENDCHAR
STARTCHAR 039A
ENCODING 922
SWIDTH 720 0
DWIDTH 21 0
BBX 19 21 2 0
BITMAP
F00FC0
F01F80
F03F00
F07E00
F07C00
F0F800
F1F000
F3E000
F7E000
FFE000
FFF000
FFF800
FEF800
FC7C00
F83E00
F03E00
F01F00
F01F80
F00F80
F007C0
F007E0
ENDCHAR
STARTCHAR 039B
ENCODING 923
SWIDTH 651 0
DWIDTH 19 0
BBX 19 21 0 0
BITMAP
01F000
01F000
01F800
03F800
03F800
07BC00
07BC00
07BE00
0F1E00
0F1E00
0F1F00
1E0F00
1E0F00
1E0F80
3E0780
3C0780
3C07C0
7C03C0
7803C0
7803E0
F801E0
ENDCHAR
STARTCHAR 039C
ENCODING 924
SWIDTH 822 0
DWIDTH 24 0
BBX 20 21 2 0
BITMAP
FC03F0
FE07F0
FE07F0
FE07F0
FF07F0
FF0FF0
FF0FF0
F70EF0
F78EF0
F79EF0
F79EF0
F39CF0
F3DCF0
F3FCF0
F3FCF0
F1F8F0
F1F8F0
F1F8F0
F1F8F0
F0F0F0
F0F0F0
ENDCHAR
STARTCHAR 039D
ENCODING 925
SWIDTH 720 0
DWIDTH 21 0
BBX 17 21 2 0
BITMAP
F80780
F80780
FC0780
FC0780
FE0780
FF0780
FF0780
FF8780
F78780
F3C780
F3E780
F1E780
F1F780
F0F780
F07F80
F07F80
F03F80
F03F80
F01F80
F00F80
F00F80
ENDCHAR
STARTCHAR 039E
ENCODING 926
SWIDTH 651 0
DWIDTH 19 0
BBX 16 21 1 0
BITMAP
7FFF
7FFF
7FFF
7FFF
0000
0000
0000
0000
3FFE
3FFE
3FFE
3FFE
0000
0000
0000
0000
0000
FFFF
FFFF
FFFF
FFFF
ENDCHAR
STARTCHAR 039F
ENCODING 927
SWIDTH 788 0
DWIDTH 23 0
BBX 20 21 1 0
BITMAP
01FC00
07FF00
1FFF80
3FFFC0
3F07E0
7C03E0
7801F0
7800F0
F800F0
F800F0
F800F0
F800F0
F800F0
7800F0
7C01F0
7C03E0
3F07E0
3FFFC0
1FFF80
07FF00
01FC00
ENDCHAR
STARTCHAR 03A0
ENCODING 928
SWIDTH 720 0
DWIDTH 21 0
BBX 17 21 2 0
BITMAP
FFFF80
FFFF80
FFFF80
FFFF80
F00780
F00780
F00780
F00780
F00780
F00780
F00780
F00780
F00780
F00780
F00780
F00780
F00780
F00780
F00780
F00780
F00780
ENDCHAR
STARTCHAR 03A1
ENCODING 929
SWIDTH 651 0
DWIDTH 19 0
BBX 16 21 2 0
BITMAP
FFF0
FFFC
FFFE
FFFE
F03F
F01F
F00F
F01F
F03F
FFFE
FFFE
FFFC
FFF0
F000
F000
F000
F000
F000
F000
F000
F000
ENDCHAR
STARTCHAR 03A3
ENCODING 931
SWIDTH 582 0
DWIDTH 17 0
BBX 15 21 1 0
BITMAP
7FFE
7FFE
7FFE
7FFE
7C00
3E00
1F00
0F80
0FC0
07E0
03E0
07C0
0F80
1F00
3E00
7C00
7C00
FFFE
FFFE
FFFE
FFFE
ENDCHAR
STARTCHAR 03A4
ENCODING 932
SWIDTH 617 0
DWIDTH 18 0
BBX 16 21 1 0
BITMAP
FFFF
FFFF
FFFF
FFFF
03C0
03C0
03C0
03C0
03C0
03C0
03C0
03C0
03C0
03C0
03C0
03C0
03C0
03C0
03C0
03C0
03C0
ENDCHAR
STARTCHAR 03A5
ENCODING 933
SWIDTH 651 0
DWIDTH 19 0
BBX 19 21 0 0
BITMAP
F803E0
7C03C0
3C07C0
3E0780
1F0F80
1F1F00
0F9E00
07BE00
07FC00
03F800
01F800
01F000
00F000
00F000
00F000
00F000
00F000
00F000
00F000
00F000
00F000
ENDCHAR
STARTCHAR 03A6
ENCODING 934
SWIDTH 822 0
DWIDTH 24 0
BBX 22 21 1 0
BITMAP
007800
007800
03FF00
0FFFC0
3FFFE0
3FFFF0
7E79F8
7C78F8
F87878
F8787C
F8787C
F8787C
F87878
7C78F8
7E79F8
3FFFF0
1FFFE0
0FFFC0
03FF00
007800
007800
ENDCHAR
STARTCHAR 03A7
ENCODING 935
SWIDTH 651 0
DWIDTH 19 0
BBX 19 21 0 0
BITMAP
7C07C0
3E07C0
3E0F80
1F0F00
0F9F00
0FBE00
07FC00
03FC00
03F800
01F800
01F000
03F800
03FC00
07FC00
0FBE00
0F9F00
1F1F00
3E0F80
3E07C0
7C07C0
F803E0
ENDCHAR
STARTCHAR 03A8
ENCODING 936
SWIDTH 788 0
DWIDTH 23 0
BBX 21 21 1 0
BITMAP
F07878
F07878
F07878
F07878
F07878
F07878
F07878
F87878
F87878
7878F8
7C79F8
7FFFF0
3FFFE0
1FFFC0
07FF00
007800
007800
007800
007800
007800
007800
ENDCHAR
STARTCHAR 03A9
ENCODING 937
SWIDTH 788 0
DWIDTH 23 0
BBX 21 21 1 0
BITMAP
01FC00
07FF00
1FFFC0
1FFFE0
3F07E0
7E03F0
7C01F0
7C00F0
7800F8
7800F8
7800F0
7800F0
7800F0
3C01E0
3C01E0
1E03C0
0F8780
FFDFF8
FFDFF8
FFDFF8
FFDFF8
ENDCHAR
STARTCHAR 03AA
ENCODING 938
SWIDTH 274 0
DWIDTH 8 0
BBX 10 26 -1 0
BITMAP
E3C0
E3C0
E3C0
0000
0000
1E00
1E00
1E00
1E00
1E00
1E00
1E00
1E00
1E00
1E00
1E00
1E00
1E00
1E00
1E00
1E00
1E00
1E00
1E00
1E00
1E00
ENDCHAR
STARTCHAR 03AB
ENCODING 939
SWIDTH 651 0
DWIDTH 19 0
BBX 19 26 0 0
BITMAP
071E00
071E00
071E00
000000
000000
F803E0
7C03C0
3C07C0
3E0780
1F0F80
1F1F00
0F9E00
07BE00
07FC00
03F800
01F800
01F000
00F000
00F000
00F000
00F000
00F000
00F000
00F000
00F000
00F000
ENDCHAR
STARTCHAR 03AC
ENCODING 940
SWIDTH 617 0
DWIDTH 18 0
BBX 16 22 1 0
BITMAP
00F8
00F0
01E0
01C0
0000
0000
0F8F
1FEE
3FFE
7C7E
783E
F83C
F03C
F03C
F03C
F03C
F83C
783C
7C7E
3FFE
1FEE
0F8F
ENDCHAR
STARTCHAR 03AD
ENCODING 941
SWIDTH 480 0
DWIDTH 14 0
BBX 12 22 1 0
BITMAP
07C0
0780
0F00
0E00
0000
0000
1FC0
3FF0
7FE0
7840
7800
7800
7F00
1F00
7F00
F800
F000
F000
F840
7FF0
3FF0
1F80
ENDCHAR
STARTCHAR 03AE
ENCODING 942
SWIDTH 617 0
DWIDTH 18 0
BBX 14 28 2 -6
BITMAP
03E0
03C0
0780
0700
0000
0000
F3E0
FFF0
FFF8
FC78
F87C
F03C
F03C
F03C
F03C
F03C
F03C
F03C
F03C
F03C
F03C
F03C
003C
003C
003C
003C
003C
003C
ENDCHAR
STARTCHAR 03AF
ENCODING 943
SWIDTH 274 0
DWIDTH 8 0
BBX 6 22 2 0
BITMAP
7C
78
F0
E0
00
00
F0
F0
F0
F0
F0
F0
F0
F0
F0
F0
F0
F0
F0
F0
F0
F0
ENDCHAR
STARTCHAR 03B0
ENCODING 944
SWIDTH 582 0
DWIDTH 17 0
BBX 14 22 2 0
BITMAP
07C0
E7BC
E73C
EE3C
0000
0000
F078
F078
F078
F078
F078
F078
F078
F078
F078
F078
F078
F078
F8F0
7FF0
3FE0
0F80
ENDCHAR
STARTCHAR 03B1
ENCODING 945
SWIDTH 617 0
DWIDTH 18 0
BBX 16 16 1 0
BITMAP
0F8F
1FEE
3FFE
7C7E
783E
F83C
F03C
F03C
F03C
F03C
F83C
783C
7C7E
3FFE
1FEE
0F8F
ENDCHAR
STARTCHAR 03B2
ENCODING 946
SWIDTH 617 0
DWIDTH 18 0
BBX 15 27 2 -6
BITMAP
0FC0
3FF0
7FF8
78F8
F878
F038
F038
F078
F0F0
F3E0
F3F0
F0F8
F03C
F03C
F03E
F03E
F83E
FC7C
FFFC
F7F8
F1F0
F000
F000
F000
F000
F000
F000
ENDCHAR
STARTCHAR 03B3
ENCODING 947
SWIDTH 548 0
DWIDTH 16 0
BBX 16 22 0 -6
BITMAP
F80F
781E
781E
781E
3C3C
3C3C
1C38
1E78
1E78
0E70
0F70
0FF0
07E0
07E0
03E0
03C0
03C0
03C0
03C0
03C0
03C0
03C0
ENDCHAR
STARTCHAR 03B4
ENCODING 948
SWIDTH 617 0
DWIDTH 18 0
BBX 16 21 1 0
BITMAP
7FFC
7FFC
7FFC
1F00
0780
0FC0
1FF0
3FF8
7C3C
781E
F01E
F00E
F00E
F00F
F01E
701E
781E
7C7C
3FFC
1FF8
07E0
ENDCHAR
STARTCHAR 03B5
ENCODING 949
SWIDTH 480 0
DWIDTH 14 0
BBX 12 16 1 0
BITMAP
1FC0
3FF0
7FE0
7840
7800
7800
7F00
1F00
7F00
F800
F000
F000
F840
7FF0
3FF0
1F80
ENDCHAR
STARTCHAR 03B6
ENCODING 950
SWIDTH 445 0
DWIDTH 13 0
BBX 12 27 1 -6
BITMAP
3FF0
3FF0
3FF0
01E0
0380
0700
0E00
1E00
3C00
3800
7800
7000
F000
F000
F000
F000
F800
7F80
7FC0
3FE0
1FF0
01F0
00F0
01E0
07E0
07C0
0700
ENDCHAR
STARTCHAR 03B7
ENCODING 951
SWIDTH 617 0
DWIDTH 18 0
BBX 14 22 2 -6
BITMAP
F3E0
FFF0
FFF8
FC78
F87C
F03C
F03C
F03C
F03C
F03C
F03C
F03C
F03C
F03C
F03C
F03C
003C
003C
003C
003C
003C
003C
ENDCHAR
STARTCHAR 03B8
ENCODING 952
SWIDTH 548 0
DWIDTH 16 0
BBX 14 21 1 0
BITMAP
0F80
1FE0
3FF0
7CF0
7878
7878
F078
F078
F078
FFFC
FFFC
FFFC
F07C
F078
F078
7878
7878
78F0
3FF0
1FE0
0F80
ENDCHAR
STARTCHAR 03B9
ENCODING 953
SWIDTH 274 0
DWIDTH 8 0
BBX 4 16 2 0
BITMAP
F0
F0
F0
F0
F0
F0
F0
F0
F0
F0
F0
F0
F0
F0
F0
F0
ENDCHAR
STARTCHAR 03BA
ENCODING 954
SWIDTH 548 0
DWIDTH 16 0
BBX 14 16 2 0
BITMAP
F0F8
F1F0
F1E0
F3C0
F780
FF80
FF00
FF00
FF80
FF80
F3C0
F3E0
F1E0
F0F0
F0F8
F07C
ENDCHAR
STARTCHAR 03BB
ENCODING 955
SWIDTH 548 0
DWIDTH 16 0
BBX 16 21 0 0
BITMAP
0F00
0F00
0780
0780
03C0
03C0
07E0
07E0
07E0
0FF0
0EF0
0E70
1E78
1E78
1C38
3C3C
3C3C
781E
781E
781E
F00F
ENDCHAR
STARTCHAR 03BC
ENCODING 956
SWIDTH 617 0
DWIDTH 18 0
BBX 14 22 2 -6
BITMAP
F03C
F03C
F03C
F03C
F03C
F03C
F03C
F03C
F03C
F03C
F07C
F87C
F8FC
FFFC
FFFC
F7BC
F000
F000
F000
F000
F000
F000
ENDCHAR
STARTCHAR 03BD
ENCODING 957
SWIDTH 548 0
DWIDTH 16 0
BBX 16 16 0 0
BITMAP
F81F
781E
781E
7C3C
3C3C
3C3C
1E78
1E78
1E78
0FF0
0FF0
07E0
07E0
07E0
03C0
03C0
ENDCHAR
STARTCHAR 03BE
ENCODING 958
SWIDTH 445 0
DWIDTH 13 0
BBX 12 27 1 -6
BITMAP
0FC0
3FC0
7FC0
7C00
7800
7800
7C00
3FC0
1FC0
0FC0
3E00
7C00
7800
F000
F000
F000
F800
7C00
7F80
3FE0
0FF0
01F0
00F0
01F0
07E0
07C0
0700
ENDCHAR
STARTCHAR 03BF
ENCODING 959
SWIDTH 617 0
DWIDTH 18 0
BBX 16 16 1 0
BITMAP
07E0
1FF8
3FFC
7C3C
781E
F81E
F01F
F00F
F00F
F01F
F81E
781E
7C3C
3FFC
1FF8
07E0
ENDCHAR
STARTCHAR 03C0
ENCODING 960
SWIDTH 754 0
DWIDTH 22 0
BBX 21 16 1 0
BITMAP
FFFFF8
FFFFF8
FFFFF8
0F0780
0F0780
0F0780
0F0780
0F0780
0F0780
0F0780
0F0780
0F0780
0F0780
0F0780
0F0780
0F0780
ENDCHAR
STARTCHAR 03C1
ENCODING 961
SWIDTH 617 0
DWIDTH 18 0
BBX 15 22 2 -6
BITMAP
0FC0
3FF0
7FF8
7C7C
F03C
F03C
F01E
F01E
F01E
F01E
F03E
F03C
F87C
FFF8
FFF0
F7C0
F000
F000
F000
F000
F000
F000
ENDCHAR
STARTCHAR 03C2
ENCODING 962
SWIDTH 514 0
DWIDTH 15 0
BBX 13 22 1 -6
BITMAP
03F8
0FF8
1FF8
3E00
7C00
7800
F000
F000
F000
F000
F000
7800
7E00
3FC0
1FF0
07F8
00F8
0078
0078
07F8
07F0
0FC0
ENDCHAR
STARTCHAR 03C3
ENCODING 963
SWIDTH 685 0
DWIDTH 20 0
BBX 18 16 1 0
BITMAP
07FFC0
1FFFC0
3FFFC0
7C3E00
781E00
F81E00
F01F00
F00F00
F01F00
F01E00
F81E00
781E00
7C3C00
3FF800
1FF000
07E000
ENDCHAR
STARTCHAR 03C4
ENCODING 964
SWIDTH 445 0
DWIDTH 13 0
BBX 11 16 1 0
BITMAP
FFE0
FFE0
FFE0
0F00
0F00
0F00
0F00
0F00
0F00
0F00
0F00
0F00
0F00
0F00
0F00
0F00
ENDCHAR
STARTCHAR 03C5
ENCODING 965
SWIDTH 582 0
DWIDTH 17 0
BBX 13 16 2 0
BITMAP
F078
F078
F078
F078
F078
F078
F078
F078
F078
F078
F078
F078
F8F0
7FF0
3FE0
0F80
ENDCHAR
STARTCHAR 03C6
ENCODING 966
SWIDTH 720 0
DWIDTH 21 0
BBX 19 22 1 -6
BITMAP
0E7C00
3EFF00
3EFF80
7CF7C0
79E3C0
F9E3C0
F1E1E0
F1E1E0
F1E3E0
F1E3C0
79E3C0
79E7C0
7DEF80
3FFF00
1FFE00
07F800
01E000
01E000
01E000
01E000
01E000
01E000
ENDCHAR
STARTCHAR 03C7
ENCODING 967
SWIDTH 582 0
DWIDTH 17 0
BBX 16 22 0 -6
BITMAP
780F
7C1E
3C1E
3E3C
1E3C
1E78
0F78
0FF0
07F0
07E0
03E0
03E0
07F0
07F0
0FF8
0F78
1E7C
1E3C
3C3E
3C1E
781F
F80F
ENDCHAR
STARTCHAR 03C8
ENCODING 968
SWIDTH 754 0
DWIDTH 22 0
BBX 18 22 2 -6
BITMAP
F1E3C0
F1E3C0
F1E3C0
F1E3C0
F1E3C0
F1E3C0
F1E3C0
F1E3C0
F1E3C0
F1E3C0
F1E3C0
F1E3C0
F9E780
7FFF80
3FFF00
0FFC00
01E000
01E000
01E000
01E000
01E000
01E000
ENDCHAR
STARTCHAR 03C9
ENCODING 969
SWIDTH 857 0
DWIDTH 25 0
BBX 22 16 1 0
BITMAP
3C0078
380078
780078
78003C
78783C
F0783C
F0783C
F0783C
F0783C
F0783C
F0783C
78783C
7CFC78
3FFFF8
1FCFF0
0F83C0
ENDCHAR
STARTCHAR 03CA
ENCODING 970
SWIDTH 274 0
DWIDTH 8 0
BBX 10 21 -1 0
BITMAP
F3C0
F3C0
F3C0
0000
0000
1E00
1E00
1E00
1E00
1E00
1E00
1E00
1E00
1E00
1E00
1E00
1E00
1E00
1E00
1E00
1E00
ENDCHAR
STARTCHAR 03CB
ENCODING 971
SWIDTH 582 0
DWIDTH 17 0
BBX 13 21 2 0
BITMAP
38F0
38F0
38F0
0000
0000
F078
F078
F078
F078
F078
F078
F078
F078
F078
F078
F078
F078
F8F0
7FF0
3FE0
0F80
ENDCHAR
STARTCHAR 03CC
ENCODING 972
SWIDTH 617 0
DWIDTH 18 0
BBX 16 22 1 0
BITMAP
01F0
01E0
03C0
0380
0000
0000
07E0
1FF8
3FFC
7C3C
781E
F81E
F01F
F00F
F00F
F01F
F81E
781E
7C3C
3FFC
1FF8
07E0
ENDCHAR
STARTCHAR 03CD
ENCODING 973
SWIDTH 582 0
DWIDTH 17 0
BBX 13 22 2 0
BITMAP
03E0
03C0
0780
0700
0000
0000
F078
F078
F078
F078
F078
F078
F078
F078
F078
F078
F078
F078
F8F0
7FF0
3FE0
0F80
ENDCHAR
STARTCHAR 03CE
ENCODING 974
SWIDTH 857 0
DWIDTH 25 0
BBX 22 22 1 0
BITMAP
003E00
003C00
007800
007000
000000
000000
3C0078
380078
780078
78003C
78783C
F0783C
F0783C
F0783C
F0783C
F0783C
F0783C
78783C
7CFC78
3FFFF8
1FCFF0
0F83C0
ENDCHAR
STARTCHAR 03D0
ENCODING 976
SWIDTH 617 0
DWIDTH 18 0
BBX 15 21 1 0
BITMAP
03E0
0FF8
1FF8
3E3C
3C3C
7FF8
7FF8
7BE0
7800
FBF0
FFF8
FFFC
7C3E
7C1E
781E
781E
7C1E
3C3E
1FFC
0FF8
07E0
ENDCHAR
STARTCHAR 03D1
ENCODING 977
SWIDTH 582 0
DWIDTH 17 0
BBX 17 21 0 0
BITMAP
01F000
07F800
0FFC00
0F3E00
0E1E00
0E1E00
0F1E00
0F9E00
07FF80
03FF80
00FF80
781E00
FC1E00
FC1E00
1C1E00
1C1E00
3C3C00
3C7C00
3FF800
1FF000
0FC000
ENDCHAR
STARTCHAR 03D2
ENCODING 978
SWIDTH 754 0
DWIDTH 22 0
BBX 22 21 0 0
BITMAP
F801E0
7C03F8
3C07FC
3E07FC
1E0F98
1F1F00
0F1F00
07BE00
07FC00
03FC00
03F800
01F000
00F000
00F000
00F000
00F000
00F000
00F000
00F000
00F000
00F000
ENDCHAR
STARTCHAR 03D3
ENCODING 979
SWIDTH 994 0
DWIDTH 29 0
BBX 29 21 0 0
BITMAP
7DF003C0
78F807F0
F0780FF8
E07C0FF8
003C1F30
003E3E00
001E3E00
000F7C00
000FF800
0007F800
0007F000
0003E000
0001E000
0001E000
0001E000
0001E000
0001E000
0001E000
0001E000
0001E000
0001E000
ENDCHAR
STARTCHAR 03D4
ENCODING 980
SWIDTH 754 0
DWIDTH 22 0
BBX 22 26 0 0
BITMAP
071E00
071E00
071E00
000000
000000
F801E0
7C03F8
3C07FC
3E07FC
1E0F98
1F1F00
0F1F00
07BE00
07FC00
03FC00
03F800
01F000
00F000
00F000
00F000
00F000
00F000
00F000
00F000
00F000
00F000
ENDCHAR
STARTCHAR 03D5
ENCODING 981
SWIDTH 754 0
DWIDTH 22 0
BBX 20 27 1 -6
BITMAP
00F000
00F000
00F000
00F000
00F000
07FE00
1FFF80
3FFFC0
7CF3C0
78F1E0
F8F1E0
F0F1E0
F0F1F0
F0F1F0
F0F1E0
F8F1E0
78F1E0
7CF3C0
3FFFC0
1FFF80
07FE00
00F000
00F000
00F000
00F000
00F000
00F000
ENDCHAR
STARTCHAR 03D6
ENCODING 982
SWIDTH 857 0
DWIDTH 25 0
BBX 22 16 1 0
BITMAP
FFFFFC
FFFFFC
FFFFFC
78003C
78003C
F0003C
F0783C
F0783C
F0783C
F0783C
F0783C
787C3C
7CFC78
3FFFF8
1FCFF0
0F83C0
ENDCHAR
STARTCHAR 03D7
ENCODING 983
SWIDTH 685 0
DWIDTH 20 0
BBX 19 22 0 -6
BITMAP
F807E0
FC07C0
7E0F80
1E1F00
1E3F00
1E7F00
0EFF00
0EFF00
0FFF00
0FEF00
0FEF00
0FCF00
1F8F80
3F07E0
3E07E0
7C03E0
0001E0
0001E0
0001E0
0007E0
000FC0
000F80
ENDCHAR
STARTCHAR 03D8
ENCODING 984
SWIDTH 788 0
DWIDTH 23 0
BBX 20 27 1 -6
BITMAP
01FC00
07FF00
1FFF80
3FFFC0
3F07E0
7C03E0
7C01F0
7800F0
F800F0
F800F0
F800F0
F800F0
F800F0
7800F0
7C01F0
7C03F0
3F07E0
3FFFC0
1FFFC0
0FFF00
03FC00
00F000
00F000
00F000
00F000
00F000
00F000
ENDCHAR
STARTCHAR 03D9
ENCODING 985
SWIDTH 617 0
DWIDTH 18 0
BBX 16 22 1 -6
BITMAP
07E0
1FF8
3FFC
7C3C
781E
F81E
F01F
F00F
F00F
F01F
F81E
781E
7C3E
3FFC
1FF8
07E0
03C0
03C0
03C0
03C0
03C0
03C0
ENDCHAR
STARTCHAR 03DA
ENCODING 986
SWIDTH 720 0
DWIDTH 21 0
BBX 18 21 2 0
BITMAP
03F000
1FFC00
3FFF00
7FFF00
7E1F80
F807C0
F80700
F00000
F00000
F00000
F00000
F80000
F80000
7E0000
7FE000
3FE000
1FE000
07E000
01E000
01E000
01E000
ENDCHAR
STARTCHAR 03DB
ENCODING 987
SWIDTH 548 0
DWIDTH 16 0
BBX 14 22 1 -6
BITMAP
07C0
1FF0
3FF8
7C7C
783C
F838
F000
F000
F000
F800
F800
7C00
7F80
3FF0
0FF8
01FC
007C
003C
307C
3FF8
3FF0
1FC0
ENDCHAR
STARTCHAR 03DC
ENCODING 988
SWIDTH 617 0
DWIDTH 18 0
BBX 14 21 2 0
BITMAP
FFFC
FFFC
FFFC
FFFC
F000
F000
F000
F000
F000
FFF8
FFF8
FFF8
FFF8
F078
F078
F000
F000
F000
F000
F000
F000
ENDCHAR
STARTCHAR 03DD
ENCODING 989
SWIDTH 445 0
DWIDTH 13 0
BBX 10 22 2 -6
BITMAP
FFC0
FFC0
FFC0
F000
F000
F000
F000
F000
FFC0
FFC0
FFC0
F1C0
F1C0
F000
F000
F000
F000
F000
F000
F000
F000
F000
ENDCHAR
STARTCHAR 03DE
ENCODING 990
SWIDTH 754 0
DWIDTH 22 0
BBX 22 21 0 0
BITMAP
F80000
FE0000
FE0000
FF0000
1F0010
0F0070
0F01E0
1E0FE0
1E3FE0
1EFFE0
1FFFE0
1FFDE0
1FE1C0
3F83C0
3E03C0
3803C0
2003C0
0003FC
0003FC
0001FC
000078
ENDCHAR
STARTCHAR 03DF
ENCODING 991
SWIDTH 514 0
DWIDTH 15 0
BBX 15 21 0 0
BITMAP
0E00
0E00
0E00
1C00
1C00
1C00
3800
3800
3800
7FFE
7FFE
7FFC
FFFC
001C
0038
0038
0030
0070
0070
0060
00E0
ENDCHAR
STARTCHAR 03E0
ENCODING 992
SWIDTH 788 0
DWIDTH 23 0
BBX 22 27 0 -6
BITMAP
03F000
0FFC00
3FFF00
7F9F80
F787C0
E783E0
4781F0
4783F0
078FF8
079FF8
001E78
001E7C
003C3C
003C3C
003C3C
003C3C
003C3C
003C3C
003C3C
003C3C
003C3C
00007C
000078
0081F0
007FE0
007FC0
007E00
ENDCHAR
STARTCHAR 03E1
ENCODING 993
SWIDTH 617 0
DWIDTH 18 0
BBX 17 27 0 -6
BITMAP
100000
7C0000
FF0000
3FC000
0FE000
03F000
01F800
00FC00
03FC00
0FFE00
0FBE00
0E1F00
001F00
007F00
01FF00
03FF00
01CF80
010F80
000F80
000780
000780
000F80
000F00
000F00
000F00
000F00
000800
ENDCHAR
STARTCHAR 03E2
ENCODING 994
SWIDTH 994 0
DWIDTH 29 0
BBX 25 27 2 -6
BITMAP
F03C0F80
F03C0F80
F03C0F80
F03C0F80
F03C0F80
F03C0F80
F03C0F80
F03C0F80
F03C0F80
F03C0F80
F03C0F80
F03C0F80
F03C0F80
F03C0F80
F03E0F80
F87E0F80
F87E1F80
FFFFFF80
7FFFFF80
3FCFFF80
1F07CF80
00000F80
00000F80
FFFFFF00
FFFFFF00
FFFFFF00
FFFFFE00
ENDCHAR
STARTCHAR 03E3
ENCODING 995
SWIDTH 891 0
DWIDTH 26 0
BBX 22 22 2 -6
BITMAP
F0783C
F0783C
F0783C
F0783C
F0783C
F0783C
F0783C
F0783C
F0783C
F0783C
F0783C
F0F87C
F8FC7C
FFFFFC
7FBFBC
3E1F3C
00003C
00003C
FFFFFC
FFFFFC
FFFFF8
FFFFF0
ENDCHAR
STARTCHAR 03E4
ENCODING 996
SWIDTH 685 0
DWIDTH 20 0
BBX 16 21 2 0
BITMAP
0FCF
3FCF
7FCF
7F8F
F80F
F00F
F00F
F00F
F00F
F81F
FFFF
7FFF
3FFF
0FCF
000F
000F
000F
000F
000F
000F
000F
ENDCHAR
STARTCHAR 03E5
ENCODING 997
SWIDTH 617 0
DWIDTH 18 0
BBX 14 21 2 0
BITMAP
3F3C
7F3C
FF3C
F03C
F03C
F03C
F03C
F03C
F03C
F03C
F07C
F07C
F8FC
7FFC
7FBC
3E3C
003C
003C
003C
003C
003C
ENDCHAR
STARTCHAR 03E6
ENCODING 998
SWIDTH 685 0
DWIDTH 20 0
BBX 17 27 2 -6
BITMAP
F00000
F00000
F00000
F00000
F00000
F00000
F00000
F3F000
FFFC00
FFFE00
FFFE00
FC3F00
F01F00
F00F00
F00F80
F00F80
F00F80
F00F80
F00F00
F00F00
F00F00
001F00
003E00
FFFE00
FFFC00
FFF800
FFE000
ENDCHAR
STARTCHAR 03E7
ENCODING 999
SWIDTH 617 0
DWIDTH 18 0
BBX 17 16 0 0
BITMAP
07E200
1FF700
3FFF80
3C7F00
383E00
387E00
3FFF00
1FEF00
0F8F00
000F00
001F00
3C1E00
7E3E00
7FFC00
F7F800
E1F000
ENDCHAR
STARTCHAR 03E8
ENCODING 1000
SWIDTH 651 0
DWIDTH 19 0
BBX 17 21 1 0
BITMAP
07F800
1FFC00
3FFE00
3FFF00
7C0F00
780F80
000F00
001F00
01FF00
0FFE00
3FF800
7FE000
7E0F00
780F00
F80700
F80F80
7C1F00
7FFF00
3FFE00
1FFC00
07F000
ENDCHAR
STARTCHAR 03E9
ENCODING 1001
SWIDTH 651 0
DWIDTH 19 0
BBX 17 21 1 0
BITMAP
07F800
1FFC00
3FFE00
3FFF00
7C0F00
780F80
000F00
001F00
01FF00
0FFE00
3FF800
7FE000
7E0000
780000
F80000
F80200
7C0F00
7FFF00
3FFF00
1FFF00
07F800
ENDCHAR
STARTCHAR 03EA
ENCODING 1002
SWIDTH 651 0
DWIDTH 19 0
BBX 18 21 0 0
BITMAP
3E1F00
FF3FC0
7FBFC0
7FFFC0
47FC40
07F800
03F800
01F000
01F000
03F000
03F800
07F800
07FC00
0FBC00
0F3E00
1F1E00
1E1F00
3FFF00
3FFF00
3FFF00
3FFF00
ENDCHAR
STARTCHAR 03EB
ENCODING 1003
SWIDTH 617 0
DWIDTH 18 0
BBX 17 16 0 0
BITMAP
7C1F00
FF3F80
7F7F80
4FF880
07F000
03F000
03E000
03F000
07F000
0FF800
0FFC00
1F3E00
3E3E00
3FFF00
3FFF00
3FFF00
ENDCHAR
STARTCHAR 03EC
ENCODING 1004
SWIDTH 720 0
DWIDTH 21 0
BBX 19 21 1 0
BITMAP
003F80
03FF80
0FFF80
1FFF80
3F8000
3C0000
79FC00
7FFF00
FFFF80
FFFFC0
FE0FE0
F803E0
F801E0
F801E0
7801E0
7C03E0
7E0FE0
3FFFC0
1FFF80
0FFF00
03FC00
ENDCHAR
STARTCHAR 03ED
ENCODING 1005
SWIDTH 582 0
DWIDTH 17 0
BBX 15 16 1 0
BITMAP
01FE
0FFE
3FFE
7F00
7C00
FBF0
F3F8
F3FC
F03C
F03E
F01E
783E
7C3C
3FFC
1FF8
0FE0
ENDCHAR
STARTCHAR 03EE
ENCODING 1006
SWIDTH 514 0
DWIDTH 15 0
BBX 14 21 0 0
BITMAP
0780
0780
0780
0780
0780
3FF8
7FFC
FFFC
E78C
E78C
E78C
0780
0780
0780
0780
0780
0780
0780
0780
0780
0780
ENDCHAR
STARTCHAR 03EF
ENCODING 1007
SWIDTH 445 0
DWIDTH 13 0
BBX 11 21 1 0
BITMAP
1C00
1F80
1E00
1E00
1E00
FFE0
FFE0
FFE0
9E00
9E00
1E00
1E00
1E00
1E00
1E00
1E00
1E00
1E00
1E00
3E00
0600
ENDCHAR
STARTCHAR 03F0
ENCODING 1008
SWIDTH 685 0
DWIDTH 20 0
BBX 19 16 0 0
BITMAP
F807E0
FC07C0
7E0F80
1E1F00
1E3F00
1E7F00
0EFF00
0EFF00
0FFF00
0FEF00
0FEF00
0FCF00
1F8F80
3F07E0
3E03E0
7C01E0
ENDCHAR
STARTCHAR 03F1
ENCODING 1009
SWIDTH 617 0
DWIDTH 18 0
BBX 16 22 1 -6
BITMAP
07E0
1FF8
3FFC
7C3C
781E
781E
701F
F00F
F00F
F01F
F81E
F81E
FC3C
FFFC
6FF8
63E0
7000
3800
3FF8
1FFC
07FE
000E
ENDCHAR
STARTCHAR 03F2
ENCODING 1010
SWIDTH 548 0
DWIDTH 16 0
BBX 14 16 1 0
BITMAP
07E0
1FF8
3FF8
7C7C
7830
F800
F000
F000
F000
F000
F800
7830
7C3C
3FFC
1FF8
07E0
ENDCHAR
STARTCHAR 03F3
ENCODING 1011
SWIDTH 274 0
DWIDTH 8 0
BBX 7 27 -1 -6
BITMAP
1E
1E
1E
00
00
1E
1E
1E
1E
1E
1E
1E
1E
1E
1E
1E
1E
1E
1E
1E
1E
1E
1E
1E
FE
FC
F8
ENDCHAR
STARTCHAR 03F4
ENCODING 1012
SWIDTH 788 0
DWIDTH 23 0
BBX 20 21 1 0
BITMAP
01FC00
0FFF00
1FFF80
3FFFC0
3F07E0
7C01E0
7801F0
F800F0
FFFFF0
FFFFF0
FFFFF0
FFFFF0
F800F0
7800F0
7C01F0
7C03E0
3F07E0
3FFFC0
1FFF80
0FFF00
01FC00
ENDCHAR
STARTCHAR 03F5
ENCODING 1013
SWIDTH 480 0
DWIDTH 14 0
BBX 12 16 1 0
BITMAP
0FF0
1FF0
3FF0
7C00
7800
F000
FF80
FF80
FF80
F000
F800
7800
7C00
3FF0
3FF0
0FF0
ENDCHAR
STARTCHAR 03F6
ENCODING 1014
SWIDTH 480 0
DWIDTH 14 0
BBX 12 16 1 0
BITMAP
FE00
FF80
FFC0
03E0
01E0
00E0
1FF0
1FF0
1FF0
00F0
01F0
01E0
03E0
FFC0
FF80
FF00
ENDCHAR
STARTCHAR 03F7
ENCODING 1015
SWIDTH 651 0
DWIDTH 19 0
BBX 16 21 2 0
BITMAP
F000
F000
F000
F000
FFF0
FFFC
FFFE
FFFE
F01F
F01F
F00F
F01F
F01F
FFFE
FFFE
FFFC
FFF0
F000
F000
F000
F000
ENDCHAR
STARTCHAR 03F8
ENCODING 1016
SWIDTH 617 0
DWIDTH 18 0
BBX 15 27 2 -6
BITMAP
F000
F000
F000
F000
F000
F3E0
F7F0
FFF8
FC7C
F83C
F03C
F03E
F01E
F01E
F03E
F03C
F83C
FC7C
FFF8
F7F0
F3E0
F000
F000
F000
F000
F000
F000
ENDCHAR
STARTCHAR 03F9
ENCODING 1017
SWIDTH 720 0
DWIDTH 21 0
BBX 18 21 1 0
BITMAP
01F800
07FE00
1FFF80
3FFF80
3F0FC0
7C07C0
780300
780000
F80000
F80000
F80000
F80000
F80000
780300
7803C0
7C07C0
3E0FC0
3FFF80
1FFF00
07FE00
01F800
ENDCHAR
STARTCHAR 03FA
ENCODING 1018
SWIDTH 822 0
DWIDTH 24 0
BBX 20 21 2 0
BITMAP
FC03F0
FC03F0
FE07F0
FF0FF0
FF0FF0
F79EF0
F7DEF0
F3FCF0
F1FCF0
F1F8F0
F0F0F0
F000F0
F000F0
F000F0
F000F0
F000F0
F000F0
F000F0
F000F0
F000F0
F000F0
ENDCHAR
STARTCHAR 03FB
ENCODING 1019
SWIDTH 720 0
DWIDTH 21 0
BBX 18 22 2 -6
BITMAP
F80FC0
FC0FC0
FC0FC0
FC1FC0
FE1FC0
FE1FC0
FE3FC0
FF3BC0
F73BC0
F77BC0
F7F3C0
F3F3C0
F3F3C0
F3E3C0
F1E3C0
F1E3C0
F00000
F00000
F00000
F00000
F00000
F00000
ENDCHAR
STARTCHAR 03FC
ENCODING 1020
SWIDTH 617 0
DWIDTH 18 0
BBX 17 22 0 -6
BITMAP
03F000
0FFC00
1FFE00
1E1F00
3C0F00
3C0F00
3C0780
3C0780
3C0780
3C0780
3C0F80
3C0F00
3E1F00
3FFE00
3FFC00
3DF000
3C0000
FFC000
FFC000
FFC000
3C0000
3C0000
ENDCHAR
STARTCHAR 03FD
ENCODING 1021
SWIDTH 720 0
DWIDTH 21 0
BBX 18 21 2 0
BITMAP
07E000
1FF800
7FFE00
7FFE00
FC1F00
F00F80
300F80
000780
000780
0007C0
0007C0
0007C0
000780
300780
F00F80
F80F80
FC1F00
7FFF00
3FFE00
1FF800
07E000
ENDCHAR
STARTCHAR 03FE
ENCODING 1022
SWIDTH 720 0
DWIDTH 21 0
BBX 18 21 1 0
BITMAP
01F800
07FE00
1FFF80
3FFF80
3E0FC0
7C07C0
780300
780000
F8F000
F8F000
F8F000
F8F000
F80000
780300
7803C0
7C07C0
3E0FC0
3FFF80
1FFF00
0FFE00
01F800
ENDCHAR
STARTCHAR 03FF
ENCODING 1023
SWIDTH 720 0
DWIDTH 21 0
BBX 18 21 2 0
BITMAP
07E000
1FF800
7FFE00
7FFE00
FC1F00
F00F80
300F80
000780
03C780
03C7C0
03C7C0
03C7C0
000780
300780
F00F80
F80F80
FC1F00
7FFF00
3FFE00
1FF800
07E000
ENDCHAR
STARTCHAR 0400
ENCODING 1024
SWIDTH 651 0
DWIDTH 19 0
BBX 16 27 2 0
BITMAP
0F00
0780
0380
01C0
0000
0000
FFFF
FFFF
FFFF
FFFF
F000
F000
F000
F000
FFFE
FFFE
FFFE
FFFE
F000
F000
F000
F000
F000
FFFF
FFFF
FFFF
FFFF
ENDCHAR
STARTCHAR 0401
ENCODING 1025
SWIDTH 651 0
DWIDTH 19 0
BBX 16 26 2 0
BITMAP
1C78
1C78
1C78
0000
0000
FFFF
FFFF
FFFF
FFFF
F000
F000
F000
F000
FFFE
FFFE
FFFE
FFFE
F000
F000
F000
F000
F000
FFFF
FFFF
FFFF
FFFF
ENDCHAR
STARTCHAR 0402
ENCODING 1026
SWIDTH 891 0
DWIDTH 26 0
BBX 24 21 1 0
BITMAP
FFFF00
FFFF00
FFFF00
FFFF00
03C000
03C000
03C000
03C7E0
03FFF8
03FFFC
03FFFE
03F83E
03C01E
03C01F
03C01F
03C01E
03C03E
03C3FE
03C3FC
03C3F8
03C3E0
ENDCHAR
STARTCHAR 0403
ENCODING 1027
SWIDTH 582 0
DWIDTH 17 0
BBX 15 27 2 0
BITMAP
03E0
03C0
0780
0700
0000
0000
FFFE
FFFE
FFFE
FFFE
F000
F000
F000
F000
F000
F000
F000
F000
F000
F000
F000
F000
F000
F000
F000
F000
F000
ENDCHAR
STARTCHAR 0404
ENCODING 1028
SWIDTH 720 0
DWIDTH 21 0
BBX 18 21 1 0
BITMAP
01F800
0FFE00
1FFF00
3FFF80
3E0FC0
7C07C0
780300
780000
FFE000
FFE000
FFE000
FFE000
F80000
780300
7803C0
7C07C0
3E0FC0
3FFF80
1FFF00
0FFE00
03F800
ENDCHAR
STARTCHAR 0405
ENCODING 1029
SWIDTH 651 0
DWIDTH 19 0
BBX 17 21 1 0
BITMAP
07F000
1FFC00
3FFE00
7FFF00
7C1F00
780F00
780000
7F0000
3FF000
3FFC00
0FFE00
03FF00
007F80
000F80
F00780
F80F80
7C1F80
7FFF00
3FFF00
1FFC00
07F000
ENDCHAR
STARTCHAR 0406
ENCODING 1030
SWIDTH 274 0
DWIDTH 8 0
BBX 4 21 2 0
BITMAP
F0
F0
F0
F0
F0
F0
F0
F0
F0
F0
F0
F0
F0
F0
F0
F0
F0
F0
F0
F0
F0
ENDCHAR
STARTCHAR 0407
ENCODING 1031
SWIDTH 274 0
DWIDTH 8 0
BBX 10 26 -1 0
BITMAP
E3C0
E3C0
E3C0
0000
0000
1E00
1E00
1E00
1E00
1E00
1E00
1E00
1E00
1E00
1E00
1E00
1E00
1E00
1E00
1E00
1E00
1E00
1E00
1E00
1E00
1E00
ENDCHAR
STARTCHAR 0408
ENCODING 1032
SWIDTH 548 0
DWIDTH 16 0
BBX 13 21 1 0
BITMAP
0078
0078
0078
0078
0078
0078
0078
0078
0078
0078
0078
0078
0078
E078
F0F8
F0F8
F8F0
FFF0
7FF0
3FE0
1F80
ENDCHAR
STARTCHAR 0409
ENCODING 1033
SWIDTH 1097 0
DWIDTH 32 0
BBX 30 21 0 0
BITMAP
1FFF8000
1FFF8000
1FFF8000
1FFF8000
1E078000
1E078000
1E078000
1E078000
1E07FFC0
1E07FFF0
1E07FFF8
1E07FFFC
1E07807C
1E07803C
1E07803C
1E07803C
1E07807C
FE07FFFC
FE07FFF8
FC07FFF0
F807FFE0
ENDCHAR
STARTCHAR 040A
ENCODING 1034
SWIDTH 1062 0
DWIDTH 31 0
BBX 27 21 2 0
BITMAP
F03C0000
F03C0000
F03C0000
F03C0000
F03C0000
F03C0000
F03C0000
F03C0000
FFFFFE00
FFFFFF80
FFFFFFC0
FFFFFFE0
F03C03E0
F03C01E0
F03C01E0
F03C01E0
F03C03E0
F03FFFE0
F03FFFC0
F03FFF80
F03FFF00
ENDCHAR
STARTCHAR 040B
ENCODING 1035
SWIDTH 857 0
DWIDTH 25 0
BBX 22 21 1 0
BITMAP
FFFF00
FFFF00
FFFF00
FFFF00
03C000
03C000
03C000
03CFC0
03FFF0
03FFF8
03FFFC
03E0FC
03C03C
03C03C
03C03C
03C03C
03C03C
03C03C
03C03C
03C03C
03C03C
ENDCHAR
STARTCHAR 040C
ENCODING 1036
SWIDTH 617 0
DWIDTH 18 0
BBX 15 27 2 0
BITMAP
03E0
03C0
0780
0700
0000
0000
F01E
F03E
F07E
F0F8
F0F0
F0E0
F1E0
F1E0
F3C0
FF80
FF80
FFC0
F3E0
F1F0
F1F0
F0F8
F0F8
F07C
F07C
F03E
F03E
ENDCHAR
STARTCHAR 040D
ENCODING 1037
SWIDTH 720 0
DWIDTH 21 0
BBX 17 27 2 0
BITMAP
0F0000
078000
038000
01C000
000000
000000
F00F80
F00F80
F01F80
F03F80
F03F80
F07F80
F07F80
F0F780
F1F780
F1E780
F3E780
F3C780
F78780
FF8780
FF0780
FF0780
FE0780
FC0780
FC0780
F80780
F80780
ENDCHAR
STARTCHAR 040E
ENCODING 1038
SWIDTH 617 0
DWIDTH 18 0
BBX 18 27 0 0
BITMAP
060C00
030C00
03F800
00F000
000000
000000
F807C0
780780
7C0780
3C0F80
3E0F00
1E1F00
0F1E00
0F3E00
07BC00
07BC00
03F800
03F800
01F800
01F000
01F000
01E000
03E000
1FC000
1FC000
1F8000
1F0000
ENDCHAR
STARTCHAR 040F
ENCODING 1039
SWIDTH 720 0
DWIDTH 21 0
BBX 17 27 2 -6
BITMAP
F00F80
F00F80
F00F80
F00F80
F00F80
F00F80
F00F80
F00F80
F00F80
F00F80
F00F80
F00F80
F00F80
F00F80
F00F80
F00F80
F00F80
FFFF80
FFFF80
FFFF80
FFFF80
01C000
01C000
01C000
01C000
01C000
01C000
ENDCHAR
STARTCHAR 0410
ENCODING 1040
SWIDTH 720 0
DWIDTH 21 0
BBX 21 21 0 0
BITMAP
00F800
01F800
01FC00
01FC00
03FC00
03DE00
039E00
079E00
078F00
0F8F00
0F0F80
0F0780
1F0780
1FFFC0
3FFFC0
3FFFE0
3C01E0
7C01E0
7801F0
7800F0
F800F8
ENDCHAR
STARTCHAR 0411
ENCODING 1041
SWIDTH 720 0
DWIDTH 21 0
BBX 18 21 2 0
BITMAP
FFFF00
FFFF00
FFFF00
FFFF00
F00000
F00000
F00000
F00000
F00000
FFFC00
FFFE00
FFFF00
FFFF80
F00F80
F007C0
F007C0
F00F80
FFFF80
FFFF00
FFFF00
FFFC00
ENDCHAR
STARTCHAR 0412
ENCODING 1042
SWIDTH 720 0
DWIDTH 21 0
BBX 17 21 2 0
BITMAP
FFF800
FFFE00
FFFF00
FFFF00
F00F00
F00F80
F00F00
F01F00
FFFE00
FFFC00
FFFE00
FFFF00
F00F80
F00780
F00780
F00780
F00F80
FFFF80
FFFF00
FFFF00
FFFC00
ENDCHAR
STARTCHAR 0413
ENCODING 1043
SWIDTH 548 0
DWIDTH 16 0
BBX 14 21 2 0
BITMAP
FFFC
FFFC
FFFC
FFFC
F800
F800
F800
F800
F800
F800
F800
F800
F800
F800
F800
F800
F800
F800
F800
F800
F800
ENDCHAR
STARTCHAR 0414
ENCODING 1044
SWIDTH 720 0
DWIDTH 21 0
BBX 20 26 0 -5
BITMAP
0FFFC0
0FFFC0
0FFFC0
0FFFC0
0F03C0
0F03C0
0F03C0
0F03C0
0F03C0
1F03C0
1E03C0
1E03C0
1E03C0
1E03C0
1E03C0
3E03C0
3C03C0
FFFFF0
FFFFF0
FFFFF0
FFFFF0
E000F0
E000F0
E000F0
E000F0
E000F0
ENDCHAR
STARTCHAR 0415
ENCODING 1045
SWIDTH 651 0
DWIDTH 19 0
BBX 16 21 2 0
BITMAP
FFFF
FFFF
FFFF
FFFF
F000
F000
F000
F000
FFFE
FFFE
FFFE
FFFE
F000
F000
F000
F000
F000
FFFF
FFFF
FFFF
FFFF
ENDCHAR
STARTCHAR 0416
ENCODING 1046
SWIDTH 891 0
DWIDTH 26 0
BBX 25 21 1 0
BITMAP
F03C0780
F83C1F80
FC3C3F80
3C3C3C00
1E3C7800
1E3C7800
0F3C7000
0F3CF000
07BDF000
07FFE000
03FFC000
07FFF000
0FBDF000
1F3CF800
1E3C7C00
3E3C7C00
3C3C3E00
7C3C3E00
783C1F00
F83C1F00
F83C0F80
ENDCHAR
STARTCHAR 0417
ENCODING 1047
SWIDTH 617 0
DWIDTH 18 0
BBX 16 21 1 0
BITMAP
0FE0
1FF8
7FFC
7FFC
FC3E
F83E
301E
003C
0078
03F0
03F8
03FC
003E
001E
301F
F01F
F83E
7FFE
7FFC
3FF8
0FE0
ENDCHAR
STARTCHAR 0418
ENCODING 1048
SWIDTH 720 0
DWIDTH 21 0
BBX 17 21 2 0
BITMAP
F00F80
F00F80
F01F80
F03F80
F03F80
F07F80
F07F80
F0F780
F1F780
F1E780
F3E780
F3C780
F78780
FF8780
FF0780
FF0780
FE0780
FC0780
FC0780
F80780
F80780
ENDCHAR
STARTCHAR 0419
ENCODING 1049
SWIDTH 720 0
DWIDTH 21 0
BBX 17 27 2 0
BITMAP
0C1800
061800
07F000
01E000
000000
000000
F00F80
F00F80
F01F80
F03F80
F03F80
F07F80
F07F80
F0F780
F1F780
F1E780
F3E780
F3C780
F78780
FF8780
FF0780
FF0780
FE0780
FC0780
FC0780
F80780
F80780
ENDCHAR
STARTCHAR 041A
ENCODING 1050
SWIDTH 617 0
DWIDTH 18 0
BBX 15 21 2 0
BITMAP
F01E
F03E
F07E
F0F8
F0F0
F0E0
F1E0
F1E0
F3C0
FF80
FF80
FFC0
F3E0
F1F0
F1F0
F0F8
F0F8
F07C
F07C
F03E
F03E
ENDCHAR
STARTCHAR 041B
ENCODING 1051
SWIDTH 685 0
DWIDTH 20 0
BBX 18 21 0 0
BITMAP
0FFFC0
0FFFC0
0FFFC0
0FFFC0
0F03C0
0F03C0
0F03C0
0F03C0
0F03C0
0F03C0
0F03C0
0F03C0
0F03C0
0F03C0
0F03C0
0F03C0
1F03C0
FE03C0
FE03C0
FE03C0
FC03C0
ENDCHAR
STARTCHAR 041C
ENCODING 1052
SWIDTH 822 0
DWIDTH 24 0
BBX 20 21 2 0
BITMAP
FC03F0
FE07F0
FE07F0
FE07F0
FF07F0
FF0FF0
FF0FF0
F70EF0
F78EF0
F79EF0
F79EF0
F39CF0
F3DCF0
F3FCF0
F3FCF0
F1F8F0
F1F8F0
F1F8F0
F1F8F0
F0F0F0
F0F0F0
ENDCHAR
STARTCHAR 041D
ENCODING 1053
SWIDTH 720 0
DWIDTH 21 0
BBX 17 21 2 0
BITMAP
F00780
F00780
F00780
F00780
F00780
F00780
F00780
F00780
FFFF80
FFFF80
FFFF80
FFFF80
F00780
F00780
F00780
F00780
F00780
F00780
F00780
F00780
F00780
ENDCHAR
STARTCHAR 041E
ENCODING 1054
SWIDTH 788 0
DWIDTH 23 0
BBX 20 21 1 0
BITMAP
01FC00
07FF00
1FFF80
3FFFC0
3F07E0
7C03E0
7801F0
7800F0
F800F0
F800F0
F800F0
F800F0
F800F0
7800F0
7C01F0
7C03E0
3F07E0
3FFFC0
1FFF80
07FF00
01FC00
ENDCHAR
STARTCHAR 041F
ENCODING 1055
SWIDTH 720 0
DWIDTH 21 0
BBX 17 21 2 0
BITMAP
FFFF80
FFFF80
FFFF80
FFFF80
F00F80
F00F80
F00F80
F00F80
F00F80
F00F80
F00F80
F00F80
F00F80
F00F80
F00F80
F00F80
F00F80
F00F80
F00F80
F00F80
F00F80
ENDCHAR
STARTCHAR 0420
ENCODING 1056
SWIDTH 651 0
DWIDTH 19 0
BBX 16 21 2 0
BITMAP
FFF0
FFFC
FFFE
FFFE
F03F
F01F
F00F
F01F
F03F
FFFE
FFFE
FFFC
FFF0
F000
F000
F000
F000
F000
F000
F000
F000
ENDCHAR
STARTCHAR 0421
ENCODING 1057
SWIDTH 720 0
DWIDTH 21 0
BBX 18 21 1 0
BITMAP
01F800
07FE00
1FFF80
3FFF80
3F0FC0
7C07C0
780300
780000
F80000
F80000
F80000
F80000
F80000
780300
7803C0
7C07C0
3E0FC0
3FFF80
1FFF00
07FE00
01F800
ENDCHAR
STARTCHAR 0422
ENCODING 1058
SWIDTH 617 0
DWIDTH 18 0
BBX 16 21 1 0
BITMAP
FFFF
FFFF
FFFF
FFFF
03C0
03C0
03C0
03C0
03C0
03C0
03C0
03C0
03C0
03C0
03C0
03C0
03C0
03C0
03C0
03C0
03C0
ENDCHAR
STARTCHAR 0423
ENCODING 1059
SWIDTH 617 0
DWIDTH 18 0
BBX 18 21 0 0
BITMAP
F807C0
780780
7C0780
3C0F80
3E0F00
1E1F00
0F1E00
0F3E00
07BC00
07BC00
03F800
03F800
01F800
01F000
01F000
01E000
03E000
1FC000
1FC000
1F8000
1F0000
ENDCHAR
STARTCHAR 0424
ENCODING 1060
SWIDTH 857 0
DWIDTH 25 0
BBX 22 21 1 0
BITMAP
007800
007800
03FF80
0FFFE0
3FFFF0
3FFFF8
7E78FC
78783C
F8783C
F0783C
F0783C
F0783C
F8783C
78783C
7E78FC
3FFFF8
3FFFF0
1FFFE0
03FF80
007800
007800
ENDCHAR
STARTCHAR 0425
ENCODING 1061
SWIDTH 651 0
DWIDTH 19 0
BBX 19 21 0 0
BITMAP
7C07C0
3E07C0
3E0F80
1F0F00
0F9F00
0FBE00
07FC00
03FC00
03F800
01F800
01F000
03F800
03FC00
07FC00
0FBE00
0F9F00
1F1F00
3E0F80
3E07C0
7C07C0
F803E0
ENDCHAR
STARTCHAR 0426
ENCODING 1062
SWIDTH 720 0
DWIDTH 21 0
BBX 18 26 2 -5
BITMAP
F00F80
F00F80
F00F80
F00F80
F00F80
F00F80
F00F80
F00F80
F00F80
F00F80
F00F80
F00F80
F00F80
F00F80
F00F80
F00F80
F00F80
FFFFC0
FFFFC0
FFFFC0
FFFFC0
0001C0
0001C0
0001C0
0001C0
0001C0
ENDCHAR
STARTCHAR 0427
ENCODING 1063
SWIDTH 685 0
DWIDTH 20 0
BBX 16 21 2 0
BITMAP
F00F
F00F
F00F
F00F
F00F
F00F
F00F
F00F
F00F
F81F
FFFF
7FFF
3FFF
0FCF
000F
000F
000F
000F
000F
000F
000F
ENDCHAR
STARTCHAR 0428
ENCODING 1064
SWIDTH 994 0
DWIDTH 29 0
BBX 25 21 2 0
BITMAP
F03E0780
F03E0780
F03E0780
F03E0780
F03E0780
F03E0780
F03E0780
F03E0780
F03E0780
F03E0780
F03E0780
F03E0780
F03E0780
F03E0780
F03E0780
F03E0780
F03E0780
FFFFFF80
FFFFFF80
FFFFFF80
FFFFFF80
ENDCHAR
STARTCHAR 0429
ENCODING 1065
SWIDTH 1028 0
DWIDTH 30 0
BBX 27 26 2 -5
BITMAP
F03E0780
F03E0780
F03E0780
F03E0780
F03E0780
F03E0780
F03E0780
F03E0780
F03E0780
F03E0780
F03E0780
F03E0780
F03E0780
F03E0780
F03E0780
F03E0780
F03E0780
FFFFFFE0
FFFFFFE0
FFFFFFE0
FFFFFFE0
000001E0
000001E0
000001E0
000001E0
000001E0
ENDCHAR
STARTCHAR 042A
ENCODING 1066
SWIDTH 857 0
DWIDTH 25 0
BBX 24 21 0 0
BITMAP
FFE000
FFE000
FFE000
FFE000
01E000
01E000
01E000
01E000
01FFF0
01FFFC
01FFFE
01FFFE
01E03F
01E01F
01E00F
01E01F
01E03F
01FFFE
01FFFE
01FFFC
01FFF0
ENDCHAR
STARTCHAR 042B
ENCODING 1067
SWIDTH 960 0
DWIDTH 28 0
BBX 24 21 2 0
BITMAP
F0000F
F0000F
F0000F
F0000F
F0000F
F0000F
F0000F
F0000F
FFF80F
FFFE0F
FFFF0F
FFFF8F
F00F8F
F0078F
F007CF
F0078F
F00F8F
FFFF8F
FFFF0F
FFFF0F
FFFC0F
ENDCHAR
STARTCHAR 042C
ENCODING 1068
SWIDTH 720 0
DWIDTH 21 0
BBX 18 21 2 0
BITMAP
F00000
F00000
F00000
F00000
F00000
F00000
F00000
F00000
FFF800
FFFE00
FFFF00
FFFF80
F00F80
F00780
F007C0
F00780
F00F80
FFFF80
FFFF00
FFFE00
FFFC00
ENDCHAR
STARTCHAR 042D
ENCODING 1069
SWIDTH 720 0
DWIDTH 21 0
BBX 18 21 1 0
BITMAP
07F000
1FFC00
3FFE00
7FFF00
7E1F80
F80780
3807C0
0003C0
01FFC0
01FFC0
01FFC0
01FFC0
0003C0
3803C0
F807C0
7807C0
7E1F80
3FFF00
3FFF00
0FFC00
03F000
ENDCHAR
STARTCHAR 042E
ENCODING 1070
SWIDTH 1028 0
DWIDTH 30 0
BBX 27 21 2 0
BITMAP
F003F000
F01FFE00
F03FFF00
F07FFF80
F07E1F80
F0F807C0
F0F807C0
F0F003C0
FFF003C0
FFF003E0
FFF003E0
FFF003E0
F0F003C0
F0F003C0
F0F807C0
F07807C0
F07E0F80
F03FFF80
F03FFF00
F00FFE00
F003F800
ENDCHAR
STARTCHAR 042F
ENCODING 1071
SWIDTH 720 0
DWIDTH 21 0
BBX 19 21 0 0
BITMAP
07FFE0
1FFFE0
1FFFE0
3FFFE0
3E01E0
3C01E0
3C01E0
3E01E0
3FFFE0
1FFFE0
0FFFE0
01FFE0
03E1E0
07C1E0
0F81E0
1F81E0
1F01E0
3E01E0
3E01E0
7C01E0
F801E0
ENDCHAR
STARTCHAR 0430
ENCODING 1072
SWIDTH 548 0
DWIDTH 16 0
BBX 14 16 1 0
BITMAP
0FC0
3FF0
7FF8
7878
3078
0078
00F8
1FF8
7F78
7878
F078
F078
F8F8
FFF8
7FBC
1F3C
ENDCHAR
STARTCHAR 0431
ENCODING 1073
SWIDTH 617 0
DWIDTH 18 0
BBX 16 22 1 0
BITMAP
000E
07FE
1FFC
3FF8
3800
7000
63E0
6FF8
FFFC
FC3C
F81E
F81E
F81F
F00F
F00F
701F
781E
781E
7C3C
3FFC
1FF8
07E0
ENDCHAR
STARTCHAR 0432
ENCODING 1074
SWIDTH 617 0
DWIDTH 18 0
BBX 15 16 2 0
BITMAP
FFF0
FFF8
FFFC
F03C
F03C
F03C
FFF8
FFF0
FFF8
F03C
F03E
F03E
F03E
FFFC
FFFC
FFF0
ENDCHAR
STARTCHAR 0433
ENCODING 1075
SWIDTH 411 0
DWIDTH 12 0
BBX 10 16 2 0
BITMAP
FFC0
FFC0
FFC0
F000
F000
F000
F000
F000
F000
F000
F000
F000
F000
F000
F000
F000
ENDCHAR
STARTCHAR 0434
ENCODING 1076
SWIDTH 617 0
DWIDTH 18 0
BBX 18 20 0 -4
BITMAP
0FFF00
0FFF00
0FFF00
0E0F00
0E0F00
0E0F00
0E0F00
1E0F00
1E0F00
1E0F00
1C0F00
3C0F00
3C0F00
FFFFC0
FFFFC0
FFFFC0
E001C0
E001C0
E001C0
E001C0
ENDCHAR
STARTCHAR 0435
ENCODING 1077
SWIDTH 548 0
DWIDTH 16 0
BBX 14 16 1 0
BITMAP
0FC0
1FE0
3FF0
7878
F038
F03C
FFFC
FFFC
FFFC
F000
F000
F800
7C70
7FF8
3FF8
0FE0
ENDCHAR
STARTCHAR 0436
ENCODING 1078
SWIDTH 720 0
DWIDTH 21 0
BBX 20 16 0 0
BITMAP
F0F0F0
F8F1F0
FCF1F0
1CF3C0
1EF380
0EF780
0FFF00
07FE00
0FFF80
1EF780
1EF3C0
3CF1C0
3CF1E0
78F1E0
78F0F0
F0F0F0
ENDCHAR
STARTCHAR 0437
ENCODING 1079
SWIDTH 480 0
DWIDTH 14 0
BBX 12 16 1 0
BITMAP
1F80
7FC0
7FE0
F1F0
30F0
01E0
07C0
0780
07E0
00F0
00F0
60F0
F1F0
FFF0
7FE0
1F80
ENDCHAR
STARTCHAR 0438
ENCODING 1080
SWIDTH 617 0
DWIDTH 18 0
BBX 14 16 2 0
BITMAP
F03C
F07C
F0FC
F0FC
F1FC
F1FC
F3BC
F3BC
F73C
FF3C
FE3C
FC3C
FC3C
F83C
F83C
F03C
ENDCHAR
STARTCHAR 0439
ENCODING 1081
SWIDTH 617 0
DWIDTH 18 0
BBX 14 22 2 0
BITMAP
3060
1860
1FC0
0780
0000
0000
F03C
F07C
F0FC
F0FC
F1FC
F1FC
F3BC
F3BC
F73C
FF3C
FE3C
FC3C
FC3C
F83C
F83C
F03C
ENDCHAR
STARTCHAR 043A
ENCODING 1082
SWIDTH 514 0
DWIDTH 15 0
BBX 12 16 2 0
BITMAP
F0F0
F1F0
F1F0
F3C0
F380
F380
F780
FF00
FE00
FF80
F7C0
F3C0
F1E0
F1E0
F0F0
F0F0
ENDCHAR
STARTCHAR 043B
ENCODING 1083
SWIDTH 617 0
DWIDTH 18 0
BBX 16 16 0 0
BITMAP
1FFF
1FFF
1FFF
1E07
1E07
1E07
1E07
1E07
1E07
1E07
1E07
1E07
1E07
FE07
FC07
F807
ENDCHAR
STARTCHAR 043C
ENCODING 1084
SWIDTH 720 0
DWIDTH 21 0
BBX 18 16 2 0
BITMAP
F80FC0
FC0FC0
FC0FC0
FC1FC0
FE1FC0
FE1FC0
FE3FC0
FF3BC0
F73BC0
F77BC0
F7F3C0
F3F3C0
F3F3C0
F3E3C0
F1E3C0
F1E3C0
ENDCHAR
STARTCHAR 043D
ENCODING 1085
SWIDTH 617 0
DWIDTH 18 0
BBX 14 16 2 0
BITMAP
F03C
F03C
F03C
F03C
F03C
F03C
FFFC
FFFC
FFFC
F03C
F03C
F03C
F03C
F03C
F03C
F03C
ENDCHAR
STARTCHAR 043E
ENCODING 1086
SWIDTH 617 0
DWIDTH 18 0
BBX 16 16 1 0
BITMAP
07E0
1FF8
3FFC
7C3C
781E
F81E
F01F
F00F
F00F
F01F
F81E
781E
7C3C
3FFC
1FF8
07E0
ENDCHAR
STARTCHAR 043F
ENCODING 1087
SWIDTH 617 0
DWIDTH 18 0
BBX 13 16 2 0
BITMAP
FFF8
FFF8
FFF8
F078
F078
F078
F078
F078
F078
F078
F078
F078
F078
F078
F078
F078
ENDCHAR
STARTCHAR 0440
ENCODING 1088
SWIDTH 617 0
DWIDTH 18 0
BBX 15 22 2 -6
BITMAP
F3E0
FFF0
FFF8
FC7C
F83C
F03C
F03E
F01E
F01E
F03E
F03C
F83C
FC7C
FFF8
F7F0
F3E0
F000
F000
F000
F000
F000
F000
ENDCHAR
STARTCHAR 0441
ENCODING 1089
SWIDTH 548 0
DWIDTH 16 0
BBX 14 16 1 0
BITMAP
07E0
1FF8
3FF8
7C7C
7830
F800
F000
F000
F000
F000
F800
7830
7C3C
3FFC
1FF8
07E0
ENDCHAR
STARTCHAR 0442
ENCODING 1090
SWIDTH 480 0
DWIDTH 14 0
BBX 14 16 0 0
BITMAP
FFFC
FFFC
FFFC
0780
0780
0780
0780
0780
0780
0780
0780
0780
0780
0780
0780
0780
ENDCHAR
STARTCHAR 0443
ENCODING 1091
SWIDTH 548 0
DWIDTH 16 0
BBX 15 22 0 -6
BITMAP
F81E
781E
781E
7C3C
3C3C
3C3C
1C38
1E78
1E78
0E70
0FF0
0FF0
07E0
07E0
07E0
03C0
03C0
07C0
0780
7F80
7F00
7E00
ENDCHAR
STARTCHAR 0444
ENCODING 1092
SWIDTH 857 0
DWIDTH 25 0
BBX 23 27 1 -6
BITMAP
003C00
003C00
003C00
003C00
003C00
0F3CF0
1FBFF8
3FFFFC
7CFE3C
787C3E
F83C1E
F03C1E
F03C1E
F03C1E
F03C1E
F87C1E
787C3E
7CFE3C
3FFFFC
3FBFF8
0F3DE0
003C00
003C00
003C00
003C00
003C00
003C00
ENDCHAR
STARTCHAR 0445
ENCODING 1093
SWIDTH 548 0
DWIDTH 16 0
BBX 16 16 0 0
BITMAP
7C3E
7C3C
3E7C
1EF8
1FF0
0FF0
07E0
07C0
07E0
0FF0
0FF0
1FF8
3E7C
3C7C
7C3E
F81F
ENDCHAR
STARTCHAR 0446
ENCODING 1094
SWIDTH 617 0
DWIDTH 18 0
BBX 15 20 2 -4
BITMAP
F03C
F03C
F03C
F03C
F03C
F03C
F03C
F03C
F03C
F03C
F03C
F03C
F03C
FFFE
FFFE
FFFE
000E
000E
000E
000E
ENDCHAR
STARTCHAR 0447
ENCODING 1095
SWIDTH 582 0
DWIDTH 17 0
BBX 13 16 2 0
BITMAP
F078
F078
F078
F078
F078
F078
F878
FFF8
7FF8
1F78
0078
0078
0078
0078
0078
0078
ENDCHAR
STARTCHAR 0448
ENCODING 1096
SWIDTH 822 0
DWIDTH 24 0
BBX 20 16 2 0
BITMAP
F0F070
F0F070
F0F070
F0F070
F0F070
F0F070
F0F070
F0F070
F0F070
F0F070
F0F070
F0F070
F0F070
FFFFF0
FFFFF0
FFFFF0
ENDCHAR
STARTCHAR 0449
ENCODING 1097
SWIDTH 822 0
DWIDTH 24 0
BBX 22 20 2 -4
BITMAP
F0F070
F0F070
F0F070
F0F070
F0F070
F0F070
F0F070
F0F070
F0F070
F0F070
F0F070
F0F070
F0F070
FFFFFC
FFFFFC
FFFFFC
00001C
00001C
00001C
00001C
ENDCHAR
STARTCHAR 044A
ENCODING 1098
SWIDTH 720 0
DWIDTH 21 0
BBX 19 16 1 0
BITMAP
FF0000
FF0000
FF0000
0F0000
0F0000
0F0000
0F0000
0FFF00
0FFFC0
0FFFE0
0F03E0
0F01E0
0F03E0
0FFFE0
0FFFC0
0FFF00
ENDCHAR
STARTCHAR 044B
ENCODING 1099
SWIDTH 857 0
DWIDTH 25 0
BBX 21 16 2 0
BITMAP
F00078
F00078
F00078
F00078
F00078
F00078
FFF078
FFF878
FFFC78
F03C78
F03E78
F03E78
F03C78
FFFC78
FFF878
FFF078
ENDCHAR
STARTCHAR 044C
ENCODING 1100
SWIDTH 617 0
DWIDTH 18 0
BBX 15 16 2 0
BITMAP
F000
F000
F000
F000
F000
F000
FFF0
FFF8
FFFC
F03C
F01E
F01E
F03E
FFFC
FFF8
FFF0
ENDCHAR
STARTCHAR 044D
ENCODING 1101
SWIDTH 548 0
DWIDTH 16 0
BBX 14 16 1 0
BITMAP
1FC0
3FE0
7FF0
F8F8
3078
003C
07FC
07FC
07FC
003C
007C
3078
F8F8
7FF0
7FE0
1FC0
ENDCHAR
STARTCHAR 044E
ENCODING 1102
SWIDTH 857 0
DWIDTH 25 0
BBX 22 16 2 0
BITMAP
F01F80
F03FE0
F07FF0
F0F8F8
F0F078
F1E078
FFE07C
FFE03C
FFE03C
F1E07C
F1E078
F0F078
F0F8F8
F07FF0
F03FE0
F00F80
ENDCHAR
STARTCHAR 044F
ENCODING 1103
SWIDTH 582 0
DWIDTH 17 0
BBX 15 16 0 0
BITMAP
0FFE
3FFE
3FFE
7C1E
781E
781E
7C1E
3FFE
3FFE
0FFE
0F9E
1F1E
3E1E
3C1E
7C1E
F81E
ENDCHAR
STARTCHAR 0450
ENCODING 1104
SWIDTH 548 0
DWIDTH 16 0
BBX 14 22 1 0
BITMAP
1E00
0F00
0700
0380
0000
0000
0FC0
1FE0
3FF0
7878
F038
F03C
FFFC
FFFC
FFFC
F000
F000
F800
7C70
7FF8
3FF8
0FE0
ENDCHAR
STARTCHAR 0451
ENCODING 1105
SWIDTH 548 0
DWIDTH 16 0
BBX 14 21 1 0
BITMAP
38F0
38F0
38F0
0000
0000
0FC0
1FE0
3FF0
7878
F038
F03C
FFFC
FFFC
FFFC
F000
F000
F800
7C70
7FF8
3FF8
0FE0
ENDCHAR
STARTCHAR 0452
ENCODING 1106
SWIDTH 617 0
DWIDTH 18 0
BBX 16 27 0 -6
BITMAP
3C00
FFE0
FFE0
3C00
3C00
3CF8
3DFC
3FFE
3F1E
3E0F
3C0F
3C0F
3C0F
3C0F
3C0F
3C0F
3C0F
3C0F
3C0F
3C0F
3C0F
000F
000F
000F
007E
007E
007C
ENDCHAR
STARTCHAR 0453
ENCODING 1107
SWIDTH 411 0
DWIDTH 12 0
BBX 10 22 2 0
BITMAP
1F00
1E00
3C00
3800
0000
0000
FFC0
FFC0
FFC0
F000
F000
F000
F000
F000
F000
F000
F000
F000
F000
F000
F000
F000
ENDCHAR
STARTCHAR 0454
ENCODING 1108
SWIDTH 548 0
DWIDTH 16 0
BBX 14 16 1 0
BITMAP
0FC0
1FF0
3FF8
787C
7830
F000
FF80
FF80
FF80
F000
F800
7830
7C7C
3FF8
1FF0
0FE0
ENDCHAR
STARTCHAR 0455
ENCODING 1109
SWIDTH 548 0
DWIDTH 16 0
BBX 14 16 1 0
BITMAP
1FC0
3FF0
7FF8
F078
F060
FC00
7FC0
7FF0
1FF8
03FC
007C
303C
F878
FFF8
7FF0
1FC0
ENDCHAR
STARTCHAR 0456
ENCODING 1110
SWIDTH 274 0
DWIDTH 8 0
BBX 4 21 2 0
BITMAP
F0
F0
F0
00
00
F0
F0
F0
F0
F0
F0
F0
F0
F0
F0
F0
F0
F0
F0
F0
F0
ENDCHAR
STARTCHAR 0457
ENCODING 1111
SWIDTH 274 0
DWIDTH 8 0
BBX 10 21 -1 0
BITMAP
E3C0
E3C0
E3C0
0000
0000
1E00
1E00
1E00
1E00
1E00
1E00
1E00
1E00
1E00
1E00
1E00
1E00
1E00
1E00
1E00
1E00
ENDCHAR
STARTCHAR 0458
ENCODING 1112
SWIDTH 274 0
DWIDTH 8 0
BBX 7 27 -1 -6
BITMAP
1E
1E
1E
00
00
1E
1E
1E
1E
1E
1E
1E
1E
1E
1E
1E
1E
1E
1E
1E
1E
1E
1E
1E
FE
FC
F8
ENDCHAR
STARTCHAR 0459
ENCODING 1113
SWIDTH 960 0
DWIDTH 28 0
BBX 27 16 0 0
BITMAP
1FFF0000
1FFF0000
1FFF0000
1E070000
1E070000
1E070000
1E07FF00
1E07FFC0
1E07FFC0
1E0703E0
1E0701E0
1E0701E0
1E0703E0
FE07FFC0
FC07FFC0
F807FF00
ENDCHAR
STARTCHAR 045A
ENCODING 1114
SWIDTH 891 0
DWIDTH 26 0
BBX 23 16 2 0
BITMAP
F07800
F07800
F07800
F07800
F07800
F07800
FFFFF8
FFFFFC
FFFFFE
F0783E
F0781E
F0781E
F0783E
F07FFE
F07FFC
F07FF8
ENDCHAR
STARTCHAR 045B
ENCODING 1115
SWIDTH 617 0
DWIDTH 18 0
BBX 16 21 0 0
BITMAP
3C00
FFE0
FFE0
3C00
3C00
3CF8
3DFC
3FFE
3F1E
3E0F
3C0F
3C0F
3C0F
3C0F
3C0F
3C0F
3C0F
3C0F
3C0F
3C0F
3C0F
ENDCHAR
STARTCHAR 045C
ENCODING 1116
SWIDTH 514 0
DWIDTH 15 0
BBX 12 22 2 0
BITMAP
07C0
0780
0F00
0E00
0000
0000
F0F0
F1F0
F1F0
F3C0
F380
F380
F780
FF00
FE00
FF80
F7C0
F3C0
F1E0
F1E0
F0F0
F0F0
ENDCHAR
STARTCHAR 045D
ENCODING 1117
SWIDTH 617 0
DWIDTH 18 0
BBX 14 22 2 0
BITMAP
1E00
0F00
0700
0380
0000
0000
F03C
F07C
F0FC
F0FC
F1FC
F1FC
F3BC
F3BC
F73C
FF3C
FE3C
FC3C
FC3C
F83C
F83C
F03C
ENDCHAR
STARTCHAR 045E
ENCODING 1118
SWIDTH 548 0
DWIDTH 16 0
BBX 15 28 0 -6
BITMAP
1830
0C30
0FE0
03C0
0000
0000
F81E
781E
781E
7C3C
3C3C
3C3C
1C38
1E78
1E78
0E70
0FF0
0FF0
07E0
07E0
07E0
03C0
03C0
07C0
0780
7F80
7F00
7E00
ENDCHAR
STARTCHAR 045F
ENCODING 1119
SWIDTH 617 0
DWIDTH 18 0
BBX 14 20 2 -4
BITMAP
F03C
F03C
F03C
F03C
F03C
F03C
F03C
F03C
F03C
F03C
F03C
F03C
F03C
FFFC
FFFC
FFFC
0700
0700
0700
0700
ENDCHAR
STARTCHAR 0460
ENCODING 1120
SWIDTH 1268 0
DWIDTH 37 0
BBX 35 21 1 0
BITMAP
01F803F000
07FE0FFC00
1FFE0FFF00
3FFC07FF80
3F04041F80
7C000007C0
7C000003C0
78000003E0
F8000003E0
F8000003E0
F8000001E0
F801F003E0
F801F003E0
7801F003E0
7C01F007C0
7C01F007C0
3F07FC1F80
1FFFFFFF80
1FFFFFFF00
07FFBFFC00
01FC07F000
ENDCHAR
STARTCHAR 0461
ENCODING 1121
SWIDTH 788 0
DWIDTH 23 0
BBX 22 16 0 0
BITMAP
F0F03C
F0F03C
F8F03C
78F078
78F078
787878
3C78F0
3CF8F0
3CFCE0
1EFDE0
1FFFE0
0FFFC0
0FCFC0
0FCFC0
07CF80
078780
ENDCHAR
STARTCHAR 0462
ENCODING 1122
SWIDTH 857 0
DWIDTH 25 0
BBX 24 21 0 0
BITMAP
01E000
01E000
FFFF80
FFFF80
FFFF80
01E000
01E000
01E000
01FFF0
01FFFC
01FFFE
01FFFE
01E03F
01E01F
01E00F
01E01F
01E03F
01FFFE
01FFFE
01FFFC
01FFF0
ENDCHAR
STARTCHAR 0463
ENCODING 1123
SWIDTH 685 0
DWIDTH 20 0
BBX 19 21 0 0
BITMAP
078000
078000
078000
078000
078000
FFF800
FFF800
FFF800
078000
078000
07FF00
07FFC0
07FFE0
0783E0
0781E0
0781E0
0781E0
0783E0
07FFE0
07FFC0
07FF00
ENDCHAR
STARTCHAR 0464
ENCODING 1124
SWIDTH 960 0
DWIDTH 28 0
BBX 25 21 2 0
BITMAP
F007F000
F01FFC00
F03FFE00
F07FFF00
F0FC1F00
F0F80F80
F1F00600
F1E00000
FFFFC000
FFFFC000
FFFFC000
FFFFC000
F1E00000
F1F00600
F1F00F80
F0F80F80
F0FC3F00
F07FFF00
F03FFE00
F01FFC00
F007F000
ENDCHAR
STARTCHAR 0465
ENCODING 1125
SWIDTH 788 0
DWIDTH 23 0
BBX 20 16 2 0
BITMAP
F03F80
F0FFC0
F0FFE0
F1F1F0
F1E0C0
F3C000
FFFE00
FFFE00
FFFE00
F3C000
F3E000
F1E0C0
F1F1F0
F0FFE0
F07FE0
F03F80
ENDCHAR
STARTCHAR 0466
ENCODING 1126
SWIDTH 651 0
DWIDTH 19 0
BBX 19 21 0 0
BITMAP
01F000
01F000
01F800
03F800
03F800
07FC00
07BC00
07BE00
0F9E00
0F1E00
0FFF00
1FFF00
1FFF00
1EEF80
3CE780
3CE780
3CE7C0
7CE3C0
78E3C0
78E3E0
F8E1E0
ENDCHAR
STARTCHAR 0467
ENCODING 1127
SWIDTH 548 0
DWIDTH 16 0
BBX 16 16 0 0
BITMAP
03C0
03C0
07E0
07E0
0FE0
0FF0
0FF0
1E78
1FF8
1FF8
3DBC
3DBC
799C
799E
799E
F18F
ENDCHAR
STARTCHAR 0468
ENCODING 1128
SWIDTH 925 0
DWIDTH 27 0
BBX 25 21 2 0
BITMAP
F007C000
F00FC000
F00FC000
F00FE000
F01FE000
F01FE000
F01FF000
F03CF000
F03CF000
F07CF800
FFFFF800
FFFFF800
FFFFFC00
F0F7BC00
F0F7BE00
F1F79E00
F1E79E00
F1E79F00
F3E79F00
F3C78F00
F3C78F80
ENDCHAR
STARTCHAR 0469
ENCODING 1129
SWIDTH 788 0
DWIDTH 23 0
BBX 21 16 2 0
BITMAP
F01E00
F01E00
F03F00
F03F00
F03F80
F07F80
F07F80
F0F3C0
FFFFC0
FFFFC0
F1EDE0
F1EDE0
F3CCF0
F3CCF0
F3CCF0
F7CC78
ENDCHAR
ENDFONT
